%TF.GenerationSoftware,KiCad,Pcbnew,7.0.1*%
%TF.CreationDate,2023-04-23T14:22:28-06:00*%
%TF.ProjectId,Phase_B_UnoShield,50686173-655f-4425-9f55-6e6f53686965,rev?*%
%TF.SameCoordinates,Original*%
%TF.FileFunction,Copper,L2,Bot*%
%TF.FilePolarity,Positive*%
%FSLAX46Y46*%
G04 Gerber Fmt 4.6, Leading zero omitted, Abs format (unit mm)*
G04 Created by KiCad (PCBNEW 7.0.1) date 2023-04-23 14:22:28*
%MOMM*%
%LPD*%
G01*
G04 APERTURE LIST*
%TA.AperFunction,ComponentPad*%
%ADD10R,1.500000X1.500000*%
%TD*%
%TA.AperFunction,ComponentPad*%
%ADD11C,1.500000*%
%TD*%
%TA.AperFunction,ComponentPad*%
%ADD12R,1.700000X1.700000*%
%TD*%
%TA.AperFunction,ComponentPad*%
%ADD13O,1.700000X1.700000*%
%TD*%
%TA.AperFunction,ComponentPad*%
%ADD14R,2.000000X2.000000*%
%TD*%
%TA.AperFunction,ComponentPad*%
%ADD15C,2.000000*%
%TD*%
%TA.AperFunction,ViaPad*%
%ADD16C,0.600000*%
%TD*%
%TA.AperFunction,Conductor*%
%ADD17C,0.500000*%
%TD*%
%TA.AperFunction,Conductor*%
%ADD18C,0.305000*%
%TD*%
%TA.AperFunction,Conductor*%
%ADD19C,0.250000*%
%TD*%
G04 APERTURE END LIST*
D10*
%TO.P,U1,1,e*%
%TO.N,Net-(U1-e)*%
X40005000Y-69850000D03*
D11*
%TO.P,U1,2,d*%
%TO.N,Net-(U1-d)*%
X42545000Y-69850000D03*
%TO.P,U1,3,DPX*%
%TO.N,Net-(U1-DPX)*%
X45085000Y-69850000D03*
%TO.P,U1,4,c*%
%TO.N,Net-(U1-c)*%
X47625000Y-69850000D03*
%TO.P,U1,5,g*%
%TO.N,Net-(U1-g)*%
X50165000Y-69850000D03*
%TO.P,U1,6,CA4*%
%TO.N,Dig4*%
X52705000Y-69850000D03*
%TO.P,U1,7,b*%
%TO.N,Net-(U1-b)*%
X52705000Y-54610000D03*
%TO.P,U1,8,CA3*%
%TO.N,Dig3*%
X50165000Y-54610000D03*
%TO.P,U1,9,CA2*%
%TO.N,Dig2*%
X47625000Y-54610000D03*
%TO.P,U1,10,f*%
%TO.N,Net-(U1-f)*%
X45085000Y-54610000D03*
%TO.P,U1,11,a*%
%TO.N,Net-(U1-a)*%
X42545000Y-54610000D03*
%TO.P,U1,12,CA1*%
%TO.N,Dig1*%
X40005000Y-54610000D03*
%TD*%
D12*
%TO.P,J4,1,Pin_1*%
%TO.N,GND*%
X29169549Y-121947651D03*
D13*
%TO.P,J4,2,Pin_2*%
%TO.N,TX*%
X29169549Y-119407651D03*
%TO.P,J4,3,Pin_3*%
%TO.N,unconnected-(J4-Pin_3-Pad3)*%
X26629549Y-121947651D03*
%TO.P,J4,4,Pin_4*%
%TO.N,+3.3V*%
X26629549Y-119407651D03*
%TO.P,J4,5,Pin_5*%
%TO.N,Net-(J4-Pin_5)*%
X24089549Y-121947651D03*
%TO.P,J4,6,Pin_6*%
%TO.N,+3.3V*%
X24089549Y-119407651D03*
%TO.P,J4,7,Pin_7*%
%TO.N,RX*%
X21549549Y-121947651D03*
%TO.P,J4,8,Pin_8*%
%TO.N,+3.3V*%
X21549549Y-119407651D03*
%TD*%
D14*
%TO.P,LS1,1,1*%
%TO.N,Buzzer*%
X97335439Y-61120439D03*
D15*
%TO.P,LS1,2,2*%
%TO.N,GND*%
X104935439Y-61120439D03*
%TD*%
D12*
%TO.P,J3,1,MISO*%
%TO.N,MISO*%
X56515000Y-121920000D03*
D13*
%TO.P,J3,2,VCC*%
%TO.N,+5V*%
X56515000Y-119380000D03*
%TO.P,J3,3,SCK*%
%TO.N,SCK*%
X59055000Y-121920000D03*
%TO.P,J3,4,MOSI*%
%TO.N,MOSI*%
X59055000Y-119380000D03*
%TO.P,J3,5,~{RST}*%
%TO.N,RST*%
X61595000Y-121920000D03*
%TO.P,J3,6,GND*%
%TO.N,GND*%
X61595000Y-119380000D03*
%TD*%
D16*
%TO.N,GND*%
X46355000Y-105461787D03*
X34290000Y-120059651D03*
X69215000Y-99060000D03*
X100330000Y-105410000D03*
X86360000Y-105410000D03*
X43180000Y-106680000D03*
X35242500Y-122555000D03*
X68580000Y-103505000D03*
X34290000Y-115683000D03*
X56518534Y-106041466D03*
X63500000Y-84455000D03*
X55596466Y-106963534D03*
X83820000Y-114935000D03*
X45085000Y-111125000D03*
X88265000Y-101600000D03*
X80010000Y-59690000D03*
X62865000Y-99060000D03*
X41275000Y-86995000D03*
X43180000Y-104966787D03*
X51435000Y-95250000D03*
X78105000Y-111125000D03*
X64770000Y-118110000D03*
X68580000Y-76200000D03*
X108585000Y-117475000D03*
X54610000Y-112395000D03*
X71755000Y-92710000D03*
X45085000Y-103505000D03*
X60325000Y-90805000D03*
X44450000Y-104966787D03*
X52531034Y-92536034D03*
X50800000Y-90170000D03*
X73643000Y-103505000D03*
X75574511Y-106054511D03*
X86995000Y-114300000D03*
X64135000Y-113665000D03*
X65570500Y-116978204D03*
X47544460Y-111087500D03*
X111760000Y-64135000D03*
X73025000Y-102870000D03*
X35560000Y-81280000D03*
X37470000Y-114940000D03*
X67068284Y-115442913D03*
X72390000Y-103505000D03*
X69073966Y-94756034D03*
X69405000Y-91440000D03*
X115570000Y-72390000D03*
%TO.N,+5V*%
X50165000Y-91440000D03*
X41275000Y-115570000D03*
X41910000Y-113030000D03*
X50243936Y-86688544D03*
%TO.N,Buzzer*%
X81622904Y-97730890D03*
X93980000Y-73025000D03*
%TO.N,Button_1*%
X66675000Y-114300000D03*
X100330000Y-113030000D03*
%TO.N,Button_2*%
X83185000Y-102870000D03*
X67945000Y-110507000D03*
%TO.N,RED_LED*%
X74930000Y-104140000D03*
X74295000Y-80225421D03*
%TO.N,GREEN_LED*%
X76835000Y-109220000D03*
X85090000Y-80645000D03*
%TO.N,a*%
X39370000Y-80010000D03*
X50800000Y-83820000D03*
%TO.N,c*%
X45737000Y-83185000D03*
X44433000Y-83326069D03*
%TO.N,f*%
X41275000Y-85725000D03*
X39988000Y-83820000D03*
%TO.N,g*%
X47768534Y-82058534D03*
X44433000Y-85926069D03*
%TO.N,Dig4*%
X55245000Y-77470000D03*
X66675000Y-83820000D03*
%TO.N,Dig3*%
X61595000Y-104140000D03*
X52070000Y-59055000D03*
%TO.N,Dig2*%
X41893000Y-72390000D03*
X70057000Y-108404129D03*
%TO.N,Dig1*%
X70057000Y-103505000D03*
X43815000Y-59055000D03*
%TO.N,SH_CP*%
X50487433Y-85725000D03*
X53340000Y-86995000D03*
%TO.N,ST_CP*%
X58419500Y-91832343D03*
X48170506Y-85181384D03*
X70057000Y-106680000D03*
X52739500Y-86343000D03*
%TO.N,DS*%
X48015307Y-84382276D03*
X73660000Y-105732000D03*
%TO.N,XTAL2*%
X65787973Y-110819959D03*
X81915000Y-113047000D03*
%TO.N,XTAL1*%
X72031568Y-114924500D03*
X68809500Y-115922966D03*
X104775000Y-109855000D03*
X70033201Y-113612686D03*
X99508835Y-109855000D03*
X66051353Y-113799733D03*
X92710000Y-111090500D03*
X69850000Y-119414500D03*
%TO.N,RST*%
X62230000Y-115553000D03*
X65405000Y-115553000D03*
%TO.N,UCAP*%
X61595000Y-106680000D03*
X58420000Y-98425000D03*
%TO.N,AREF*%
X67310000Y-93997000D03*
X67310000Y-89535000D03*
%TO.N,+3.3V*%
X48895000Y-113030000D03*
X48912000Y-111125000D03*
%TO.N,SCK*%
X63829043Y-114403644D03*
X62865000Y-109220000D03*
%TO.N,TX*%
X67310000Y-116205000D03*
X54610000Y-116205000D03*
%TO.N,Net-(J4-Pin_5)*%
X45720000Y-116205000D03*
X50165000Y-120650000D03*
%TO.N,RX*%
X73025000Y-116840000D03*
X74566034Y-117746034D03*
%TD*%
D17*
%TO.N,GND*%
X68060000Y-115847873D02*
X67655040Y-115442913D01*
D18*
X43180000Y-104966787D02*
X43623213Y-104966787D01*
D17*
X65570500Y-116978204D02*
X67597457Y-116978204D01*
D18*
X43180000Y-106680000D02*
X43180000Y-106236787D01*
D17*
X46355000Y-105461787D02*
X46355000Y-104497787D01*
X52531034Y-92536034D02*
X52531034Y-91901034D01*
D18*
X43623213Y-104966787D02*
X45085000Y-103505000D01*
D17*
X55596466Y-106963534D02*
X56518534Y-106041466D01*
X69073966Y-94756034D02*
X69073966Y-91771034D01*
X47544460Y-111087500D02*
X48256960Y-110375000D01*
X69073966Y-91771034D02*
X69405000Y-91440000D01*
X68580000Y-103505000D02*
X69330000Y-104255000D01*
X52531034Y-91901034D02*
X50800000Y-90170000D01*
D19*
X86995000Y-114300000D02*
X86360000Y-114935000D01*
D17*
X46355000Y-104497787D02*
X46990000Y-103862787D01*
X67597457Y-116978204D02*
X68060000Y-116515661D01*
X48256960Y-110375000D02*
X52590000Y-110375000D01*
D19*
X75574511Y-106054511D02*
X73643000Y-104123000D01*
D17*
X68060000Y-116515661D02*
X68060000Y-115847873D01*
X67655040Y-115442913D02*
X67068284Y-115442913D01*
D18*
X43180000Y-106236787D02*
X44450000Y-104966787D01*
D17*
X69330000Y-104255000D02*
X71640000Y-104255000D01*
D19*
X86360000Y-114935000D02*
X83820000Y-114935000D01*
X73643000Y-104123000D02*
X73643000Y-103505000D01*
D17*
X71640000Y-104255000D02*
X72390000Y-103505000D01*
X52590000Y-110375000D02*
X54610000Y-112395000D01*
D18*
X34290000Y-120059651D02*
X34290000Y-115683000D01*
%TO.N,+5V*%
X50147500Y-91422500D02*
X50165000Y-91440000D01*
X50243936Y-86688544D02*
X50147500Y-86784980D01*
X50147500Y-86784980D02*
X50147500Y-91422500D01*
X41910000Y-113030000D02*
X41910000Y-114935000D01*
X41910000Y-114935000D02*
X41275000Y-115570000D01*
%TO.N,Buzzer*%
X93980000Y-85373794D02*
X93980000Y-73025000D01*
X81622904Y-97730890D02*
X93980000Y-85373794D01*
D19*
%TO.N,Button_1*%
X99705000Y-112405000D02*
X85328884Y-112405000D01*
X85328884Y-112405000D02*
X83433884Y-114300000D01*
X83433884Y-114300000D02*
X66675000Y-114300000D01*
X100330000Y-113030000D02*
X99705000Y-112405000D01*
D18*
%TO.N,Button_2*%
X83185000Y-103792775D02*
X83185000Y-102870000D01*
X67945000Y-110507000D02*
X76470775Y-110507000D01*
X76470775Y-110507000D02*
X83185000Y-103792775D01*
%TO.N,RED_LED*%
X74295000Y-103505000D02*
X74930000Y-104140000D01*
X74295000Y-80225421D02*
X74295000Y-103505000D01*
%TO.N,GREEN_LED*%
X85090000Y-80645000D02*
X76835000Y-88900000D01*
X76835000Y-88900000D02*
X76835000Y-109220000D01*
%TO.N,a*%
X46990000Y-80010000D02*
X50800000Y-83820000D01*
X39370000Y-80010000D02*
X46990000Y-80010000D01*
%TO.N,c*%
X44574069Y-83185000D02*
X44433000Y-83326069D01*
X45737000Y-83185000D02*
X44574069Y-83185000D01*
%TO.N,f*%
X39988000Y-84438000D02*
X41275000Y-85725000D01*
X39988000Y-83820000D02*
X39988000Y-84438000D01*
%TO.N,g*%
X44433000Y-85926069D02*
X46990000Y-83369069D01*
X46990000Y-83369069D02*
X46990000Y-82837068D01*
X46990000Y-82837068D02*
X47768534Y-82058534D01*
%TO.N,Dig4*%
X60942500Y-104410275D02*
X60942500Y-92692500D01*
X61865275Y-104792500D02*
X61324725Y-104792500D01*
X62247500Y-103869725D02*
X62247500Y-104410275D01*
X60942500Y-92692500D02*
X55245000Y-86995000D01*
X62100000Y-103722225D02*
X62247500Y-103869725D01*
X61324725Y-104792500D02*
X60942500Y-104410275D01*
X62247500Y-104410275D02*
X61865275Y-104792500D01*
X62100000Y-88395000D02*
X62100000Y-103722225D01*
X55245000Y-86995000D02*
X55245000Y-77470000D01*
X66675000Y-83820000D02*
X62100000Y-88395000D01*
%TO.N,Dig3*%
X61595000Y-68580000D02*
X52070000Y-59055000D01*
X61595000Y-104140000D02*
X61595000Y-68580000D01*
%TO.N,Dig2*%
X52087500Y-84725275D02*
X57767500Y-90405275D01*
X57767500Y-104122500D02*
X62049129Y-108404129D01*
X57767500Y-90405275D02*
X57767500Y-104122500D01*
X62049129Y-108404129D02*
X70057000Y-108404129D01*
X41893000Y-72390000D02*
X52087500Y-82584500D01*
X52087500Y-82584500D02*
X52087500Y-84725275D01*
%TO.N,Dig1*%
X44467500Y-58402500D02*
X53394854Y-58402500D01*
X43815000Y-59055000D02*
X44467500Y-58402500D01*
X53394854Y-58402500D02*
X70057000Y-75064646D01*
X70057000Y-75064646D02*
X70057000Y-103505000D01*
%TO.N,SH_CP*%
X53340000Y-86995000D02*
X51757433Y-86995000D01*
X51757433Y-86995000D02*
X50487433Y-85725000D01*
%TO.N,ST_CP*%
X46973000Y-84382276D02*
X46973000Y-85090000D01*
X52739500Y-86343000D02*
X52053000Y-86343000D01*
X59274220Y-92687063D02*
X58419500Y-91832343D01*
X47966034Y-83389242D02*
X46973000Y-84382276D01*
X68674500Y-105297500D02*
X61115547Y-105297500D01*
X70057000Y-106680000D02*
X68674500Y-105297500D01*
X50800000Y-85090000D02*
X50165000Y-84455000D01*
X47969145Y-86224567D02*
X47969145Y-85382745D01*
X61115547Y-105297500D02*
X59274220Y-103456173D01*
X50165000Y-84455000D02*
X49099242Y-83389242D01*
X46973000Y-85090000D02*
X46973000Y-85228422D01*
X46973000Y-85228422D02*
X47969145Y-86224567D01*
X59274220Y-103456173D02*
X59274220Y-92687063D01*
X52053000Y-86343000D02*
X50800000Y-85090000D01*
X47969145Y-85382745D02*
X48170506Y-85181384D01*
X49099242Y-83389242D02*
X47966034Y-83389242D01*
%TO.N,DS*%
X48823006Y-84442798D02*
X48823006Y-96278769D01*
X79645275Y-111742500D02*
X78992775Y-112395000D01*
X53957500Y-116475275D02*
X54339725Y-116857500D01*
X68910225Y-112395000D02*
X67292500Y-110777275D01*
X70335371Y-109056629D02*
X73660000Y-105732000D01*
X68472596Y-109056629D02*
X70335371Y-109056629D01*
X48823006Y-96278769D02*
X48277000Y-96824775D01*
X48762484Y-84382276D02*
X48823006Y-84442798D01*
X58984450Y-110907775D02*
X53957500Y-115934725D01*
X67292500Y-110777275D02*
X67292500Y-110236725D01*
X100982500Y-112759725D02*
X99965275Y-111742500D01*
X99965275Y-111742500D02*
X79645275Y-111742500D01*
X54339725Y-116857500D02*
X62594725Y-116857500D01*
X48277000Y-96824775D02*
X58984450Y-107532225D01*
X48015307Y-84382276D02*
X48762484Y-84382276D01*
X62594725Y-116857500D02*
X64499725Y-118762500D01*
X67292500Y-110236725D02*
X68472596Y-109056629D01*
X64499725Y-118762500D02*
X95520275Y-118762500D01*
X53957500Y-115934725D02*
X53957500Y-116475275D01*
X100982500Y-113300275D02*
X100982500Y-112759725D01*
X95520275Y-118762500D02*
X100982500Y-113300275D01*
X78992775Y-112395000D02*
X68910225Y-112395000D01*
X58984450Y-107532225D02*
X58984450Y-110907775D01*
%TO.N,XTAL2*%
X67928700Y-112960686D02*
X81828686Y-112960686D01*
X81828686Y-112960686D02*
X81915000Y-113047000D01*
X65787973Y-110819959D02*
X67928700Y-112960686D01*
%TO.N,XTAL1*%
X70033201Y-113612686D02*
X66238400Y-113612686D01*
X101487500Y-113509453D02*
X95582453Y-119414500D01*
X71033102Y-115922966D02*
X72031568Y-114924500D01*
X66238400Y-113612686D02*
X66051353Y-113799733D01*
X68809500Y-115922966D02*
X71033102Y-115922966D01*
X99508835Y-109855000D02*
X104775000Y-109855000D01*
X92710000Y-111090500D02*
X100027453Y-111090500D01*
X95582453Y-119414500D02*
X69850000Y-119414500D01*
X100027453Y-111090500D02*
X101487500Y-112550547D01*
X101487500Y-112550547D02*
X101487500Y-113509453D01*
%TO.N,RST*%
X65405000Y-115553000D02*
X63483000Y-115553000D01*
X63483000Y-115553000D02*
X62230000Y-115553000D01*
%TO.N,UCAP*%
X58420000Y-98425000D02*
X58420000Y-103505000D01*
X58420000Y-103505000D02*
X61595000Y-106680000D01*
%TO.N,AREF*%
X67310000Y-93997000D02*
X67310000Y-89535000D01*
%TO.N,+3.3V*%
X48417158Y-111619842D02*
X48417158Y-112552158D01*
X48417158Y-111619842D02*
X48912000Y-111125000D01*
X48417158Y-112552158D02*
X48895000Y-113030000D01*
%TO.N,SCK*%
X63829043Y-114403644D02*
X62865000Y-113439601D01*
X62865000Y-113439601D02*
X62865000Y-109220000D01*
%TO.N,TX*%
X54610000Y-116205000D02*
X67310000Y-116205000D01*
%TO.N,Net-(J4-Pin_5)*%
X45720000Y-116205000D02*
X50165000Y-120650000D01*
%TO.N,RX*%
X74566034Y-117746034D02*
X73931034Y-117746034D01*
X73931034Y-117746034D02*
X73025000Y-116840000D01*
%TD*%
%TA.AperFunction,Conductor*%
%TO.N,GND*%
G36*
X99438687Y-113047939D02*
G01*
X99478915Y-113074819D01*
X99496151Y-113092055D01*
X99520190Y-113125934D01*
X99531690Y-113165852D01*
X99536782Y-113211043D01*
X99536782Y-113211045D01*
X99536783Y-113211047D01*
X99596957Y-113383015D01*
X99686352Y-113525287D01*
X99704578Y-113577373D01*
X99698400Y-113632211D01*
X99669039Y-113678938D01*
X95282798Y-118065181D01*
X95242570Y-118092061D01*
X95195117Y-118101500D01*
X75472981Y-118101500D01*
X75416068Y-118087667D01*
X75371852Y-118049256D01*
X75350199Y-117994835D01*
X75355939Y-117936547D01*
X75359251Y-117927080D01*
X75379650Y-117746033D01*
X75366939Y-117633217D01*
X75359251Y-117564987D01*
X75299077Y-117393019D01*
X75202145Y-117238753D01*
X75073315Y-117109923D01*
X74919049Y-117012991D01*
X74747081Y-116952817D01*
X74747080Y-116952816D01*
X74747078Y-116952816D01*
X74566034Y-116932417D01*
X74384989Y-116952816D01*
X74227124Y-117008055D01*
X74158577Y-117011904D01*
X74098489Y-116978694D01*
X73853909Y-116734114D01*
X73829868Y-116700232D01*
X73818370Y-116660314D01*
X73818217Y-116658953D01*
X73758043Y-116486985D01*
X73661111Y-116332719D01*
X73532281Y-116203889D01*
X73378015Y-116106957D01*
X73206047Y-116046783D01*
X73206046Y-116046782D01*
X73206044Y-116046782D01*
X73025000Y-116026383D01*
X72843955Y-116046782D01*
X72671984Y-116106957D01*
X72517717Y-116203890D01*
X72388890Y-116332717D01*
X72291957Y-116486984D01*
X72231782Y-116658955D01*
X72211383Y-116840000D01*
X72231782Y-117021044D01*
X72231782Y-117021046D01*
X72231783Y-117021047D01*
X72291957Y-117193015D01*
X72388889Y-117347281D01*
X72517719Y-117476111D01*
X72671985Y-117573043D01*
X72843953Y-117633217D01*
X72845314Y-117633370D01*
X72885232Y-117644868D01*
X72919114Y-117668909D01*
X73140024Y-117889819D01*
X73170274Y-117939182D01*
X73174816Y-117996898D01*
X73152661Y-118050385D01*
X73108638Y-118087985D01*
X73052343Y-118101500D01*
X64824883Y-118101500D01*
X64777430Y-118092061D01*
X64737202Y-118065181D01*
X63749702Y-117077681D01*
X63719452Y-117028318D01*
X63714910Y-116970602D01*
X63737065Y-116917115D01*
X63781088Y-116879515D01*
X63837383Y-116866000D01*
X66806606Y-116866000D01*
X66872577Y-116885005D01*
X66956985Y-116938043D01*
X67128953Y-116998217D01*
X67310000Y-117018616D01*
X67491047Y-116998217D01*
X67663015Y-116938043D01*
X67817281Y-116841111D01*
X67946111Y-116712281D01*
X68043043Y-116558015D01*
X68044770Y-116553078D01*
X68079184Y-116501573D01*
X68134219Y-116473141D01*
X68196139Y-116474878D01*
X68249493Y-116506351D01*
X68302219Y-116559077D01*
X68456485Y-116656009D01*
X68628453Y-116716183D01*
X68809500Y-116736582D01*
X68990547Y-116716183D01*
X69162515Y-116656009D01*
X69246922Y-116602971D01*
X69312894Y-116583966D01*
X71009367Y-116583966D01*
X71016854Y-116584192D01*
X71019308Y-116584340D01*
X71073305Y-116587607D01*
X71128932Y-116577412D01*
X71136313Y-116576288D01*
X71192452Y-116569472D01*
X71200801Y-116566305D01*
X71222409Y-116560281D01*
X71231196Y-116558671D01*
X71282775Y-116535456D01*
X71289628Y-116532617D01*
X71342540Y-116512551D01*
X71349885Y-116507480D01*
X71369431Y-116496455D01*
X71377573Y-116492792D01*
X71422086Y-116457918D01*
X71428105Y-116453489D01*
X71474646Y-116421366D01*
X71512155Y-116379023D01*
X71517258Y-116373603D01*
X72137455Y-115753406D01*
X72171335Y-115729368D01*
X72211253Y-115717870D01*
X72212615Y-115717717D01*
X72384583Y-115657543D01*
X72538849Y-115560611D01*
X72667679Y-115431781D01*
X72764611Y-115277515D01*
X72824785Y-115105547D01*
X72831762Y-115043617D01*
X72852529Y-114987648D01*
X72897042Y-114947870D01*
X72954983Y-114933500D01*
X83350251Y-114933500D01*
X83370992Y-114935789D01*
X83373789Y-114935701D01*
X83373793Y-114935702D01*
X83441901Y-114933560D01*
X83445797Y-114933500D01*
X83473738Y-114933500D01*
X83473740Y-114933500D01*
X83477840Y-114932981D01*
X83489490Y-114932064D01*
X83533773Y-114930673D01*
X83553382Y-114924975D01*
X83572415Y-114921033D01*
X83592681Y-114918474D01*
X83633890Y-114902157D01*
X83644921Y-114898380D01*
X83687477Y-114886018D01*
X83705044Y-114875628D01*
X83722516Y-114867068D01*
X83741501Y-114859552D01*
X83777359Y-114833498D01*
X83787107Y-114827096D01*
X83825246Y-114804542D01*
X83839684Y-114790103D01*
X83854472Y-114777472D01*
X83870991Y-114765472D01*
X83899243Y-114731319D01*
X83907087Y-114722699D01*
X85554968Y-113074819D01*
X85595197Y-113047939D01*
X85642650Y-113038500D01*
X99391234Y-113038500D01*
X99438687Y-113047939D01*
G37*
%TD.AperFunction*%
%TA.AperFunction,Conductor*%
G36*
X68525460Y-114952506D02*
G01*
X68571208Y-115003698D01*
X68582708Y-115071383D01*
X68556435Y-115134813D01*
X68500443Y-115174541D01*
X68456487Y-115189921D01*
X68302217Y-115286856D01*
X68173390Y-115415683D01*
X68076454Y-115569955D01*
X68074726Y-115574894D01*
X68040310Y-115626396D01*
X67985276Y-115654825D01*
X67923358Y-115653086D01*
X67870006Y-115621614D01*
X67817282Y-115568890D01*
X67817281Y-115568889D01*
X67663015Y-115471957D01*
X67491047Y-115411783D01*
X67491046Y-115411782D01*
X67491044Y-115411782D01*
X67310000Y-115391383D01*
X67128955Y-115411782D01*
X66956984Y-115471957D01*
X66872578Y-115524994D01*
X66806606Y-115544000D01*
X66328415Y-115544000D01*
X66270474Y-115529630D01*
X66225961Y-115489852D01*
X66205195Y-115433883D01*
X66198217Y-115371955D01*
X66198217Y-115371953D01*
X66138043Y-115199985D01*
X66133754Y-115193160D01*
X66114779Y-115129971D01*
X66130900Y-115065993D01*
X66177553Y-115019340D01*
X66241531Y-115003219D01*
X66304720Y-115022194D01*
X66321985Y-115033043D01*
X66493953Y-115093217D01*
X66675000Y-115113616D01*
X66856047Y-115093217D01*
X67028015Y-115033043D01*
X67156189Y-114952505D01*
X67222160Y-114933500D01*
X68459488Y-114933500D01*
X68525460Y-114952506D01*
G37*
%TD.AperFunction*%
%TA.AperFunction,Conductor*%
G36*
X67286233Y-109078644D02*
G01*
X67330256Y-109116244D01*
X67352411Y-109169731D01*
X67347869Y-109227447D01*
X67317619Y-109276810D01*
X66841881Y-109752546D01*
X66836429Y-109757678D01*
X66794099Y-109795180D01*
X66761974Y-109841720D01*
X66757540Y-109847748D01*
X66722674Y-109892254D01*
X66719009Y-109900397D01*
X66707988Y-109919937D01*
X66702914Y-109927287D01*
X66682863Y-109980156D01*
X66679998Y-109987071D01*
X66656794Y-110038630D01*
X66655183Y-110047419D01*
X66649161Y-110069022D01*
X66645993Y-110077376D01*
X66639176Y-110133504D01*
X66638050Y-110140902D01*
X66627858Y-110196521D01*
X66628715Y-110210689D01*
X66618015Y-110269067D01*
X66581413Y-110315785D01*
X66527291Y-110340142D01*
X66468050Y-110336558D01*
X66417260Y-110305854D01*
X66295255Y-110183849D01*
X66295254Y-110183848D01*
X66140988Y-110086916D01*
X65969020Y-110026742D01*
X65969019Y-110026741D01*
X65969017Y-110026741D01*
X65787973Y-110006342D01*
X65606928Y-110026741D01*
X65434957Y-110086916D01*
X65280690Y-110183849D01*
X65151863Y-110312676D01*
X65054930Y-110466943D01*
X64994755Y-110638914D01*
X64974356Y-110819959D01*
X64994755Y-111001003D01*
X64994755Y-111001005D01*
X64994756Y-111001006D01*
X65054930Y-111172974D01*
X65151862Y-111327240D01*
X65280692Y-111456070D01*
X65434958Y-111553002D01*
X65606926Y-111613176D01*
X65608288Y-111613329D01*
X65648204Y-111624828D01*
X65682086Y-111648868D01*
X66299799Y-112266581D01*
X66773224Y-112740005D01*
X66803474Y-112789368D01*
X66808016Y-112847084D01*
X66785861Y-112900571D01*
X66741838Y-112938171D01*
X66685543Y-112951686D01*
X66262123Y-112951686D01*
X66254636Y-112951460D01*
X66198194Y-112948045D01*
X66142590Y-112958235D01*
X66135190Y-112959361D01*
X66079049Y-112966179D01*
X66070698Y-112969346D01*
X66049091Y-112975370D01*
X66040307Y-112976980D01*
X66027247Y-112982858D01*
X65990241Y-112993002D01*
X65870308Y-113006515D01*
X65698337Y-113066690D01*
X65544070Y-113163623D01*
X65415243Y-113292450D01*
X65318310Y-113446717D01*
X65258135Y-113618688D01*
X65237736Y-113799732D01*
X65258135Y-113980777D01*
X65258135Y-113980779D01*
X65258136Y-113980780D01*
X65318310Y-114152748D01*
X65415242Y-114307014D01*
X65544072Y-114435844D01*
X65698338Y-114532776D01*
X65870306Y-114592950D01*
X65870308Y-114592950D01*
X65872817Y-114593828D01*
X65909173Y-114613922D01*
X65936854Y-114644895D01*
X65946242Y-114659835D01*
X65965219Y-114723025D01*
X65949099Y-114787003D01*
X65902447Y-114833657D01*
X65838469Y-114849779D01*
X65775279Y-114830804D01*
X65758017Y-114819958D01*
X65758016Y-114819957D01*
X65758015Y-114819957D01*
X65586047Y-114759783D01*
X65586046Y-114759782D01*
X65586044Y-114759782D01*
X65404999Y-114739383D01*
X65223955Y-114759782D01*
X65051984Y-114819957D01*
X64967578Y-114872994D01*
X64901606Y-114892000D01*
X64689490Y-114892000D01*
X64632576Y-114878167D01*
X64588361Y-114839755D01*
X64566708Y-114785334D01*
X64572448Y-114727046D01*
X64582778Y-114697524D01*
X64622260Y-114584691D01*
X64642659Y-114403644D01*
X64622260Y-114222597D01*
X64562086Y-114050629D01*
X64465154Y-113896363D01*
X64336324Y-113767533D01*
X64182058Y-113670601D01*
X64121192Y-113649303D01*
X64010083Y-113610424D01*
X64008718Y-113610271D01*
X63968804Y-113598770D01*
X63934928Y-113574733D01*
X63562319Y-113202124D01*
X63535439Y-113161896D01*
X63526000Y-113114443D01*
X63526000Y-109723394D01*
X63545006Y-109657422D01*
X63545882Y-109656028D01*
X63598043Y-109573015D01*
X63658217Y-109401047D01*
X63678616Y-109220000D01*
X63678491Y-109218889D01*
X63676703Y-109203011D01*
X63688203Y-109135327D01*
X63733951Y-109084135D01*
X63799923Y-109065129D01*
X67229938Y-109065129D01*
X67286233Y-109078644D01*
G37*
%TD.AperFunction*%
%TA.AperFunction,Conductor*%
G36*
X51039436Y-87211798D02*
G01*
X51273253Y-87445615D01*
X51278373Y-87451053D01*
X51315889Y-87493400D01*
X51348015Y-87515574D01*
X51362432Y-87525526D01*
X51368465Y-87529965D01*
X51412962Y-87564826D01*
X51421095Y-87568486D01*
X51440650Y-87579515D01*
X51447995Y-87584585D01*
X51500891Y-87604646D01*
X51507744Y-87607483D01*
X51559339Y-87630705D01*
X51566537Y-87632024D01*
X51568118Y-87632314D01*
X51589736Y-87638340D01*
X51598083Y-87641506D01*
X51654220Y-87648322D01*
X51661574Y-87649441D01*
X51717230Y-87659641D01*
X51770746Y-87656403D01*
X51773681Y-87656226D01*
X51781168Y-87656000D01*
X52836606Y-87656000D01*
X52902577Y-87675005D01*
X52986985Y-87728043D01*
X53158953Y-87788217D01*
X53340000Y-87808616D01*
X53521047Y-87788217D01*
X53693015Y-87728043D01*
X53847281Y-87631111D01*
X53865231Y-87613160D01*
X53920815Y-87581069D01*
X53985003Y-87581068D01*
X54040591Y-87613162D01*
X57070181Y-90642752D01*
X57097061Y-90682980D01*
X57106500Y-90730433D01*
X57106500Y-104098765D01*
X57106274Y-104106252D01*
X57102858Y-104162704D01*
X57113050Y-104218320D01*
X57114176Y-104225720D01*
X57120992Y-104281845D01*
X57124160Y-104290198D01*
X57130184Y-104311806D01*
X57131795Y-104320596D01*
X57154994Y-104372143D01*
X57157859Y-104379059D01*
X57177914Y-104431937D01*
X57182984Y-104439282D01*
X57194011Y-104458834D01*
X57201236Y-104474888D01*
X57211066Y-104542211D01*
X57183894Y-104604587D01*
X57127899Y-104643237D01*
X57059941Y-104646523D01*
X57000479Y-104613458D01*
X49301040Y-96914019D01*
X49268324Y-96856012D01*
X49270336Y-96789446D01*
X49306494Y-96733522D01*
X49321406Y-96720313D01*
X49353551Y-96673740D01*
X49357945Y-96667768D01*
X49392832Y-96623240D01*
X49396495Y-96615098D01*
X49407520Y-96595552D01*
X49412591Y-96588207D01*
X49432657Y-96535295D01*
X49435496Y-96528442D01*
X49458711Y-96476863D01*
X49460321Y-96468076D01*
X49466345Y-96446468D01*
X49469512Y-96438119D01*
X49476328Y-96381980D01*
X49477453Y-96374594D01*
X49487647Y-96318972D01*
X49484232Y-96262521D01*
X49484006Y-96255034D01*
X49484006Y-92191321D01*
X49501203Y-92128320D01*
X49548025Y-92082793D01*
X49611484Y-92067370D01*
X49673977Y-92086326D01*
X49811985Y-92173043D01*
X49983953Y-92233217D01*
X50165000Y-92253616D01*
X50346047Y-92233217D01*
X50518015Y-92173043D01*
X50672281Y-92076111D01*
X50801111Y-91947281D01*
X50898043Y-91793015D01*
X50958217Y-91621047D01*
X50978616Y-91440000D01*
X50958217Y-91258953D01*
X50898043Y-91086985D01*
X50827505Y-90974725D01*
X50808500Y-90908754D01*
X50808500Y-87318734D01*
X50817939Y-87271281D01*
X50844819Y-87231053D01*
X50864074Y-87211798D01*
X50919661Y-87179704D01*
X50983849Y-87179704D01*
X51039436Y-87211798D01*
G37*
%TD.AperFunction*%
%TA.AperFunction,Conductor*%
G36*
X116385000Y-42002113D02*
G01*
X116430387Y-42047500D01*
X116447000Y-42109500D01*
X116447000Y-125530500D01*
X116430387Y-125592500D01*
X116385000Y-125637887D01*
X116323000Y-125654500D01*
X18297000Y-125654500D01*
X18235000Y-125637887D01*
X18189613Y-125592500D01*
X18173000Y-125530500D01*
X18173000Y-121947651D01*
X20186392Y-121947651D01*
X20204984Y-122172014D01*
X20204984Y-122172017D01*
X20204985Y-122172019D01*
X20253251Y-122362618D01*
X20260254Y-122390269D01*
X20350687Y-122596439D01*
X20350689Y-122596442D01*
X20473827Y-122784919D01*
X20626309Y-122950557D01*
X20803973Y-123088840D01*
X21001975Y-123195993D01*
X21214914Y-123269095D01*
X21436980Y-123306151D01*
X21662118Y-123306151D01*
X21884184Y-123269095D01*
X22097123Y-123195993D01*
X22295125Y-123088840D01*
X22472789Y-122950557D01*
X22625271Y-122784919D01*
X22715741Y-122646444D01*
X22760530Y-122605213D01*
X22819547Y-122590267D01*
X22878565Y-122605212D01*
X22923356Y-122646445D01*
X23013824Y-122784916D01*
X23013826Y-122784918D01*
X23013827Y-122784919D01*
X23166309Y-122950557D01*
X23343973Y-123088840D01*
X23541975Y-123195993D01*
X23754914Y-123269095D01*
X23976980Y-123306151D01*
X24202118Y-123306151D01*
X24424184Y-123269095D01*
X24637123Y-123195993D01*
X24835125Y-123088840D01*
X25012789Y-122950557D01*
X25165271Y-122784919D01*
X25255741Y-122646444D01*
X25300530Y-122605213D01*
X25359547Y-122590267D01*
X25418565Y-122605212D01*
X25463356Y-122646445D01*
X25553824Y-122784916D01*
X25553826Y-122784918D01*
X25553827Y-122784919D01*
X25706309Y-122950557D01*
X25883973Y-123088840D01*
X26081975Y-123195993D01*
X26294914Y-123269095D01*
X26516980Y-123306151D01*
X26742118Y-123306151D01*
X26964184Y-123269095D01*
X27177123Y-123195993D01*
X27375125Y-123088840D01*
X27552789Y-122950557D01*
X27604035Y-122894890D01*
X27622457Y-122874879D01*
X27675080Y-122841025D01*
X27737535Y-122837177D01*
X27793916Y-122864315D01*
X27829868Y-122915528D01*
X27876196Y-123039740D01*
X27962360Y-123154839D01*
X28077459Y-123241003D01*
X28212173Y-123291248D01*
X28271725Y-123297651D01*
X28919549Y-123297651D01*
X28919549Y-122197651D01*
X29419549Y-122197651D01*
X29419549Y-123297651D01*
X30067373Y-123297651D01*
X30126924Y-123291248D01*
X30261638Y-123241003D01*
X30376737Y-123154839D01*
X30462901Y-123039740D01*
X30513146Y-122905026D01*
X30519549Y-122845475D01*
X30519549Y-122197651D01*
X29419549Y-122197651D01*
X28919549Y-122197651D01*
X28919549Y-121821651D01*
X28936162Y-121759651D01*
X28981549Y-121714264D01*
X29043549Y-121697651D01*
X30519549Y-121697651D01*
X30519549Y-121049827D01*
X30513146Y-120990275D01*
X30462901Y-120855561D01*
X30376737Y-120740462D01*
X30261638Y-120654298D01*
X30141737Y-120609578D01*
X30092202Y-120575563D01*
X30064475Y-120522252D01*
X30065068Y-120462165D01*
X30093840Y-120409414D01*
X30245271Y-120244919D01*
X30368409Y-120056442D01*
X30458845Y-119850267D01*
X30514113Y-119632019D01*
X30532705Y-119407651D01*
X30514113Y-119183283D01*
X30458845Y-118965035D01*
X30368409Y-118758860D01*
X30245271Y-118570383D01*
X30092789Y-118404745D01*
X29915125Y-118266462D01*
X29717123Y-118159309D01*
X29717122Y-118159308D01*
X29717121Y-118159308D01*
X29504185Y-118086207D01*
X29282118Y-118049151D01*
X29056980Y-118049151D01*
X28834912Y-118086207D01*
X28621976Y-118159308D01*
X28423973Y-118266462D01*
X28246309Y-118404745D01*
X28093828Y-118570381D01*
X28003358Y-118708856D01*
X27958566Y-118750089D01*
X27899549Y-118765034D01*
X27840532Y-118750089D01*
X27795740Y-118708856D01*
X27775592Y-118678018D01*
X27705271Y-118570383D01*
X27552789Y-118404745D01*
X27375125Y-118266462D01*
X27177123Y-118159309D01*
X27177122Y-118159308D01*
X27177121Y-118159308D01*
X26964185Y-118086207D01*
X26742118Y-118049151D01*
X26516980Y-118049151D01*
X26294912Y-118086207D01*
X26081976Y-118159308D01*
X25883973Y-118266462D01*
X25706309Y-118404745D01*
X25553828Y-118570381D01*
X25463358Y-118708856D01*
X25418566Y-118750089D01*
X25359549Y-118765034D01*
X25300532Y-118750089D01*
X25255740Y-118708856D01*
X25235592Y-118678018D01*
X25165271Y-118570383D01*
X25012789Y-118404745D01*
X24835125Y-118266462D01*
X24637123Y-118159309D01*
X24637122Y-118159308D01*
X24637121Y-118159308D01*
X24424185Y-118086207D01*
X24202118Y-118049151D01*
X23976980Y-118049151D01*
X23754912Y-118086207D01*
X23541976Y-118159308D01*
X23343973Y-118266462D01*
X23166309Y-118404745D01*
X23013828Y-118570381D01*
X22923358Y-118708856D01*
X22878566Y-118750089D01*
X22819549Y-118765034D01*
X22760532Y-118750089D01*
X22715740Y-118708856D01*
X22695592Y-118678018D01*
X22625271Y-118570383D01*
X22472789Y-118404745D01*
X22295125Y-118266462D01*
X22097123Y-118159309D01*
X22097122Y-118159308D01*
X22097121Y-118159308D01*
X21884185Y-118086207D01*
X21662118Y-118049151D01*
X21436980Y-118049151D01*
X21214912Y-118086207D01*
X21001976Y-118159308D01*
X20803973Y-118266462D01*
X20626309Y-118404745D01*
X20473828Y-118570381D01*
X20350687Y-118758862D01*
X20260254Y-118965032D01*
X20204984Y-119183287D01*
X20186392Y-119407650D01*
X20204984Y-119632014D01*
X20204984Y-119632017D01*
X20204985Y-119632019D01*
X20258951Y-119845127D01*
X20260254Y-119850269D01*
X20350687Y-120056439D01*
X20350689Y-120056442D01*
X20473827Y-120244919D01*
X20626309Y-120410557D01*
X20803973Y-120548840D01*
X20803975Y-120548841D01*
X20840480Y-120568597D01*
X20887985Y-120614178D01*
X20905462Y-120677651D01*
X20887985Y-120741124D01*
X20840480Y-120786705D01*
X20803975Y-120806460D01*
X20626309Y-120944745D01*
X20473828Y-121110381D01*
X20350687Y-121298862D01*
X20260254Y-121505032D01*
X20204984Y-121723287D01*
X20186392Y-121947651D01*
X18173000Y-121947651D01*
X18173000Y-115570000D01*
X40461383Y-115570000D01*
X40481782Y-115751044D01*
X40481782Y-115751046D01*
X40481783Y-115751047D01*
X40541957Y-115923015D01*
X40638889Y-116077281D01*
X40767719Y-116206111D01*
X40921985Y-116303043D01*
X41093953Y-116363217D01*
X41185981Y-116373586D01*
X41274999Y-116383616D01*
X41274999Y-116383615D01*
X41275000Y-116383616D01*
X41456047Y-116363217D01*
X41628015Y-116303043D01*
X41782281Y-116206111D01*
X41783392Y-116205000D01*
X44906383Y-116205000D01*
X44926782Y-116386044D01*
X44926782Y-116386046D01*
X44926783Y-116386047D01*
X44986957Y-116558015D01*
X45083889Y-116712281D01*
X45212719Y-116841111D01*
X45366985Y-116938043D01*
X45538953Y-116998217D01*
X45540315Y-116998370D01*
X45580231Y-117009869D01*
X45614113Y-117033909D01*
X49336089Y-120755884D01*
X49360127Y-120789760D01*
X49371628Y-120829675D01*
X49371782Y-120831044D01*
X49371782Y-120831046D01*
X49371783Y-120831047D01*
X49431957Y-121003015D01*
X49528889Y-121157281D01*
X49657719Y-121286111D01*
X49811985Y-121383043D01*
X49983953Y-121443217D01*
X50165000Y-121463616D01*
X50346047Y-121443217D01*
X50518015Y-121383043D01*
X50672281Y-121286111D01*
X50801111Y-121157281D01*
X50898043Y-121003015D01*
X50958217Y-120831047D01*
X50978616Y-120650000D01*
X50958217Y-120468953D01*
X50898043Y-120296985D01*
X50801111Y-120142719D01*
X50672281Y-120013889D01*
X50518015Y-119916957D01*
X50346047Y-119856783D01*
X50346046Y-119856782D01*
X50346044Y-119856782D01*
X50344675Y-119856628D01*
X50304760Y-119845127D01*
X50270884Y-119821089D01*
X49829795Y-119380000D01*
X55151843Y-119380000D01*
X55170435Y-119604363D01*
X55170435Y-119604366D01*
X55170436Y-119604368D01*
X55225317Y-119821089D01*
X55225705Y-119822618D01*
X55316138Y-120028788D01*
X55439281Y-120217273D01*
X55584489Y-120375009D01*
X55613263Y-120427761D01*
X55613856Y-120487848D01*
X55586129Y-120541158D01*
X55536595Y-120575173D01*
X55418795Y-120619111D01*
X55301738Y-120706738D01*
X55214110Y-120823796D01*
X55163011Y-120960794D01*
X55159842Y-120990275D01*
X55156689Y-121019612D01*
X55156500Y-121021366D01*
X55156500Y-122818634D01*
X55163011Y-122879205D01*
X55214110Y-123016203D01*
X55301738Y-123133261D01*
X55418796Y-123220889D01*
X55555794Y-123271988D01*
X55555797Y-123271988D01*
X55555799Y-123271989D01*
X55616362Y-123278500D01*
X57413634Y-123278500D01*
X57413638Y-123278500D01*
X57474201Y-123271989D01*
X57474203Y-123271988D01*
X57474205Y-123271988D01*
X57557277Y-123241003D01*
X57611204Y-123220889D01*
X57728261Y-123133261D01*
X57815889Y-123016204D01*
X57861137Y-122894889D01*
X57897089Y-122843677D01*
X57953471Y-122816539D01*
X58015925Y-122820387D01*
X58068548Y-122854241D01*
X58105969Y-122894890D01*
X58131760Y-122922906D01*
X58309424Y-123061189D01*
X58507426Y-123168342D01*
X58720365Y-123241444D01*
X58942431Y-123278500D01*
X59167569Y-123278500D01*
X59389635Y-123241444D01*
X59602574Y-123168342D01*
X59800576Y-123061189D01*
X59978240Y-122922906D01*
X60130722Y-122757268D01*
X60221192Y-122618793D01*
X60265981Y-122577562D01*
X60324998Y-122562616D01*
X60384016Y-122577561D01*
X60428807Y-122618794D01*
X60519275Y-122757265D01*
X60519277Y-122757267D01*
X60519278Y-122757268D01*
X60671760Y-122922906D01*
X60849424Y-123061189D01*
X61047426Y-123168342D01*
X61260365Y-123241444D01*
X61482431Y-123278500D01*
X61707569Y-123278500D01*
X61929635Y-123241444D01*
X62142574Y-123168342D01*
X62340576Y-123061189D01*
X62518240Y-122922906D01*
X62670722Y-122757268D01*
X62793860Y-122568791D01*
X62884296Y-122362616D01*
X62939564Y-122144368D01*
X62958156Y-121920000D01*
X62939564Y-121695632D01*
X62884296Y-121477384D01*
X62805989Y-121298860D01*
X62793861Y-121271211D01*
X62793860Y-121271209D01*
X62670722Y-121082732D01*
X62518240Y-120917094D01*
X62354643Y-120789760D01*
X62340575Y-120778810D01*
X62297302Y-120755392D01*
X62251663Y-120712842D01*
X62232525Y-120653452D01*
X62244734Y-120592261D01*
X62285198Y-120544763D01*
X62466078Y-120418109D01*
X62633106Y-120251081D01*
X62768600Y-120057576D01*
X62868430Y-119843492D01*
X62925636Y-119630000D01*
X61469000Y-119630000D01*
X61407000Y-119613387D01*
X61361613Y-119568000D01*
X61345000Y-119506000D01*
X61345000Y-118049364D01*
X61845000Y-118049364D01*
X61845000Y-119130000D01*
X62925636Y-119130000D01*
X62925635Y-119129999D01*
X62868430Y-118916507D01*
X62768599Y-118702421D01*
X62633109Y-118508921D01*
X62466081Y-118341893D01*
X62272576Y-118206399D01*
X62058492Y-118106569D01*
X61845000Y-118049364D01*
X61345000Y-118049364D01*
X61344999Y-118049364D01*
X61131507Y-118106569D01*
X60917421Y-118206400D01*
X60723921Y-118341890D01*
X60556893Y-118508918D01*
X60430132Y-118689952D01*
X60384928Y-118729274D01*
X60326564Y-118742812D01*
X60268665Y-118727405D01*
X60224748Y-118686649D01*
X60130723Y-118542732D01*
X60054480Y-118459912D01*
X59978240Y-118377094D01*
X59800576Y-118238811D01*
X59602574Y-118131658D01*
X59602573Y-118131657D01*
X59602572Y-118131657D01*
X59389636Y-118058556D01*
X59167569Y-118021500D01*
X58942431Y-118021500D01*
X58720363Y-118058556D01*
X58507427Y-118131657D01*
X58309424Y-118238811D01*
X58131760Y-118377094D01*
X57979279Y-118542730D01*
X57888809Y-118681205D01*
X57844017Y-118722438D01*
X57785000Y-118737383D01*
X57725983Y-118722438D01*
X57681191Y-118681205D01*
X57608787Y-118570383D01*
X57590722Y-118542732D01*
X57438240Y-118377094D01*
X57260576Y-118238811D01*
X57062574Y-118131658D01*
X57062573Y-118131657D01*
X57062572Y-118131657D01*
X56849636Y-118058556D01*
X56627569Y-118021500D01*
X56402431Y-118021500D01*
X56180363Y-118058556D01*
X55967427Y-118131657D01*
X55769424Y-118238811D01*
X55591760Y-118377094D01*
X55439279Y-118542730D01*
X55316138Y-118731211D01*
X55225705Y-118937381D01*
X55170435Y-119155636D01*
X55151843Y-119380000D01*
X49829795Y-119380000D01*
X46548909Y-116099113D01*
X46524869Y-116065231D01*
X46513370Y-116025315D01*
X46513217Y-116023953D01*
X46453043Y-115851985D01*
X46356111Y-115697719D01*
X46227281Y-115568889D01*
X46073015Y-115471957D01*
X45901047Y-115411783D01*
X45901046Y-115411782D01*
X45901044Y-115411782D01*
X45720000Y-115391383D01*
X45538955Y-115411782D01*
X45366984Y-115471957D01*
X45212717Y-115568890D01*
X45083890Y-115697717D01*
X44986957Y-115851984D01*
X44926782Y-116023955D01*
X44906383Y-116205000D01*
X41783392Y-116205000D01*
X41911111Y-116077281D01*
X42008043Y-115923015D01*
X42068217Y-115751047D01*
X42068370Y-115749685D01*
X42079868Y-115709767D01*
X42103906Y-115675887D01*
X42360624Y-115419169D01*
X42366043Y-115414067D01*
X42408400Y-115376544D01*
X42440531Y-115329991D01*
X42444952Y-115323984D01*
X42479827Y-115279471D01*
X42483489Y-115271333D01*
X42494516Y-115251780D01*
X42499585Y-115244438D01*
X42519632Y-115191572D01*
X42522488Y-115184678D01*
X42545706Y-115133094D01*
X42547314Y-115124315D01*
X42553346Y-115102680D01*
X42556506Y-115094349D01*
X42563320Y-115038222D01*
X42564441Y-115030859D01*
X42574641Y-114975203D01*
X42571226Y-114918746D01*
X42571000Y-114911259D01*
X42571000Y-113533394D01*
X42590006Y-113467422D01*
X42603016Y-113446717D01*
X42643043Y-113383015D01*
X42703217Y-113211047D01*
X42723616Y-113030000D01*
X42703217Y-112848953D01*
X42643043Y-112676985D01*
X42589871Y-112592362D01*
X47752516Y-112592362D01*
X47762708Y-112647978D01*
X47763834Y-112655378D01*
X47770650Y-112711503D01*
X47773818Y-112719856D01*
X47779842Y-112741464D01*
X47781453Y-112750254D01*
X47804652Y-112801801D01*
X47807517Y-112808717D01*
X47827572Y-112861595D01*
X47832642Y-112868940D01*
X47843669Y-112888490D01*
X47847331Y-112896628D01*
X47882200Y-112941136D01*
X47886638Y-112947168D01*
X47918756Y-112993700D01*
X47918757Y-112993701D01*
X47918758Y-112993702D01*
X47961096Y-113031210D01*
X47966533Y-113036329D01*
X48066089Y-113135885D01*
X48090127Y-113169761D01*
X48101628Y-113209676D01*
X48101782Y-113211043D01*
X48101782Y-113211045D01*
X48101783Y-113211047D01*
X48161957Y-113383015D01*
X48258889Y-113537281D01*
X48387719Y-113666111D01*
X48541985Y-113763043D01*
X48713953Y-113823217D01*
X48895000Y-113843616D01*
X49076047Y-113823217D01*
X49248015Y-113763043D01*
X49402281Y-113666111D01*
X49531111Y-113537281D01*
X49628043Y-113383015D01*
X49688217Y-113211047D01*
X49708616Y-113030000D01*
X49688217Y-112848953D01*
X49628043Y-112676985D01*
X49531111Y-112522719D01*
X49402281Y-112393889D01*
X49248015Y-112296957D01*
X49161203Y-112266580D01*
X49117817Y-112240438D01*
X49088504Y-112199126D01*
X49078158Y-112149539D01*
X49078158Y-112011409D01*
X49088504Y-111961822D01*
X49117817Y-111920510D01*
X49161200Y-111894369D01*
X49265015Y-111858043D01*
X49419281Y-111761111D01*
X49548111Y-111632281D01*
X49645043Y-111478015D01*
X49705217Y-111306047D01*
X49725616Y-111125000D01*
X49724996Y-111119501D01*
X49712140Y-111005398D01*
X49705217Y-110943953D01*
X49645043Y-110771985D01*
X49548111Y-110617719D01*
X49419281Y-110488889D01*
X49265015Y-110391957D01*
X49093047Y-110331783D01*
X49093046Y-110331782D01*
X49093044Y-110331782D01*
X48911999Y-110311383D01*
X48730955Y-110331782D01*
X48558984Y-110391957D01*
X48404717Y-110488890D01*
X48275890Y-110617717D01*
X48262572Y-110638912D01*
X48178957Y-110771985D01*
X48138437Y-110887785D01*
X48118782Y-110943956D01*
X48118629Y-110945316D01*
X48107129Y-110985234D01*
X48083090Y-111019113D01*
X47966523Y-111135679D01*
X47961071Y-111140811D01*
X47918755Y-111178300D01*
X47886632Y-111224837D01*
X47882198Y-111230865D01*
X47847332Y-111275371D01*
X47843667Y-111283514D01*
X47832646Y-111303054D01*
X47827572Y-111310404D01*
X47807521Y-111363273D01*
X47804656Y-111370188D01*
X47781452Y-111421747D01*
X47779841Y-111430536D01*
X47773819Y-111452139D01*
X47770651Y-111460493D01*
X47763834Y-111516621D01*
X47762708Y-111524019D01*
X47752516Y-111579636D01*
X47755932Y-111636090D01*
X47756158Y-111643577D01*
X47756158Y-112528423D01*
X47755932Y-112535910D01*
X47752516Y-112592362D01*
X42589871Y-112592362D01*
X42546111Y-112522719D01*
X42417281Y-112393889D01*
X42263015Y-112296957D01*
X42091047Y-112236783D01*
X42091046Y-112236782D01*
X42091044Y-112236782D01*
X41910000Y-112216383D01*
X41728955Y-112236782D01*
X41556984Y-112296957D01*
X41402717Y-112393890D01*
X41273890Y-112522717D01*
X41176957Y-112676984D01*
X41116782Y-112848955D01*
X41096383Y-113030000D01*
X41116782Y-113211044D01*
X41116782Y-113211046D01*
X41116783Y-113211047D01*
X41122732Y-113228047D01*
X41176957Y-113383015D01*
X41229994Y-113467422D01*
X41249000Y-113533394D01*
X41249000Y-114609842D01*
X41239561Y-114657295D01*
X41212680Y-114697524D01*
X41169112Y-114741091D01*
X41135233Y-114765129D01*
X41095316Y-114776629D01*
X41093956Y-114776782D01*
X41093953Y-114776782D01*
X41093953Y-114776783D01*
X40921985Y-114836957D01*
X40921983Y-114836957D01*
X40921983Y-114836958D01*
X40767717Y-114933890D01*
X40638890Y-115062717D01*
X40541957Y-115216984D01*
X40481782Y-115388955D01*
X40461383Y-115570000D01*
X18173000Y-115570000D01*
X18173000Y-83820000D01*
X39174383Y-83820000D01*
X39194782Y-84001044D01*
X39254957Y-84173015D01*
X39307994Y-84257422D01*
X39327000Y-84323394D01*
X39327000Y-84414265D01*
X39326774Y-84421752D01*
X39323358Y-84478204D01*
X39333550Y-84533820D01*
X39334676Y-84541220D01*
X39341492Y-84597345D01*
X39344660Y-84605698D01*
X39350684Y-84627306D01*
X39352295Y-84636096D01*
X39375494Y-84687643D01*
X39378359Y-84694559D01*
X39398414Y-84747437D01*
X39403484Y-84754782D01*
X39414511Y-84774332D01*
X39418173Y-84782470D01*
X39453042Y-84826978D01*
X39457480Y-84833010D01*
X39489600Y-84879544D01*
X39506053Y-84894120D01*
X39531929Y-84917044D01*
X39537382Y-84922178D01*
X40446089Y-85830885D01*
X40470127Y-85864761D01*
X40481628Y-85904676D01*
X40481782Y-85906043D01*
X40481782Y-85906045D01*
X40481783Y-85906047D01*
X40541957Y-86078015D01*
X40638889Y-86232281D01*
X40767719Y-86361111D01*
X40921985Y-86458043D01*
X41093953Y-86518217D01*
X41275000Y-86538616D01*
X41456047Y-86518217D01*
X41628015Y-86458043D01*
X41782281Y-86361111D01*
X41911111Y-86232281D01*
X42008043Y-86078015D01*
X42068217Y-85906047D01*
X42088616Y-85725000D01*
X42068217Y-85543953D01*
X42008043Y-85371985D01*
X41911111Y-85217719D01*
X41782281Y-85088889D01*
X41628015Y-84991957D01*
X41456047Y-84931783D01*
X41456045Y-84931782D01*
X41456043Y-84931782D01*
X41454676Y-84931628D01*
X41414761Y-84920127D01*
X41380885Y-84896089D01*
X40759746Y-84274950D01*
X40726536Y-84214862D01*
X40730386Y-84146314D01*
X40739844Y-84119286D01*
X40781217Y-84001047D01*
X40801616Y-83820000D01*
X40781217Y-83638953D01*
X40721043Y-83466985D01*
X40624111Y-83312719D01*
X40495281Y-83183889D01*
X40341015Y-83086957D01*
X40169047Y-83026783D01*
X40169046Y-83026782D01*
X40169044Y-83026782D01*
X39988000Y-83006383D01*
X39806955Y-83026782D01*
X39634984Y-83086957D01*
X39480717Y-83183890D01*
X39351890Y-83312717D01*
X39254957Y-83466984D01*
X39194782Y-83638955D01*
X39174383Y-83820000D01*
X18173000Y-83820000D01*
X18173000Y-80010000D01*
X38556383Y-80010000D01*
X38576782Y-80191044D01*
X38576782Y-80191046D01*
X38576783Y-80191047D01*
X38636957Y-80363015D01*
X38733889Y-80517281D01*
X38862719Y-80646111D01*
X39016985Y-80743043D01*
X39188953Y-80803217D01*
X39370000Y-80823616D01*
X39551047Y-80803217D01*
X39723015Y-80743043D01*
X39807422Y-80690005D01*
X39873394Y-80671000D01*
X46664842Y-80671000D01*
X46712295Y-80680439D01*
X46752523Y-80707319D01*
X47278043Y-81232839D01*
X47307403Y-81279564D01*
X47313583Y-81334400D01*
X47295359Y-81386488D01*
X47270218Y-81411630D01*
X47271132Y-81412544D01*
X47132424Y-81551251D01*
X47035492Y-81705517D01*
X46975314Y-81877494D01*
X46975161Y-81878858D01*
X46963660Y-81918771D01*
X46939623Y-81952647D01*
X46539373Y-82352897D01*
X46533920Y-82358030D01*
X46491598Y-82395524D01*
X46459474Y-82442063D01*
X46455040Y-82448091D01*
X46420171Y-82492600D01*
X46420097Y-82492766D01*
X46419445Y-82493526D01*
X46410892Y-82504446D01*
X46410419Y-82504075D01*
X46374795Y-82545710D01*
X46308092Y-82565862D01*
X46241053Y-82546861D01*
X46239221Y-82545710D01*
X46090015Y-82451957D01*
X45918047Y-82391783D01*
X45918046Y-82391782D01*
X45918044Y-82391782D01*
X45737000Y-82371383D01*
X45555955Y-82391782D01*
X45383984Y-82451957D01*
X45325552Y-82488673D01*
X45301041Y-82504075D01*
X45299578Y-82504994D01*
X45233606Y-82524000D01*
X44597810Y-82524000D01*
X44590323Y-82523774D01*
X44523955Y-82519759D01*
X44503970Y-82520448D01*
X44433000Y-82512452D01*
X44251955Y-82532851D01*
X44079984Y-82593026D01*
X43925717Y-82689959D01*
X43796890Y-82818786D01*
X43699957Y-82973053D01*
X43639782Y-83145024D01*
X43619383Y-83326068D01*
X43639782Y-83507113D01*
X43639782Y-83507115D01*
X43639783Y-83507116D01*
X43699957Y-83679084D01*
X43796889Y-83833350D01*
X43925719Y-83962180D01*
X44079985Y-84059112D01*
X44251953Y-84119286D01*
X44433000Y-84139685D01*
X44614047Y-84119286D01*
X44786015Y-84059112D01*
X44940281Y-83962180D01*
X45020141Y-83882319D01*
X45060370Y-83855439D01*
X45107823Y-83846000D01*
X45233606Y-83846000D01*
X45299579Y-83865007D01*
X45327401Y-83882489D01*
X45366422Y-83921511D01*
X45384648Y-83973599D01*
X45378469Y-84028437D01*
X45349109Y-84075163D01*
X44327112Y-85097159D01*
X44293233Y-85121198D01*
X44253316Y-85132698D01*
X44251956Y-85132851D01*
X44251953Y-85132851D01*
X44251953Y-85132852D01*
X44079985Y-85193026D01*
X44079983Y-85193026D01*
X44079983Y-85193027D01*
X43925717Y-85289959D01*
X43796890Y-85418786D01*
X43699957Y-85573053D01*
X43639782Y-85745024D01*
X43619383Y-85926069D01*
X43639782Y-86107113D01*
X43639782Y-86107115D01*
X43639783Y-86107116D01*
X43699957Y-86279084D01*
X43796889Y-86433350D01*
X43925719Y-86562180D01*
X44079985Y-86659112D01*
X44251953Y-86719286D01*
X44433000Y-86739685D01*
X44614047Y-86719286D01*
X44786015Y-86659112D01*
X44940281Y-86562180D01*
X45069111Y-86433350D01*
X45166043Y-86279084D01*
X45226217Y-86107116D01*
X45226370Y-86105754D01*
X45237868Y-86065837D01*
X45261906Y-86031957D01*
X46097450Y-85196413D01*
X46155454Y-85163699D01*
X46222020Y-85165711D01*
X46277945Y-85201870D01*
X46307098Y-85261746D01*
X46318550Y-85324242D01*
X46319676Y-85331642D01*
X46326492Y-85387767D01*
X46329660Y-85396120D01*
X46335684Y-85417728D01*
X46337295Y-85426518D01*
X46360494Y-85478065D01*
X46363359Y-85484981D01*
X46383414Y-85537859D01*
X46388484Y-85545204D01*
X46399511Y-85564754D01*
X46403173Y-85572892D01*
X46438042Y-85617400D01*
X46442481Y-85623433D01*
X46474601Y-85669968D01*
X46516930Y-85707467D01*
X46522385Y-85712602D01*
X47451302Y-86641519D01*
X47465670Y-86658759D01*
X47470745Y-86666111D01*
X47512142Y-86702786D01*
X47513083Y-86703619D01*
X47518535Y-86708752D01*
X47530021Y-86720238D01*
X47542812Y-86730259D01*
X47548562Y-86735052D01*
X47590892Y-86772552D01*
X47590893Y-86772552D01*
X47590896Y-86772555D01*
X47598802Y-86776704D01*
X47617646Y-86788887D01*
X47624674Y-86794393D01*
X47648812Y-86805256D01*
X47676228Y-86817596D01*
X47682949Y-86820868D01*
X47733030Y-86847152D01*
X47733032Y-86847153D01*
X47741692Y-86849287D01*
X47762917Y-86856611D01*
X47771051Y-86860272D01*
X47823643Y-86869909D01*
X47826673Y-86870465D01*
X47833992Y-86872036D01*
X47858078Y-86877973D01*
X47888884Y-86885567D01*
X47888885Y-86885567D01*
X47897804Y-86885567D01*
X47920156Y-86887598D01*
X47921878Y-86887913D01*
X47928942Y-86889208D01*
X47985398Y-86885793D01*
X47992886Y-86885567D01*
X48038006Y-86885567D01*
X48100006Y-86902180D01*
X48145393Y-86947567D01*
X48162006Y-87009567D01*
X48162006Y-95953612D01*
X48152567Y-96001065D01*
X48125687Y-96041293D01*
X47781329Y-96385650D01*
X47781325Y-96385654D01*
X47781321Y-96385656D01*
X47752850Y-96414127D01*
X47735889Y-96442184D01*
X47727390Y-96454497D01*
X47707172Y-96480305D01*
X47693721Y-96510191D01*
X47686767Y-96523442D01*
X47669805Y-96551500D01*
X47660050Y-96582804D01*
X47654744Y-96596795D01*
X47641295Y-96626680D01*
X47635385Y-96658923D01*
X47631803Y-96673453D01*
X47622051Y-96704748D01*
X47620072Y-96737467D01*
X47618267Y-96752327D01*
X47612358Y-96784569D01*
X47614338Y-96817287D01*
X47614338Y-96832261D01*
X47612358Y-96864980D01*
X47618267Y-96897223D01*
X47620072Y-96912083D01*
X47622051Y-96944796D01*
X47622052Y-96944799D01*
X47631806Y-96976104D01*
X47635386Y-96990629D01*
X47641295Y-97022870D01*
X47654742Y-97052749D01*
X47660051Y-97066746D01*
X47669806Y-97098050D01*
X47686767Y-97126107D01*
X47693724Y-97139363D01*
X47707174Y-97169246D01*
X47727388Y-97195048D01*
X47735889Y-97207364D01*
X47752847Y-97235417D01*
X47752849Y-97235419D01*
X47752850Y-97235420D01*
X47776476Y-97259046D01*
X47776485Y-97259056D01*
X58287131Y-107769702D01*
X58314011Y-107809930D01*
X58323450Y-107857383D01*
X58323450Y-110582617D01*
X58314011Y-110630070D01*
X58287131Y-110670298D01*
X53506881Y-115450546D01*
X53501429Y-115455678D01*
X53459099Y-115493180D01*
X53426974Y-115539720D01*
X53422540Y-115545748D01*
X53387674Y-115590254D01*
X53384009Y-115598397D01*
X53372988Y-115617937D01*
X53367914Y-115625287D01*
X53347863Y-115678156D01*
X53344998Y-115685071D01*
X53321794Y-115736630D01*
X53320183Y-115745419D01*
X53314161Y-115767022D01*
X53310993Y-115775376D01*
X53304176Y-115831504D01*
X53303050Y-115838902D01*
X53292858Y-115894519D01*
X53296274Y-115950973D01*
X53296500Y-115958460D01*
X53296500Y-116451540D01*
X53296274Y-116459027D01*
X53292858Y-116515479D01*
X53303050Y-116571095D01*
X53304176Y-116578495D01*
X53310992Y-116634620D01*
X53314160Y-116642973D01*
X53320184Y-116664581D01*
X53321795Y-116673371D01*
X53344994Y-116724918D01*
X53347859Y-116731834D01*
X53367914Y-116784712D01*
X53372984Y-116792057D01*
X53384011Y-116811607D01*
X53387673Y-116819745D01*
X53422542Y-116864253D01*
X53426980Y-116870285D01*
X53459098Y-116916817D01*
X53459099Y-116916818D01*
X53459100Y-116916819D01*
X53501438Y-116954327D01*
X53506875Y-116959446D01*
X53855538Y-117308108D01*
X53860672Y-117313561D01*
X53898181Y-117355900D01*
X53944727Y-117388028D01*
X53950742Y-117392454D01*
X53977253Y-117413223D01*
X53995252Y-117427325D01*
X53995253Y-117427325D01*
X53995254Y-117427326D01*
X54003390Y-117430987D01*
X54022945Y-117442017D01*
X54030285Y-117447084D01*
X54030286Y-117447084D01*
X54030287Y-117447085D01*
X54083183Y-117467146D01*
X54090036Y-117469983D01*
X54141631Y-117493205D01*
X54148829Y-117494524D01*
X54150410Y-117494814D01*
X54172028Y-117500840D01*
X54180375Y-117504006D01*
X54236512Y-117510822D01*
X54243898Y-117511947D01*
X54299519Y-117522141D01*
X54299521Y-117522140D01*
X54299522Y-117522141D01*
X54355978Y-117518726D01*
X54363466Y-117518500D01*
X62269567Y-117518500D01*
X62317020Y-117527939D01*
X62357248Y-117554819D01*
X64015553Y-119213124D01*
X64020673Y-119218562D01*
X64058181Y-119260900D01*
X64104728Y-119293028D01*
X64110741Y-119297453D01*
X64155254Y-119332326D01*
X64163390Y-119335987D01*
X64182945Y-119347017D01*
X64190285Y-119352084D01*
X64190286Y-119352084D01*
X64190287Y-119352085D01*
X64243183Y-119372146D01*
X64250036Y-119374983D01*
X64301631Y-119398205D01*
X64308829Y-119399524D01*
X64310410Y-119399814D01*
X64332028Y-119405840D01*
X64340375Y-119409006D01*
X64396512Y-119415822D01*
X64403898Y-119416947D01*
X64459519Y-119427141D01*
X64459521Y-119427140D01*
X64459522Y-119427141D01*
X64515978Y-119423726D01*
X64523466Y-119423500D01*
X68926585Y-119423500D01*
X68984526Y-119437870D01*
X69029039Y-119477648D01*
X69049805Y-119533617D01*
X69056782Y-119595544D01*
X69056782Y-119595546D01*
X69056783Y-119595547D01*
X69116957Y-119767515D01*
X69213889Y-119921781D01*
X69342719Y-120050611D01*
X69496985Y-120147543D01*
X69668953Y-120207717D01*
X69789651Y-120221316D01*
X69849999Y-120228116D01*
X69849999Y-120228115D01*
X69850000Y-120228116D01*
X70031047Y-120207717D01*
X70203015Y-120147543D01*
X70287422Y-120094505D01*
X70353394Y-120075500D01*
X95558718Y-120075500D01*
X95566205Y-120075726D01*
X95568659Y-120075874D01*
X95622656Y-120079141D01*
X95678283Y-120068946D01*
X95685664Y-120067822D01*
X95741803Y-120061006D01*
X95750152Y-120057839D01*
X95771760Y-120051815D01*
X95780547Y-120050205D01*
X95832126Y-120026990D01*
X95838979Y-120024151D01*
X95891891Y-120004085D01*
X95899236Y-119999014D01*
X95918782Y-119987989D01*
X95926924Y-119984326D01*
X95971452Y-119949439D01*
X95977434Y-119945038D01*
X96023997Y-119912900D01*
X96061497Y-119870569D01*
X96066615Y-119865132D01*
X101938131Y-113993615D01*
X101943549Y-113988514D01*
X101985900Y-113950997D01*
X102018035Y-113904438D01*
X102022452Y-113898437D01*
X102024077Y-113896363D01*
X102057327Y-113853924D01*
X102060989Y-113845786D01*
X102072016Y-113826233D01*
X102077085Y-113818891D01*
X102097132Y-113766025D01*
X102099988Y-113759131D01*
X102123206Y-113707547D01*
X102124814Y-113698768D01*
X102130846Y-113677133D01*
X102134006Y-113668802D01*
X102140820Y-113612675D01*
X102141941Y-113605312D01*
X102152141Y-113549656D01*
X102148726Y-113493199D01*
X102148500Y-113485712D01*
X102148500Y-112574282D01*
X102148726Y-112566795D01*
X102150820Y-112532175D01*
X102152141Y-112510344D01*
X102141941Y-112454688D01*
X102140822Y-112447334D01*
X102134006Y-112391197D01*
X102130840Y-112382850D01*
X102124814Y-112361232D01*
X102123205Y-112352452D01*
X102100000Y-112300894D01*
X102097133Y-112293972D01*
X102077085Y-112241109D01*
X102072016Y-112233765D01*
X102060989Y-112214213D01*
X102057326Y-112206074D01*
X102022459Y-112161569D01*
X102018020Y-112155537D01*
X101985901Y-112109004D01*
X101985900Y-112109003D01*
X101943553Y-112071487D01*
X101938115Y-112066367D01*
X100599430Y-110727681D01*
X100569180Y-110678318D01*
X100564638Y-110620602D01*
X100586793Y-110567115D01*
X100630816Y-110529515D01*
X100687111Y-110516000D01*
X104271606Y-110516000D01*
X104337577Y-110535005D01*
X104421985Y-110588043D01*
X104593953Y-110648217D01*
X104775000Y-110668616D01*
X104956047Y-110648217D01*
X105128015Y-110588043D01*
X105282281Y-110491111D01*
X105411111Y-110362281D01*
X105508043Y-110208015D01*
X105568217Y-110036047D01*
X105588616Y-109855000D01*
X105568217Y-109673953D01*
X105508043Y-109501985D01*
X105411111Y-109347719D01*
X105282281Y-109218889D01*
X105128015Y-109121957D01*
X104956047Y-109061783D01*
X104956046Y-109061782D01*
X104956044Y-109061782D01*
X104775000Y-109041383D01*
X104593955Y-109061782D01*
X104421984Y-109121957D01*
X104337578Y-109174994D01*
X104271606Y-109194000D01*
X100012229Y-109194000D01*
X99946257Y-109174994D01*
X99861850Y-109121957D01*
X99755378Y-109084701D01*
X99689882Y-109061783D01*
X99689881Y-109061782D01*
X99689879Y-109061782D01*
X99508835Y-109041383D01*
X99327790Y-109061782D01*
X99155819Y-109121957D01*
X99001552Y-109218890D01*
X98872725Y-109347717D01*
X98775792Y-109501984D01*
X98715617Y-109673955D01*
X98695218Y-109854999D01*
X98715617Y-110036044D01*
X98775792Y-110208015D01*
X98795593Y-110239528D01*
X98814550Y-110302023D01*
X98799127Y-110365481D01*
X98753600Y-110412303D01*
X98690599Y-110429500D01*
X93213394Y-110429500D01*
X93147422Y-110410494D01*
X93063015Y-110357457D01*
X92943923Y-110315785D01*
X92891047Y-110297283D01*
X92891046Y-110297282D01*
X92891044Y-110297282D01*
X92710000Y-110276883D01*
X92528955Y-110297282D01*
X92356984Y-110357457D01*
X92202717Y-110454390D01*
X92073890Y-110583217D01*
X91976957Y-110737484D01*
X91916782Y-110909455D01*
X91909805Y-110971383D01*
X91889039Y-111027352D01*
X91844526Y-111067130D01*
X91786585Y-111081500D01*
X79669009Y-111081500D01*
X79661522Y-111081274D01*
X79645439Y-111080301D01*
X79605071Y-111077859D01*
X79605070Y-111077859D01*
X79549446Y-111088052D01*
X79542044Y-111089179D01*
X79485922Y-111095994D01*
X79477572Y-111099161D01*
X79455969Y-111105183D01*
X79447182Y-111106793D01*
X79395628Y-111129996D01*
X79388712Y-111132861D01*
X79335833Y-111152916D01*
X79328481Y-111157991D01*
X79308946Y-111169009D01*
X79300800Y-111172675D01*
X79256290Y-111207545D01*
X79250262Y-111211981D01*
X79203730Y-111244100D01*
X79166222Y-111286437D01*
X79161089Y-111291889D01*
X78755298Y-111697681D01*
X78715070Y-111724561D01*
X78667617Y-111734000D01*
X69235382Y-111734000D01*
X69187929Y-111724561D01*
X69147701Y-111697681D01*
X68829701Y-111379681D01*
X68799451Y-111330318D01*
X68794909Y-111272602D01*
X68817064Y-111219115D01*
X68861087Y-111181515D01*
X68917382Y-111168000D01*
X76447040Y-111168000D01*
X76454527Y-111168226D01*
X76456981Y-111168374D01*
X76510978Y-111171641D01*
X76566605Y-111161446D01*
X76573986Y-111160322D01*
X76630125Y-111153506D01*
X76638474Y-111150339D01*
X76660082Y-111144315D01*
X76668869Y-111142705D01*
X76720448Y-111119490D01*
X76727301Y-111116651D01*
X76780213Y-111096585D01*
X76787558Y-111091514D01*
X76807104Y-111080489D01*
X76815246Y-111076826D01*
X76859774Y-111041939D01*
X76865756Y-111037538D01*
X76912319Y-111005400D01*
X76949819Y-110963069D01*
X76954937Y-110957632D01*
X83635632Y-104276937D01*
X83641070Y-104271819D01*
X83679197Y-104238042D01*
X83683400Y-104234319D01*
X83715538Y-104187756D01*
X83719939Y-104181774D01*
X83754826Y-104137246D01*
X83758489Y-104129104D01*
X83769514Y-104109558D01*
X83774585Y-104102213D01*
X83794651Y-104049301D01*
X83797490Y-104042448D01*
X83820705Y-103990869D01*
X83822315Y-103982082D01*
X83828339Y-103960474D01*
X83831506Y-103952125D01*
X83838322Y-103895986D01*
X83839447Y-103888600D01*
X83849641Y-103832978D01*
X83846226Y-103776527D01*
X83846000Y-103769040D01*
X83846000Y-103373394D01*
X83865006Y-103307422D01*
X83878724Y-103285590D01*
X83918043Y-103223015D01*
X83978217Y-103051047D01*
X83998616Y-102870000D01*
X83978217Y-102688953D01*
X83918043Y-102516985D01*
X83821111Y-102362719D01*
X83692281Y-102233889D01*
X83538015Y-102136957D01*
X83366047Y-102076783D01*
X83366046Y-102076782D01*
X83366044Y-102076782D01*
X83185000Y-102056383D01*
X83003955Y-102076782D01*
X82831984Y-102136957D01*
X82677717Y-102233890D01*
X82548890Y-102362717D01*
X82451957Y-102516984D01*
X82391782Y-102688955D01*
X82371383Y-102870000D01*
X82391782Y-103051044D01*
X82451957Y-103223015D01*
X82504994Y-103307422D01*
X82524000Y-103373394D01*
X82524000Y-103467617D01*
X82514561Y-103515070D01*
X82487681Y-103555298D01*
X77707681Y-108335298D01*
X77658318Y-108365548D01*
X77600602Y-108370090D01*
X77547115Y-108347935D01*
X77509515Y-108303912D01*
X77496000Y-108247617D01*
X77496000Y-97730889D01*
X80809287Y-97730889D01*
X80829686Y-97911934D01*
X80829686Y-97911936D01*
X80829687Y-97911937D01*
X80889861Y-98083905D01*
X80986793Y-98238171D01*
X81115623Y-98367001D01*
X81269889Y-98463933D01*
X81441857Y-98524107D01*
X81622904Y-98544506D01*
X81803951Y-98524107D01*
X81975919Y-98463933D01*
X82130185Y-98367001D01*
X82259015Y-98238171D01*
X82355947Y-98083905D01*
X82416121Y-97911937D01*
X82416274Y-97910575D01*
X82427772Y-97870658D01*
X82451810Y-97836778D01*
X94430631Y-85857956D01*
X94436050Y-85852854D01*
X94478400Y-85815338D01*
X94510535Y-85768780D01*
X94514956Y-85762772D01*
X94549826Y-85718265D01*
X94553489Y-85710123D01*
X94564514Y-85690577D01*
X94569585Y-85683232D01*
X94589651Y-85630320D01*
X94592490Y-85623467D01*
X94615705Y-85571888D01*
X94617315Y-85563101D01*
X94623339Y-85541493D01*
X94626506Y-85533144D01*
X94633322Y-85477005D01*
X94634447Y-85469619D01*
X94644641Y-85413999D01*
X94641226Y-85357540D01*
X94641000Y-85350053D01*
X94641000Y-73528394D01*
X94660006Y-73462422D01*
X94713043Y-73378015D01*
X94773217Y-73206047D01*
X94793616Y-73025000D01*
X94773217Y-72843953D01*
X94713043Y-72671985D01*
X94616111Y-72517719D01*
X94487281Y-72388889D01*
X94333015Y-72291957D01*
X94161047Y-72231783D01*
X94161046Y-72231782D01*
X94161044Y-72231782D01*
X93980000Y-72211383D01*
X93798955Y-72231782D01*
X93626984Y-72291957D01*
X93472717Y-72388890D01*
X93343890Y-72517717D01*
X93246957Y-72671984D01*
X93186782Y-72843955D01*
X93166383Y-73024999D01*
X93186782Y-73206044D01*
X93246957Y-73378015D01*
X93299994Y-73462422D01*
X93319000Y-73528394D01*
X93319000Y-85048637D01*
X93309561Y-85096090D01*
X93282681Y-85136318D01*
X81517016Y-96901980D01*
X81483137Y-96926019D01*
X81443220Y-96937519D01*
X81441860Y-96937672D01*
X81441857Y-96937672D01*
X81441857Y-96937673D01*
X81269889Y-96997847D01*
X81269887Y-96997847D01*
X81269887Y-96997848D01*
X81115621Y-97094780D01*
X80986794Y-97223607D01*
X80889861Y-97377874D01*
X80829686Y-97549845D01*
X80809287Y-97730889D01*
X77496000Y-97730889D01*
X77496000Y-89225158D01*
X77505439Y-89177705D01*
X77532319Y-89137477D01*
X79438743Y-87231053D01*
X85195888Y-81473906D01*
X85229768Y-81449868D01*
X85269685Y-81438370D01*
X85271047Y-81438217D01*
X85443015Y-81378043D01*
X85597281Y-81281111D01*
X85726111Y-81152281D01*
X85823043Y-80998015D01*
X85883217Y-80826047D01*
X85903616Y-80645000D01*
X85883217Y-80463953D01*
X85823043Y-80291985D01*
X85726111Y-80137719D01*
X85597281Y-80008889D01*
X85443015Y-79911957D01*
X85271047Y-79851783D01*
X85271046Y-79851782D01*
X85271044Y-79851782D01*
X85090000Y-79831383D01*
X84908955Y-79851782D01*
X84736984Y-79911957D01*
X84582717Y-80008890D01*
X84453890Y-80137717D01*
X84356958Y-80291983D01*
X84296782Y-80463956D01*
X84296629Y-80465316D01*
X84285129Y-80505233D01*
X84261090Y-80539112D01*
X76384381Y-88415821D01*
X76378929Y-88420953D01*
X76336599Y-88458455D01*
X76304474Y-88504995D01*
X76300040Y-88511023D01*
X76265174Y-88555529D01*
X76261509Y-88563672D01*
X76250488Y-88583212D01*
X76245414Y-88590562D01*
X76225363Y-88643431D01*
X76222498Y-88650346D01*
X76199294Y-88701905D01*
X76197683Y-88710694D01*
X76191661Y-88732297D01*
X76188493Y-88740651D01*
X76181676Y-88796779D01*
X76180550Y-88804177D01*
X76170358Y-88859794D01*
X76173774Y-88916248D01*
X76174000Y-88923735D01*
X76174000Y-108716606D01*
X76154994Y-108782578D01*
X76101957Y-108866984D01*
X76041782Y-109038955D01*
X76021383Y-109220000D01*
X76041782Y-109401044D01*
X76101957Y-109573015D01*
X76154118Y-109656028D01*
X76173075Y-109718522D01*
X76157652Y-109781981D01*
X76112125Y-109828803D01*
X76049124Y-109846000D01*
X70758952Y-109846000D01*
X70700004Y-109831092D01*
X70655230Y-109789954D01*
X70635395Y-109732477D01*
X70645269Y-109672480D01*
X70682477Y-109624391D01*
X70695878Y-109613891D01*
X70724365Y-109591573D01*
X70730352Y-109587167D01*
X70776915Y-109555029D01*
X70814415Y-109512698D01*
X70819533Y-109507261D01*
X73765887Y-106560906D01*
X73799767Y-106536868D01*
X73839685Y-106525370D01*
X73841047Y-106525217D01*
X74013015Y-106465043D01*
X74167281Y-106368111D01*
X74296111Y-106239281D01*
X74393043Y-106085015D01*
X74453217Y-105913047D01*
X74473616Y-105732000D01*
X74453217Y-105550953D01*
X74393043Y-105378985D01*
X74296111Y-105224719D01*
X74167281Y-105095889D01*
X74013015Y-104998957D01*
X73841047Y-104938783D01*
X73841046Y-104938782D01*
X73841044Y-104938782D01*
X73660000Y-104918383D01*
X73478955Y-104938782D01*
X73306984Y-104998957D01*
X73152717Y-105095890D01*
X73023890Y-105224717D01*
X72926958Y-105378983D01*
X72866780Y-105550960D01*
X72866627Y-105552324D01*
X72855126Y-105592238D01*
X72831089Y-105626114D01*
X70710910Y-107746292D01*
X70664184Y-107775653D01*
X70609345Y-107781831D01*
X70557258Y-107763605D01*
X70410015Y-107671086D01*
X70410012Y-107671084D01*
X70375777Y-107659105D01*
X70325205Y-107625723D01*
X70296490Y-107572361D01*
X70296491Y-107511765D01*
X70325206Y-107458404D01*
X70375776Y-107425023D01*
X70410015Y-107413043D01*
X70564281Y-107316111D01*
X70693111Y-107187281D01*
X70790043Y-107033015D01*
X70850217Y-106861047D01*
X70870616Y-106680000D01*
X70850217Y-106498953D01*
X70790043Y-106326985D01*
X70693111Y-106172719D01*
X70564281Y-106043889D01*
X70410015Y-105946957D01*
X70238040Y-105886780D01*
X70236675Y-105886627D01*
X70196761Y-105875126D01*
X70162885Y-105851089D01*
X69158678Y-104846882D01*
X69153544Y-104841429D01*
X69116043Y-104799099D01*
X69069510Y-104766980D01*
X69063478Y-104762542D01*
X69018970Y-104727673D01*
X69010832Y-104724011D01*
X68991282Y-104712984D01*
X68983937Y-104707914D01*
X68931059Y-104687859D01*
X68924143Y-104684994D01*
X68872596Y-104661795D01*
X68863806Y-104660184D01*
X68842200Y-104654160D01*
X68833850Y-104650994D01*
X68833845Y-104650992D01*
X68777720Y-104644176D01*
X68770320Y-104643050D01*
X68714704Y-104632858D01*
X68658252Y-104636274D01*
X68650765Y-104636500D01*
X63026840Y-104636500D01*
X62974247Y-104624794D01*
X62931583Y-104591886D01*
X62906905Y-104543990D01*
X62904871Y-104490148D01*
X62909118Y-104466971D01*
X62912141Y-104450478D01*
X62908726Y-104394021D01*
X62908500Y-104386534D01*
X62908500Y-103893466D01*
X62908726Y-103885979D01*
X62910934Y-103849470D01*
X62912141Y-103829522D01*
X62901942Y-103773876D01*
X62900818Y-103766482D01*
X62894006Y-103710375D01*
X62890840Y-103702029D01*
X62884814Y-103680407D01*
X62883206Y-103671634D01*
X62883206Y-103671632D01*
X62859985Y-103620039D01*
X62857145Y-103613184D01*
X62837085Y-103560287D01*
X62832013Y-103552939D01*
X62820989Y-103533392D01*
X62817327Y-103525254D01*
X62809348Y-103515070D01*
X62787391Y-103487044D01*
X62767783Y-103451019D01*
X62761000Y-103410569D01*
X62761000Y-93997000D01*
X66496383Y-93997000D01*
X66516782Y-94178044D01*
X66516782Y-94178046D01*
X66516783Y-94178047D01*
X66576957Y-94350015D01*
X66673889Y-94504281D01*
X66802719Y-94633111D01*
X66956985Y-94730043D01*
X67128953Y-94790217D01*
X67310000Y-94810616D01*
X67491047Y-94790217D01*
X67663015Y-94730043D01*
X67817281Y-94633111D01*
X67946111Y-94504281D01*
X68043043Y-94350015D01*
X68103217Y-94178047D01*
X68123616Y-93997000D01*
X68103217Y-93815953D01*
X68043043Y-93643985D01*
X67990005Y-93559577D01*
X67971000Y-93493606D01*
X67971000Y-90038394D01*
X67990006Y-89972422D01*
X68043043Y-89888015D01*
X68103217Y-89716047D01*
X68123616Y-89535000D01*
X68103217Y-89353953D01*
X68043043Y-89181985D01*
X67946111Y-89027719D01*
X67817281Y-88898889D01*
X67663015Y-88801957D01*
X67491047Y-88741783D01*
X67491046Y-88741782D01*
X67491044Y-88741782D01*
X67310000Y-88721383D01*
X67128955Y-88741782D01*
X66956984Y-88801957D01*
X66802717Y-88898890D01*
X66673890Y-89027717D01*
X66576957Y-89181984D01*
X66516782Y-89353955D01*
X66496383Y-89535000D01*
X66516782Y-89716044D01*
X66576957Y-89888015D01*
X66629994Y-89972422D01*
X66649000Y-90038394D01*
X66649000Y-93493606D01*
X66629994Y-93559578D01*
X66576957Y-93643984D01*
X66516782Y-93815955D01*
X66496383Y-93997000D01*
X62761000Y-93997000D01*
X62761000Y-88720158D01*
X62770439Y-88672705D01*
X62797319Y-88632477D01*
X63791455Y-87638341D01*
X66780888Y-84648906D01*
X66814768Y-84624868D01*
X66854685Y-84613370D01*
X66856047Y-84613217D01*
X67028015Y-84553043D01*
X67182281Y-84456111D01*
X67311111Y-84327281D01*
X67408043Y-84173015D01*
X67468217Y-84001047D01*
X67488616Y-83820000D01*
X67468217Y-83638953D01*
X67408043Y-83466985D01*
X67311111Y-83312719D01*
X67182281Y-83183889D01*
X67028015Y-83086957D01*
X66856047Y-83026783D01*
X66856046Y-83026782D01*
X66856044Y-83026782D01*
X66675000Y-83006383D01*
X66493955Y-83026782D01*
X66321984Y-83086957D01*
X66167717Y-83183890D01*
X66038890Y-83312717D01*
X65941958Y-83466983D01*
X65881782Y-83638956D01*
X65881629Y-83640316D01*
X65870129Y-83680233D01*
X65846090Y-83714112D01*
X62467681Y-87092523D01*
X62418318Y-87122773D01*
X62360602Y-87127315D01*
X62307115Y-87105160D01*
X62269515Y-87061137D01*
X62256000Y-87004842D01*
X62256000Y-68603735D01*
X62256226Y-68596248D01*
X62256804Y-68586692D01*
X62259641Y-68539797D01*
X62255595Y-68517719D01*
X62260104Y-68455628D01*
X62294221Y-68403553D01*
X62349345Y-68374622D01*
X62411583Y-68376126D01*
X62465245Y-68407687D01*
X69359681Y-75302123D01*
X69386561Y-75342351D01*
X69396000Y-75389804D01*
X69396000Y-103001606D01*
X69376994Y-103067578D01*
X69323957Y-103151984D01*
X69263782Y-103323955D01*
X69243383Y-103504999D01*
X69263782Y-103686044D01*
X69263782Y-103686046D01*
X69263783Y-103686047D01*
X69323957Y-103858015D01*
X69420889Y-104012281D01*
X69549719Y-104141111D01*
X69703985Y-104238043D01*
X69875953Y-104298217D01*
X70057000Y-104318616D01*
X70238047Y-104298217D01*
X70410015Y-104238043D01*
X70564281Y-104141111D01*
X70693111Y-104012281D01*
X70790043Y-103858015D01*
X70850217Y-103686047D01*
X70870616Y-103505000D01*
X70868364Y-103485017D01*
X70852772Y-103346629D01*
X70850217Y-103323953D01*
X70790043Y-103151985D01*
X70737005Y-103067577D01*
X70718000Y-103001606D01*
X70718000Y-80225421D01*
X73481383Y-80225421D01*
X73501782Y-80406465D01*
X73561957Y-80578436D01*
X73614994Y-80662843D01*
X73634000Y-80728815D01*
X73634000Y-103481265D01*
X73633774Y-103488752D01*
X73630358Y-103545204D01*
X73640550Y-103600820D01*
X73641676Y-103608220D01*
X73648492Y-103664345D01*
X73648494Y-103664350D01*
X73651255Y-103671632D01*
X73651660Y-103672698D01*
X73657684Y-103694306D01*
X73659295Y-103703096D01*
X73682494Y-103754643D01*
X73685359Y-103761559D01*
X73705414Y-103814437D01*
X73710484Y-103821782D01*
X73721511Y-103841332D01*
X73725173Y-103849470D01*
X73760042Y-103893978D01*
X73764480Y-103900010D01*
X73796598Y-103946542D01*
X73796599Y-103946543D01*
X73796600Y-103946544D01*
X73838938Y-103984052D01*
X73844375Y-103989171D01*
X74101089Y-104245885D01*
X74125126Y-104279761D01*
X74136627Y-104319675D01*
X74136780Y-104321040D01*
X74187844Y-104466971D01*
X74196957Y-104493015D01*
X74293889Y-104647281D01*
X74422719Y-104776111D01*
X74576985Y-104873043D01*
X74748953Y-104933217D01*
X74930000Y-104953616D01*
X75111047Y-104933217D01*
X75283015Y-104873043D01*
X75437281Y-104776111D01*
X75566111Y-104647281D01*
X75663043Y-104493015D01*
X75723217Y-104321047D01*
X75743616Y-104140000D01*
X75723217Y-103958953D01*
X75663043Y-103786985D01*
X75566111Y-103632719D01*
X75437281Y-103503889D01*
X75283015Y-103406957D01*
X75111047Y-103346783D01*
X75111046Y-103346782D01*
X75111044Y-103346782D01*
X75109683Y-103346629D01*
X75069765Y-103335129D01*
X75035885Y-103311089D01*
X74992318Y-103267521D01*
X74965439Y-103227293D01*
X74956000Y-103179841D01*
X74956000Y-80728815D01*
X74975006Y-80662843D01*
X75028043Y-80578436D01*
X75088217Y-80406468D01*
X75108616Y-80225421D01*
X75088217Y-80044374D01*
X75028043Y-79872406D01*
X74931111Y-79718140D01*
X74802281Y-79589310D01*
X74648015Y-79492378D01*
X74476047Y-79432204D01*
X74476046Y-79432203D01*
X74476044Y-79432203D01*
X74295000Y-79411804D01*
X74113955Y-79432203D01*
X73941984Y-79492378D01*
X73787717Y-79589311D01*
X73658890Y-79718138D01*
X73561957Y-79872405D01*
X73501782Y-80044376D01*
X73481383Y-80225421D01*
X70718000Y-80225421D01*
X70718000Y-75088387D01*
X70718226Y-75080900D01*
X70721641Y-75024440D01*
X70711447Y-74968819D01*
X70710322Y-74961433D01*
X70703506Y-74905296D01*
X70700340Y-74896949D01*
X70694314Y-74875331D01*
X70694024Y-74873750D01*
X70692705Y-74866552D01*
X70669483Y-74814957D01*
X70666646Y-74808104D01*
X70646585Y-74755208D01*
X70641516Y-74747865D01*
X70630487Y-74728311D01*
X70626826Y-74720175D01*
X70591953Y-74675662D01*
X70587528Y-74669649D01*
X70555400Y-74623102D01*
X70513062Y-74585594D01*
X70507624Y-74580474D01*
X58096223Y-62169073D01*
X95826939Y-62169073D01*
X95833450Y-62229644D01*
X95884549Y-62366642D01*
X95972177Y-62483700D01*
X96089235Y-62571328D01*
X96226233Y-62622427D01*
X96226236Y-62622427D01*
X96226238Y-62622428D01*
X96286801Y-62628939D01*
X98384073Y-62628939D01*
X98384077Y-62628939D01*
X98444640Y-62622428D01*
X98444642Y-62622427D01*
X98444644Y-62622427D01*
X98559674Y-62579522D01*
X98581643Y-62571328D01*
X98698700Y-62483700D01*
X98786328Y-62366643D01*
X98794755Y-62344049D01*
X104065381Y-62344049D01*
X104112205Y-62380494D01*
X104330832Y-62498807D01*
X104565945Y-62579522D01*
X104811146Y-62620439D01*
X105059732Y-62620439D01*
X105304932Y-62579522D01*
X105540045Y-62498807D01*
X105758672Y-62380492D01*
X105805495Y-62344048D01*
X104935439Y-61473992D01*
X104065381Y-62344048D01*
X104065381Y-62344049D01*
X98794755Y-62344049D01*
X98837428Y-62229640D01*
X98843939Y-62169077D01*
X98843939Y-61120439D01*
X103430297Y-61120439D01*
X103450825Y-61368171D01*
X103511852Y-61609160D01*
X103611707Y-61836809D01*
X103712002Y-61990321D01*
X103712003Y-61990321D01*
X104581886Y-61120440D01*
X105288992Y-61120440D01*
X106158873Y-61990321D01*
X106259169Y-61836808D01*
X106359025Y-61609160D01*
X106420052Y-61368171D01*
X106440580Y-61120439D01*
X106420052Y-60872706D01*
X106359025Y-60631717D01*
X106259169Y-60404069D01*
X106158873Y-60250555D01*
X105288992Y-61120439D01*
X105288992Y-61120440D01*
X104581886Y-61120440D01*
X104581886Y-61120439D01*
X103712003Y-60250555D01*
X103611705Y-60404073D01*
X103511852Y-60631717D01*
X103450825Y-60872706D01*
X103430297Y-61120439D01*
X98843939Y-61120439D01*
X98843939Y-60071801D01*
X98837428Y-60011238D01*
X98837427Y-60011236D01*
X98837427Y-60011233D01*
X98794755Y-59896829D01*
X104065381Y-59896829D01*
X104935439Y-60766886D01*
X104935440Y-60766886D01*
X105805496Y-59896829D01*
X105805495Y-59896827D01*
X105758674Y-59860386D01*
X105540045Y-59742070D01*
X105304932Y-59661355D01*
X105059732Y-59620439D01*
X104811146Y-59620439D01*
X104565945Y-59661355D01*
X104330832Y-59742070D01*
X104112203Y-59860385D01*
X104065381Y-59896827D01*
X104065381Y-59896829D01*
X98794755Y-59896829D01*
X98786328Y-59874235D01*
X98698700Y-59757177D01*
X98581642Y-59669549D01*
X98444644Y-59618450D01*
X98414358Y-59615194D01*
X98384077Y-59611939D01*
X96286801Y-59611939D01*
X96259884Y-59614832D01*
X96226233Y-59618450D01*
X96089235Y-59669549D01*
X95972177Y-59757177D01*
X95884549Y-59874235D01*
X95833450Y-60011233D01*
X95826939Y-60071805D01*
X95826939Y-62169073D01*
X58096223Y-62169073D01*
X53879032Y-57951882D01*
X53873898Y-57946429D01*
X53836397Y-57904099D01*
X53789864Y-57871980D01*
X53783832Y-57867542D01*
X53739324Y-57832673D01*
X53731186Y-57829011D01*
X53711636Y-57817984D01*
X53704291Y-57812914D01*
X53651413Y-57792859D01*
X53644497Y-57789994D01*
X53592950Y-57766795D01*
X53584160Y-57765184D01*
X53562554Y-57759160D01*
X53554204Y-57755994D01*
X53554199Y-57755992D01*
X53498074Y-57749176D01*
X53490674Y-57748050D01*
X53435058Y-57737858D01*
X53378606Y-57741274D01*
X53371119Y-57741500D01*
X44491234Y-57741500D01*
X44483747Y-57741274D01*
X44467664Y-57740301D01*
X44427296Y-57737859D01*
X44427295Y-57737859D01*
X44371671Y-57748052D01*
X44364269Y-57749179D01*
X44308147Y-57755994D01*
X44299797Y-57759161D01*
X44278194Y-57765183D01*
X44269407Y-57766793D01*
X44217853Y-57789996D01*
X44210937Y-57792861D01*
X44158058Y-57812916D01*
X44150706Y-57817991D01*
X44131171Y-57829008D01*
X44129337Y-57829834D01*
X44123025Y-57832675D01*
X44078515Y-57867545D01*
X44072487Y-57871981D01*
X44025955Y-57904100D01*
X43988447Y-57946437D01*
X43983314Y-57951889D01*
X43709114Y-58226089D01*
X43675238Y-58250126D01*
X43635324Y-58261627D01*
X43633960Y-58261780D01*
X43522660Y-58300725D01*
X43461985Y-58321957D01*
X43461983Y-58321957D01*
X43461983Y-58321958D01*
X43307717Y-58418890D01*
X43178890Y-58547717D01*
X43081957Y-58701984D01*
X43021782Y-58873955D01*
X43001383Y-59055000D01*
X43021782Y-59236044D01*
X43021782Y-59236046D01*
X43021783Y-59236047D01*
X43081957Y-59408015D01*
X43178889Y-59562281D01*
X43307719Y-59691111D01*
X43461985Y-59788043D01*
X43633953Y-59848217D01*
X43815000Y-59868616D01*
X43996047Y-59848217D01*
X44168015Y-59788043D01*
X44322281Y-59691111D01*
X44451111Y-59562281D01*
X44548043Y-59408015D01*
X44608217Y-59236047D01*
X44608370Y-59234685D01*
X44619869Y-59194767D01*
X44643906Y-59160887D01*
X44704977Y-59099817D01*
X44745206Y-59072939D01*
X44792658Y-59063500D01*
X51146529Y-59063500D01*
X51204471Y-59077870D01*
X51248983Y-59117649D01*
X51269749Y-59173617D01*
X51276782Y-59236044D01*
X51276782Y-59236046D01*
X51276783Y-59236047D01*
X51336957Y-59408015D01*
X51433889Y-59562281D01*
X51562719Y-59691111D01*
X51716985Y-59788043D01*
X51888953Y-59848217D01*
X51890315Y-59848370D01*
X51930231Y-59859869D01*
X51964113Y-59883909D01*
X60897681Y-68817476D01*
X60924561Y-68857704D01*
X60934000Y-68905157D01*
X60934000Y-91449843D01*
X60920485Y-91506138D01*
X60882885Y-91550161D01*
X60829398Y-91572316D01*
X60771682Y-91567774D01*
X60722319Y-91537524D01*
X58409953Y-89225158D01*
X55942319Y-86757523D01*
X55915439Y-86717295D01*
X55906000Y-86669842D01*
X55906000Y-77973394D01*
X55925006Y-77907422D01*
X55978043Y-77823015D01*
X56038217Y-77651047D01*
X56058616Y-77470000D01*
X56038217Y-77288953D01*
X55978043Y-77116985D01*
X55881111Y-76962719D01*
X55752281Y-76833889D01*
X55598015Y-76736957D01*
X55426047Y-76676783D01*
X55426046Y-76676782D01*
X55426044Y-76676782D01*
X55245000Y-76656383D01*
X55063955Y-76676782D01*
X54891984Y-76736957D01*
X54737717Y-76833890D01*
X54608890Y-76962717D01*
X54511957Y-77116984D01*
X54451782Y-77288955D01*
X54431383Y-77470000D01*
X54451782Y-77651044D01*
X54511957Y-77823015D01*
X54564994Y-77907422D01*
X54584000Y-77973394D01*
X54584000Y-85987617D01*
X54570485Y-86043912D01*
X54532885Y-86087935D01*
X54479398Y-86110090D01*
X54421682Y-86105548D01*
X54372319Y-86075298D01*
X52784819Y-84487798D01*
X52757939Y-84447570D01*
X52748500Y-84400117D01*
X52748500Y-82608235D01*
X52748726Y-82600748D01*
X52750839Y-82565815D01*
X52752141Y-82544297D01*
X52741941Y-82488641D01*
X52740822Y-82481287D01*
X52734006Y-82425150D01*
X52730840Y-82416803D01*
X52724814Y-82395185D01*
X52724190Y-82391782D01*
X52723205Y-82386406D01*
X52699983Y-82334811D01*
X52697146Y-82327958D01*
X52677085Y-82275062D01*
X52672015Y-82267717D01*
X52660986Y-82248162D01*
X52657326Y-82240029D01*
X52622465Y-82195532D01*
X52618026Y-82189499D01*
X52608074Y-82175082D01*
X52585900Y-82142956D01*
X52543553Y-82105440D01*
X52538115Y-82100320D01*
X42721909Y-72284113D01*
X42697869Y-72250231D01*
X42686370Y-72210315D01*
X42686217Y-72208953D01*
X42626043Y-72036985D01*
X42529111Y-71882719D01*
X42400281Y-71753889D01*
X42246015Y-71656957D01*
X42074047Y-71596783D01*
X42074046Y-71596782D01*
X42074044Y-71596782D01*
X41893000Y-71576383D01*
X41711955Y-71596782D01*
X41539984Y-71656957D01*
X41385717Y-71753890D01*
X41256890Y-71882717D01*
X41159957Y-72036984D01*
X41099782Y-72208955D01*
X41079383Y-72390000D01*
X41099782Y-72571044D01*
X41099782Y-72571046D01*
X41099783Y-72571047D01*
X41159957Y-72743015D01*
X41256889Y-72897281D01*
X41385719Y-73026111D01*
X41539985Y-73123043D01*
X41711953Y-73183217D01*
X41713315Y-73183370D01*
X41753231Y-73194869D01*
X41787113Y-73218909D01*
X51390181Y-82821976D01*
X51417061Y-82862204D01*
X51426500Y-82909657D01*
X51426500Y-83034438D01*
X51409303Y-83097439D01*
X51362481Y-83142966D01*
X51299022Y-83158389D01*
X51236528Y-83139432D01*
X51153015Y-83086957D01*
X50981044Y-83026782D01*
X50979675Y-83026628D01*
X50939760Y-83015127D01*
X50905884Y-82991089D01*
X49195906Y-81281111D01*
X47474178Y-79559382D01*
X47469044Y-79553929D01*
X47431543Y-79511599D01*
X47385010Y-79479480D01*
X47378978Y-79475042D01*
X47334470Y-79440173D01*
X47326332Y-79436511D01*
X47306782Y-79425484D01*
X47299437Y-79420414D01*
X47246559Y-79400359D01*
X47239643Y-79397494D01*
X47188096Y-79374295D01*
X47179306Y-79372684D01*
X47157700Y-79366660D01*
X47149350Y-79363494D01*
X47149345Y-79363492D01*
X47093220Y-79356676D01*
X47085820Y-79355550D01*
X47030204Y-79345358D01*
X46973752Y-79348774D01*
X46966265Y-79349000D01*
X39873394Y-79349000D01*
X39807422Y-79329994D01*
X39723015Y-79276957D01*
X39551044Y-79216782D01*
X39369999Y-79196383D01*
X39188955Y-79216782D01*
X39016984Y-79276957D01*
X38862717Y-79373890D01*
X38733890Y-79502717D01*
X38636957Y-79656984D01*
X38576782Y-79828955D01*
X38556383Y-80010000D01*
X18173000Y-80010000D01*
X18173000Y-70648634D01*
X38746500Y-70648634D01*
X38753011Y-70709205D01*
X38804110Y-70846203D01*
X38891738Y-70963261D01*
X39008796Y-71050889D01*
X39145794Y-71101988D01*
X39145797Y-71101988D01*
X39145799Y-71101989D01*
X39206362Y-71108500D01*
X40803634Y-71108500D01*
X40803638Y-71108500D01*
X40864201Y-71101989D01*
X40864203Y-71101988D01*
X40864205Y-71101988D01*
X40942124Y-71072924D01*
X41001204Y-71050889D01*
X41118261Y-70963261D01*
X41205889Y-70846204D01*
X41256989Y-70709201D01*
X41263500Y-70648638D01*
X41263500Y-70607233D01*
X41279047Y-70547117D01*
X41321790Y-70502075D01*
X41381010Y-70483403D01*
X41441858Y-70495782D01*
X41489072Y-70536106D01*
X41577251Y-70662038D01*
X41732962Y-70817749D01*
X41913346Y-70944056D01*
X42112924Y-71037120D01*
X42325629Y-71094115D01*
X42545000Y-71113307D01*
X42764371Y-71094115D01*
X42977076Y-71037120D01*
X43176654Y-70944056D01*
X43357038Y-70817749D01*
X43512749Y-70662038D01*
X43639056Y-70481654D01*
X43702620Y-70345339D01*
X43748373Y-70293168D01*
X43814998Y-70273748D01*
X43881624Y-70293167D01*
X43927381Y-70345343D01*
X43966744Y-70429758D01*
X43990944Y-70481654D01*
X44117251Y-70662038D01*
X44272962Y-70817749D01*
X44453346Y-70944056D01*
X44652924Y-71037120D01*
X44865629Y-71094115D01*
X45085000Y-71113307D01*
X45304371Y-71094115D01*
X45517076Y-71037120D01*
X45716654Y-70944056D01*
X45897038Y-70817749D01*
X46052749Y-70662038D01*
X46179056Y-70481654D01*
X46242620Y-70345339D01*
X46288373Y-70293168D01*
X46354998Y-70273748D01*
X46421624Y-70293167D01*
X46467381Y-70345343D01*
X46506744Y-70429758D01*
X46530944Y-70481654D01*
X46657251Y-70662038D01*
X46812962Y-70817749D01*
X46993346Y-70944056D01*
X47192924Y-71037120D01*
X47405629Y-71094115D01*
X47625000Y-71113307D01*
X47844371Y-71094115D01*
X48057076Y-71037120D01*
X48256654Y-70944056D01*
X48437038Y-70817749D01*
X48592749Y-70662038D01*
X48719056Y-70481654D01*
X48782620Y-70345339D01*
X48828373Y-70293168D01*
X48894998Y-70273748D01*
X48961624Y-70293167D01*
X49007381Y-70345343D01*
X49046744Y-70429758D01*
X49070944Y-70481654D01*
X49197251Y-70662038D01*
X49352962Y-70817749D01*
X49533346Y-70944056D01*
X49732924Y-71037120D01*
X49945629Y-71094115D01*
X50165000Y-71113307D01*
X50384371Y-71094115D01*
X50597076Y-71037120D01*
X50796654Y-70944056D01*
X50977038Y-70817749D01*
X51132749Y-70662038D01*
X51259056Y-70481654D01*
X51322620Y-70345339D01*
X51368373Y-70293168D01*
X51434998Y-70273748D01*
X51501624Y-70293167D01*
X51547381Y-70345343D01*
X51586744Y-70429758D01*
X51610944Y-70481654D01*
X51737251Y-70662038D01*
X51892962Y-70817749D01*
X52073346Y-70944056D01*
X52272924Y-71037120D01*
X52485629Y-71094115D01*
X52705000Y-71113307D01*
X52924371Y-71094115D01*
X53137076Y-71037120D01*
X53336654Y-70944056D01*
X53517038Y-70817749D01*
X53672749Y-70662038D01*
X53799056Y-70481654D01*
X53892120Y-70282076D01*
X53949115Y-70069371D01*
X53968307Y-69850000D01*
X53949115Y-69630629D01*
X53892120Y-69417924D01*
X53799056Y-69218347D01*
X53672749Y-69037962D01*
X53517038Y-68882251D01*
X53336654Y-68755944D01*
X53244636Y-68713035D01*
X53137077Y-68662880D01*
X52924368Y-68605884D01*
X52705000Y-68586692D01*
X52485631Y-68605884D01*
X52272922Y-68662880D01*
X52114532Y-68736739D01*
X52073347Y-68755944D01*
X51933600Y-68853796D01*
X51892958Y-68882254D01*
X51737254Y-69037958D01*
X51737251Y-69037961D01*
X51737251Y-69037962D01*
X51612170Y-69216597D01*
X51610943Y-69218349D01*
X51547382Y-69354656D01*
X51501625Y-69406832D01*
X51435000Y-69426251D01*
X51368375Y-69406832D01*
X51322618Y-69354656D01*
X51308634Y-69324668D01*
X51259056Y-69218347D01*
X51132749Y-69037962D01*
X50977038Y-68882251D01*
X50796654Y-68755944D01*
X50704636Y-68713035D01*
X50597077Y-68662880D01*
X50384368Y-68605884D01*
X50165000Y-68586692D01*
X49945631Y-68605884D01*
X49732922Y-68662880D01*
X49574532Y-68736739D01*
X49533347Y-68755944D01*
X49393600Y-68853796D01*
X49352958Y-68882254D01*
X49197254Y-69037958D01*
X49197251Y-69037961D01*
X49197251Y-69037962D01*
X49072170Y-69216597D01*
X49070943Y-69218349D01*
X49007382Y-69354656D01*
X48961625Y-69406832D01*
X48895000Y-69426251D01*
X48828375Y-69406832D01*
X48782618Y-69354656D01*
X48768634Y-69324668D01*
X48719056Y-69218347D01*
X48592749Y-69037962D01*
X48437038Y-68882251D01*
X48256654Y-68755944D01*
X48164636Y-68713035D01*
X48057077Y-68662880D01*
X47844368Y-68605884D01*
X47625000Y-68586692D01*
X47405631Y-68605884D01*
X47192922Y-68662880D01*
X47034532Y-68736739D01*
X46993347Y-68755944D01*
X46853600Y-68853796D01*
X46812958Y-68882254D01*
X46657254Y-69037958D01*
X46657251Y-69037961D01*
X46657251Y-69037962D01*
X46532170Y-69216597D01*
X46530943Y-69218349D01*
X46467382Y-69354656D01*
X46421625Y-69406832D01*
X46355000Y-69426251D01*
X46288375Y-69406832D01*
X46242618Y-69354656D01*
X46228634Y-69324668D01*
X46179056Y-69218347D01*
X46052749Y-69037962D01*
X45897038Y-68882251D01*
X45716654Y-68755944D01*
X45624636Y-68713035D01*
X45517077Y-68662880D01*
X45304368Y-68605884D01*
X45085000Y-68586692D01*
X44865631Y-68605884D01*
X44652922Y-68662880D01*
X44494532Y-68736739D01*
X44453347Y-68755944D01*
X44313600Y-68853796D01*
X44272958Y-68882254D01*
X44117254Y-69037958D01*
X44117251Y-69037961D01*
X44117251Y-69037962D01*
X43992170Y-69216597D01*
X43990943Y-69218349D01*
X43927382Y-69354656D01*
X43881625Y-69406832D01*
X43815000Y-69426251D01*
X43748375Y-69406832D01*
X43702618Y-69354656D01*
X43688634Y-69324668D01*
X43639056Y-69218347D01*
X43512749Y-69037962D01*
X43357038Y-68882251D01*
X43176654Y-68755944D01*
X43084636Y-68713035D01*
X42977077Y-68662880D01*
X42764368Y-68605884D01*
X42545000Y-68586692D01*
X42325631Y-68605884D01*
X42112922Y-68662880D01*
X41954532Y-68736739D01*
X41913347Y-68755944D01*
X41773600Y-68853796D01*
X41732958Y-68882254D01*
X41577254Y-69037958D01*
X41577251Y-69037961D01*
X41577251Y-69037962D01*
X41496783Y-69152883D01*
X41489075Y-69163891D01*
X41441858Y-69204218D01*
X41381010Y-69216597D01*
X41321790Y-69197925D01*
X41279047Y-69152883D01*
X41263500Y-69092767D01*
X41263500Y-69051366D01*
X41256988Y-68990794D01*
X41205889Y-68853796D01*
X41118261Y-68736738D01*
X41001203Y-68649110D01*
X40864205Y-68598011D01*
X40833919Y-68594755D01*
X40803638Y-68591500D01*
X39206362Y-68591500D01*
X39179445Y-68594393D01*
X39145794Y-68598011D01*
X39008796Y-68649110D01*
X38891738Y-68736738D01*
X38804110Y-68853796D01*
X38753011Y-68990794D01*
X38746500Y-69051366D01*
X38746500Y-70648634D01*
X18173000Y-70648634D01*
X18173000Y-54609999D01*
X38741692Y-54609999D01*
X38760884Y-54829368D01*
X38760885Y-54829371D01*
X38817880Y-55042076D01*
X38910944Y-55241654D01*
X39037251Y-55422038D01*
X39192962Y-55577749D01*
X39373346Y-55704056D01*
X39572924Y-55797120D01*
X39785629Y-55854115D01*
X40005000Y-55873307D01*
X40224371Y-55854115D01*
X40437076Y-55797120D01*
X40636654Y-55704056D01*
X40817038Y-55577749D01*
X40972749Y-55422038D01*
X41099056Y-55241654D01*
X41162617Y-55105344D01*
X41208375Y-55053168D01*
X41275000Y-55033748D01*
X41341625Y-55053168D01*
X41387382Y-55105344D01*
X41450941Y-55241649D01*
X41450943Y-55241651D01*
X41450944Y-55241654D01*
X41577251Y-55422038D01*
X41732962Y-55577749D01*
X41913346Y-55704056D01*
X42112924Y-55797120D01*
X42325629Y-55854115D01*
X42545000Y-55873307D01*
X42764371Y-55854115D01*
X42977076Y-55797120D01*
X43176654Y-55704056D01*
X43357038Y-55577749D01*
X43512749Y-55422038D01*
X43639056Y-55241654D01*
X43702617Y-55105344D01*
X43748375Y-55053168D01*
X43815000Y-55033748D01*
X43881625Y-55053168D01*
X43927382Y-55105344D01*
X43990941Y-55241649D01*
X43990943Y-55241651D01*
X43990944Y-55241654D01*
X44117251Y-55422038D01*
X44272962Y-55577749D01*
X44453346Y-55704056D01*
X44652924Y-55797120D01*
X44865629Y-55854115D01*
X45085000Y-55873307D01*
X45304371Y-55854115D01*
X45517076Y-55797120D01*
X45716654Y-55704056D01*
X45897038Y-55577749D01*
X46052749Y-55422038D01*
X46179056Y-55241654D01*
X46242617Y-55105344D01*
X46288375Y-55053168D01*
X46355000Y-55033748D01*
X46421625Y-55053168D01*
X46467382Y-55105344D01*
X46530941Y-55241649D01*
X46530943Y-55241651D01*
X46530944Y-55241654D01*
X46657251Y-55422038D01*
X46812962Y-55577749D01*
X46993346Y-55704056D01*
X47192924Y-55797120D01*
X47405629Y-55854115D01*
X47625000Y-55873307D01*
X47844371Y-55854115D01*
X48057076Y-55797120D01*
X48256654Y-55704056D01*
X48437038Y-55577749D01*
X48592749Y-55422038D01*
X48719056Y-55241654D01*
X48782617Y-55105344D01*
X48828375Y-55053168D01*
X48895000Y-55033748D01*
X48961625Y-55053168D01*
X49007382Y-55105344D01*
X49070941Y-55241649D01*
X49070943Y-55241651D01*
X49070944Y-55241654D01*
X49197251Y-55422038D01*
X49352962Y-55577749D01*
X49533346Y-55704056D01*
X49732924Y-55797120D01*
X49945629Y-55854115D01*
X50165000Y-55873307D01*
X50384371Y-55854115D01*
X50597076Y-55797120D01*
X50796654Y-55704056D01*
X50977038Y-55577749D01*
X51132749Y-55422038D01*
X51259056Y-55241654D01*
X51322617Y-55105344D01*
X51368375Y-55053168D01*
X51435000Y-55033748D01*
X51501625Y-55053168D01*
X51547382Y-55105344D01*
X51610941Y-55241649D01*
X51610943Y-55241651D01*
X51610944Y-55241654D01*
X51737251Y-55422038D01*
X51892962Y-55577749D01*
X52073346Y-55704056D01*
X52272924Y-55797120D01*
X52485629Y-55854115D01*
X52705000Y-55873307D01*
X52924371Y-55854115D01*
X53137076Y-55797120D01*
X53336654Y-55704056D01*
X53517038Y-55577749D01*
X53672749Y-55422038D01*
X53799056Y-55241654D01*
X53892120Y-55042076D01*
X53949115Y-54829371D01*
X53968307Y-54610000D01*
X53949115Y-54390629D01*
X53892120Y-54177924D01*
X53799056Y-53978347D01*
X53672749Y-53797962D01*
X53517038Y-53642251D01*
X53336654Y-53515944D01*
X53244636Y-53473035D01*
X53137077Y-53422880D01*
X52924368Y-53365884D01*
X52705000Y-53346692D01*
X52485631Y-53365884D01*
X52272922Y-53422880D01*
X52073349Y-53515943D01*
X52073347Y-53515944D01*
X51892962Y-53642251D01*
X51892958Y-53642254D01*
X51737254Y-53797958D01*
X51610943Y-53978349D01*
X51547382Y-54114656D01*
X51501625Y-54166832D01*
X51435000Y-54186251D01*
X51368375Y-54166832D01*
X51322618Y-54114656D01*
X51308634Y-54084668D01*
X51259056Y-53978347D01*
X51132749Y-53797962D01*
X50977038Y-53642251D01*
X50796654Y-53515944D01*
X50704636Y-53473035D01*
X50597077Y-53422880D01*
X50384368Y-53365884D01*
X50165000Y-53346692D01*
X49945631Y-53365884D01*
X49732922Y-53422880D01*
X49533349Y-53515943D01*
X49533347Y-53515944D01*
X49352962Y-53642251D01*
X49352958Y-53642254D01*
X49197254Y-53797958D01*
X49070943Y-53978349D01*
X49007382Y-54114656D01*
X48961625Y-54166832D01*
X48895000Y-54186251D01*
X48828375Y-54166832D01*
X48782618Y-54114656D01*
X48768634Y-54084668D01*
X48719056Y-53978347D01*
X48592749Y-53797962D01*
X48437038Y-53642251D01*
X48256654Y-53515944D01*
X48164636Y-53473035D01*
X48057077Y-53422880D01*
X47844368Y-53365884D01*
X47625000Y-53346692D01*
X47405631Y-53365884D01*
X47192922Y-53422880D01*
X46993349Y-53515943D01*
X46993347Y-53515944D01*
X46812962Y-53642251D01*
X46812958Y-53642254D01*
X46657254Y-53797958D01*
X46530943Y-53978349D01*
X46467382Y-54114656D01*
X46421625Y-54166832D01*
X46355000Y-54186251D01*
X46288375Y-54166832D01*
X46242618Y-54114656D01*
X46228634Y-54084668D01*
X46179056Y-53978347D01*
X46052749Y-53797962D01*
X45897038Y-53642251D01*
X45716654Y-53515944D01*
X45624636Y-53473035D01*
X45517077Y-53422880D01*
X45304368Y-53365884D01*
X45085000Y-53346692D01*
X44865631Y-53365884D01*
X44652922Y-53422880D01*
X44453349Y-53515943D01*
X44453347Y-53515944D01*
X44272962Y-53642251D01*
X44272958Y-53642254D01*
X44117254Y-53797958D01*
X43990943Y-53978349D01*
X43927382Y-54114656D01*
X43881625Y-54166832D01*
X43815000Y-54186251D01*
X43748375Y-54166832D01*
X43702618Y-54114656D01*
X43688634Y-54084668D01*
X43639056Y-53978347D01*
X43512749Y-53797962D01*
X43357038Y-53642251D01*
X43176654Y-53515944D01*
X43084636Y-53473035D01*
X42977077Y-53422880D01*
X42764368Y-53365884D01*
X42545000Y-53346692D01*
X42325631Y-53365884D01*
X42112922Y-53422880D01*
X41913349Y-53515943D01*
X41913347Y-53515944D01*
X41732962Y-53642251D01*
X41732958Y-53642254D01*
X41577254Y-53797958D01*
X41450943Y-53978349D01*
X41387382Y-54114656D01*
X41341625Y-54166832D01*
X41275000Y-54186251D01*
X41208375Y-54166832D01*
X41162618Y-54114656D01*
X41148634Y-54084668D01*
X41099056Y-53978347D01*
X40972749Y-53797962D01*
X40817038Y-53642251D01*
X40636654Y-53515944D01*
X40544636Y-53473035D01*
X40437077Y-53422880D01*
X40224368Y-53365884D01*
X40005000Y-53346692D01*
X39785631Y-53365884D01*
X39572922Y-53422880D01*
X39373349Y-53515943D01*
X39373347Y-53515944D01*
X39192962Y-53642251D01*
X39192958Y-53642254D01*
X39037254Y-53797958D01*
X38910943Y-53978349D01*
X38817880Y-54177922D01*
X38760884Y-54390631D01*
X38741692Y-54609999D01*
X18173000Y-54609999D01*
X18173000Y-42109500D01*
X18189613Y-42047500D01*
X18235000Y-42002113D01*
X18297000Y-41985500D01*
X116323000Y-41985500D01*
X116385000Y-42002113D01*
G37*
%TD.AperFunction*%
%TD*%
M02*
