%TF.GenerationSoftware,KiCad,Pcbnew,7.0.1*%
%TF.CreationDate,2023-04-20T16:53:54-06:00*%
%TF.ProjectId,Phase_B_UnoShield,50686173-655f-4425-9f55-6e6f53686965,rev?*%
%TF.SameCoordinates,Original*%
%TF.FileFunction,Drillmap*%
%TF.FilePolarity,Positive*%
%FSLAX45Y45*%
G04 Gerber Fmt 4.5, Leading zero omitted, Abs format (unit mm)*
G04 Created by KiCad (PCBNEW 7.0.1) date 2023-04-20 16:53:54*
%MOMM*%
%LPD*%
G01*
G04 APERTURE LIST*
%ADD10C,0.150000*%
%ADD11C,0.200000*%
%ADD12C,0.100000*%
%ADD13C,0.250000*%
G04 APERTURE END LIST*
D10*
X1809750Y-4191000D02*
X11652250Y-4191000D01*
X11652250Y-12573000D01*
X1809750Y-12573000D01*
X1809750Y-4191000D01*
D11*
D12*
X2293500Y-10143500D02*
X2393500Y-10243500D01*
X2393500Y-10143500D02*
X2293500Y-10243500D01*
X2293500Y-10583500D02*
X2393500Y-10683500D01*
X2393500Y-10583500D02*
X2293500Y-10683500D01*
D13*
X2474500Y-8318500D02*
G75*
G03*
X2474500Y-8318500I-125000J0D01*
G01*
X11047000Y-5016500D02*
G75*
G03*
X11047000Y-5016500I-125000J0D01*
G01*
X11174000Y-10604500D02*
G75*
G03*
X11174000Y-10604500I-125000J0D01*
G01*
D11*
X2049869Y-12893024D02*
X2049869Y-12693024D01*
X2049869Y-12693024D02*
X2097488Y-12693024D01*
X2097488Y-12693024D02*
X2126060Y-12702548D01*
X2126060Y-12702548D02*
X2145107Y-12721595D01*
X2145107Y-12721595D02*
X2154631Y-12740643D01*
X2154631Y-12740643D02*
X2164155Y-12778738D01*
X2164155Y-12778738D02*
X2164155Y-12807309D01*
X2164155Y-12807309D02*
X2154631Y-12845405D01*
X2154631Y-12845405D02*
X2145107Y-12864452D01*
X2145107Y-12864452D02*
X2126060Y-12883500D01*
X2126060Y-12883500D02*
X2097488Y-12893024D01*
X2097488Y-12893024D02*
X2049869Y-12893024D01*
X2249869Y-12893024D02*
X2249869Y-12759690D01*
X2249869Y-12797786D02*
X2259393Y-12778738D01*
X2259393Y-12778738D02*
X2268917Y-12769214D01*
X2268917Y-12769214D02*
X2287964Y-12759690D01*
X2287964Y-12759690D02*
X2307012Y-12759690D01*
X2373679Y-12893024D02*
X2373679Y-12759690D01*
X2373679Y-12693024D02*
X2364155Y-12702548D01*
X2364155Y-12702548D02*
X2373679Y-12712071D01*
X2373679Y-12712071D02*
X2383202Y-12702548D01*
X2383202Y-12702548D02*
X2373679Y-12693024D01*
X2373679Y-12693024D02*
X2373679Y-12712071D01*
X2497488Y-12893024D02*
X2478440Y-12883500D01*
X2478440Y-12883500D02*
X2468917Y-12864452D01*
X2468917Y-12864452D02*
X2468917Y-12693024D01*
X2602250Y-12893024D02*
X2583202Y-12883500D01*
X2583202Y-12883500D02*
X2573679Y-12864452D01*
X2573679Y-12864452D02*
X2573679Y-12693024D01*
X2830821Y-12893024D02*
X2830821Y-12693024D01*
X2830821Y-12693024D02*
X2897488Y-12835881D01*
X2897488Y-12835881D02*
X2964155Y-12693024D01*
X2964155Y-12693024D02*
X2964155Y-12893024D01*
X3145107Y-12893024D02*
X3145107Y-12788262D01*
X3145107Y-12788262D02*
X3135583Y-12769214D01*
X3135583Y-12769214D02*
X3116536Y-12759690D01*
X3116536Y-12759690D02*
X3078440Y-12759690D01*
X3078440Y-12759690D02*
X3059393Y-12769214D01*
X3145107Y-12883500D02*
X3126059Y-12893024D01*
X3126059Y-12893024D02*
X3078440Y-12893024D01*
X3078440Y-12893024D02*
X3059393Y-12883500D01*
X3059393Y-12883500D02*
X3049869Y-12864452D01*
X3049869Y-12864452D02*
X3049869Y-12845405D01*
X3049869Y-12845405D02*
X3059393Y-12826357D01*
X3059393Y-12826357D02*
X3078440Y-12816833D01*
X3078440Y-12816833D02*
X3126059Y-12816833D01*
X3126059Y-12816833D02*
X3145107Y-12807309D01*
X3240345Y-12759690D02*
X3240345Y-12959690D01*
X3240345Y-12769214D02*
X3259393Y-12759690D01*
X3259393Y-12759690D02*
X3297488Y-12759690D01*
X3297488Y-12759690D02*
X3316536Y-12769214D01*
X3316536Y-12769214D02*
X3326059Y-12778738D01*
X3326059Y-12778738D02*
X3335583Y-12797786D01*
X3335583Y-12797786D02*
X3335583Y-12854928D01*
X3335583Y-12854928D02*
X3326059Y-12873976D01*
X3326059Y-12873976D02*
X3316536Y-12883500D01*
X3316536Y-12883500D02*
X3297488Y-12893024D01*
X3297488Y-12893024D02*
X3259393Y-12893024D01*
X3259393Y-12893024D02*
X3240345Y-12883500D01*
X3421298Y-12873976D02*
X3430821Y-12883500D01*
X3430821Y-12883500D02*
X3421298Y-12893024D01*
X3421298Y-12893024D02*
X3411774Y-12883500D01*
X3411774Y-12883500D02*
X3421298Y-12873976D01*
X3421298Y-12873976D02*
X3421298Y-12893024D01*
X3421298Y-12769214D02*
X3430821Y-12778738D01*
X3430821Y-12778738D02*
X3421298Y-12788262D01*
X3421298Y-12788262D02*
X3411774Y-12778738D01*
X3411774Y-12778738D02*
X3421298Y-12769214D01*
X3421298Y-12769214D02*
X3421298Y-12788262D01*
D12*
X1702250Y-13170500D02*
X1802250Y-13270500D01*
X1802250Y-13170500D02*
X1702250Y-13270500D01*
D11*
X2154631Y-13313024D02*
X2040345Y-13313024D01*
X2097488Y-13313024D02*
X2097488Y-13113024D01*
X2097488Y-13113024D02*
X2078440Y-13141595D01*
X2078440Y-13141595D02*
X2059393Y-13160643D01*
X2059393Y-13160643D02*
X2040345Y-13170167D01*
X2240345Y-13293976D02*
X2249869Y-13303500D01*
X2249869Y-13303500D02*
X2240345Y-13313024D01*
X2240345Y-13313024D02*
X2230821Y-13303500D01*
X2230821Y-13303500D02*
X2240345Y-13293976D01*
X2240345Y-13293976D02*
X2240345Y-13313024D01*
X2373679Y-13113024D02*
X2392726Y-13113024D01*
X2392726Y-13113024D02*
X2411774Y-13122548D01*
X2411774Y-13122548D02*
X2421298Y-13132071D01*
X2421298Y-13132071D02*
X2430821Y-13151119D01*
X2430821Y-13151119D02*
X2440345Y-13189214D01*
X2440345Y-13189214D02*
X2440345Y-13236833D01*
X2440345Y-13236833D02*
X2430821Y-13274928D01*
X2430821Y-13274928D02*
X2421298Y-13293976D01*
X2421298Y-13293976D02*
X2411774Y-13303500D01*
X2411774Y-13303500D02*
X2392726Y-13313024D01*
X2392726Y-13313024D02*
X2373679Y-13313024D01*
X2373679Y-13313024D02*
X2354631Y-13303500D01*
X2354631Y-13303500D02*
X2345107Y-13293976D01*
X2345107Y-13293976D02*
X2335583Y-13274928D01*
X2335583Y-13274928D02*
X2326060Y-13236833D01*
X2326060Y-13236833D02*
X2326060Y-13189214D01*
X2326060Y-13189214D02*
X2335583Y-13151119D01*
X2335583Y-13151119D02*
X2345107Y-13132071D01*
X2345107Y-13132071D02*
X2354631Y-13122548D01*
X2354631Y-13122548D02*
X2373679Y-13113024D01*
X2564155Y-13113024D02*
X2583202Y-13113024D01*
X2583202Y-13113024D02*
X2602250Y-13122548D01*
X2602250Y-13122548D02*
X2611774Y-13132071D01*
X2611774Y-13132071D02*
X2621298Y-13151119D01*
X2621298Y-13151119D02*
X2630821Y-13189214D01*
X2630821Y-13189214D02*
X2630821Y-13236833D01*
X2630821Y-13236833D02*
X2621298Y-13274928D01*
X2621298Y-13274928D02*
X2611774Y-13293976D01*
X2611774Y-13293976D02*
X2602250Y-13303500D01*
X2602250Y-13303500D02*
X2583202Y-13313024D01*
X2583202Y-13313024D02*
X2564155Y-13313024D01*
X2564155Y-13313024D02*
X2545107Y-13303500D01*
X2545107Y-13303500D02*
X2535583Y-13293976D01*
X2535583Y-13293976D02*
X2526060Y-13274928D01*
X2526060Y-13274928D02*
X2516536Y-13236833D01*
X2516536Y-13236833D02*
X2516536Y-13189214D01*
X2516536Y-13189214D02*
X2526060Y-13151119D01*
X2526060Y-13151119D02*
X2535583Y-13132071D01*
X2535583Y-13132071D02*
X2545107Y-13122548D01*
X2545107Y-13122548D02*
X2564155Y-13113024D01*
X2754631Y-13113024D02*
X2773679Y-13113024D01*
X2773679Y-13113024D02*
X2792726Y-13122548D01*
X2792726Y-13122548D02*
X2802250Y-13132071D01*
X2802250Y-13132071D02*
X2811774Y-13151119D01*
X2811774Y-13151119D02*
X2821298Y-13189214D01*
X2821298Y-13189214D02*
X2821298Y-13236833D01*
X2821298Y-13236833D02*
X2811774Y-13274928D01*
X2811774Y-13274928D02*
X2802250Y-13293976D01*
X2802250Y-13293976D02*
X2792726Y-13303500D01*
X2792726Y-13303500D02*
X2773679Y-13313024D01*
X2773679Y-13313024D02*
X2754631Y-13313024D01*
X2754631Y-13313024D02*
X2735583Y-13303500D01*
X2735583Y-13303500D02*
X2726060Y-13293976D01*
X2726060Y-13293976D02*
X2716536Y-13274928D01*
X2716536Y-13274928D02*
X2707012Y-13236833D01*
X2707012Y-13236833D02*
X2707012Y-13189214D01*
X2707012Y-13189214D02*
X2716536Y-13151119D01*
X2716536Y-13151119D02*
X2726060Y-13132071D01*
X2726060Y-13132071D02*
X2735583Y-13122548D01*
X2735583Y-13122548D02*
X2754631Y-13113024D01*
X2907012Y-13313024D02*
X2907012Y-13179690D01*
X2907012Y-13198738D02*
X2916536Y-13189214D01*
X2916536Y-13189214D02*
X2935583Y-13179690D01*
X2935583Y-13179690D02*
X2964155Y-13179690D01*
X2964155Y-13179690D02*
X2983202Y-13189214D01*
X2983202Y-13189214D02*
X2992726Y-13208262D01*
X2992726Y-13208262D02*
X2992726Y-13313024D01*
X2992726Y-13208262D02*
X3002250Y-13189214D01*
X3002250Y-13189214D02*
X3021298Y-13179690D01*
X3021298Y-13179690D02*
X3049869Y-13179690D01*
X3049869Y-13179690D02*
X3068917Y-13189214D01*
X3068917Y-13189214D02*
X3078440Y-13208262D01*
X3078440Y-13208262D02*
X3078440Y-13313024D01*
X3173679Y-13313024D02*
X3173679Y-13179690D01*
X3173679Y-13198738D02*
X3183202Y-13189214D01*
X3183202Y-13189214D02*
X3202250Y-13179690D01*
X3202250Y-13179690D02*
X3230821Y-13179690D01*
X3230821Y-13179690D02*
X3249869Y-13189214D01*
X3249869Y-13189214D02*
X3259393Y-13208262D01*
X3259393Y-13208262D02*
X3259393Y-13313024D01*
X3259393Y-13208262D02*
X3268917Y-13189214D01*
X3268917Y-13189214D02*
X3287964Y-13179690D01*
X3287964Y-13179690D02*
X3316536Y-13179690D01*
X3316536Y-13179690D02*
X3335583Y-13189214D01*
X3335583Y-13189214D02*
X3345107Y-13208262D01*
X3345107Y-13208262D02*
X3345107Y-13313024D01*
X3735583Y-13103500D02*
X3564155Y-13360643D01*
X3992726Y-13113024D02*
X4011774Y-13113024D01*
X4011774Y-13113024D02*
X4030822Y-13122548D01*
X4030822Y-13122548D02*
X4040345Y-13132071D01*
X4040345Y-13132071D02*
X4049869Y-13151119D01*
X4049869Y-13151119D02*
X4059393Y-13189214D01*
X4059393Y-13189214D02*
X4059393Y-13236833D01*
X4059393Y-13236833D02*
X4049869Y-13274928D01*
X4049869Y-13274928D02*
X4040345Y-13293976D01*
X4040345Y-13293976D02*
X4030822Y-13303500D01*
X4030822Y-13303500D02*
X4011774Y-13313024D01*
X4011774Y-13313024D02*
X3992726Y-13313024D01*
X3992726Y-13313024D02*
X3973679Y-13303500D01*
X3973679Y-13303500D02*
X3964155Y-13293976D01*
X3964155Y-13293976D02*
X3954631Y-13274928D01*
X3954631Y-13274928D02*
X3945107Y-13236833D01*
X3945107Y-13236833D02*
X3945107Y-13189214D01*
X3945107Y-13189214D02*
X3954631Y-13151119D01*
X3954631Y-13151119D02*
X3964155Y-13132071D01*
X3964155Y-13132071D02*
X3973679Y-13122548D01*
X3973679Y-13122548D02*
X3992726Y-13113024D01*
X4145107Y-13293976D02*
X4154631Y-13303500D01*
X4154631Y-13303500D02*
X4145107Y-13313024D01*
X4145107Y-13313024D02*
X4135583Y-13303500D01*
X4135583Y-13303500D02*
X4145107Y-13293976D01*
X4145107Y-13293976D02*
X4145107Y-13313024D01*
X4278441Y-13113024D02*
X4297488Y-13113024D01*
X4297488Y-13113024D02*
X4316536Y-13122548D01*
X4316536Y-13122548D02*
X4326060Y-13132071D01*
X4326060Y-13132071D02*
X4335584Y-13151119D01*
X4335584Y-13151119D02*
X4345107Y-13189214D01*
X4345107Y-13189214D02*
X4345107Y-13236833D01*
X4345107Y-13236833D02*
X4335584Y-13274928D01*
X4335584Y-13274928D02*
X4326060Y-13293976D01*
X4326060Y-13293976D02*
X4316536Y-13303500D01*
X4316536Y-13303500D02*
X4297488Y-13313024D01*
X4297488Y-13313024D02*
X4278441Y-13313024D01*
X4278441Y-13313024D02*
X4259393Y-13303500D01*
X4259393Y-13303500D02*
X4249869Y-13293976D01*
X4249869Y-13293976D02*
X4240345Y-13274928D01*
X4240345Y-13274928D02*
X4230822Y-13236833D01*
X4230822Y-13236833D02*
X4230822Y-13189214D01*
X4230822Y-13189214D02*
X4240345Y-13151119D01*
X4240345Y-13151119D02*
X4249869Y-13132071D01*
X4249869Y-13132071D02*
X4259393Y-13122548D01*
X4259393Y-13122548D02*
X4278441Y-13113024D01*
X4411774Y-13113024D02*
X4535584Y-13113024D01*
X4535584Y-13113024D02*
X4468917Y-13189214D01*
X4468917Y-13189214D02*
X4497488Y-13189214D01*
X4497488Y-13189214D02*
X4516536Y-13198738D01*
X4516536Y-13198738D02*
X4526060Y-13208262D01*
X4526060Y-13208262D02*
X4535584Y-13227309D01*
X4535584Y-13227309D02*
X4535584Y-13274928D01*
X4535584Y-13274928D02*
X4526060Y-13293976D01*
X4526060Y-13293976D02*
X4516536Y-13303500D01*
X4516536Y-13303500D02*
X4497488Y-13313024D01*
X4497488Y-13313024D02*
X4440345Y-13313024D01*
X4440345Y-13313024D02*
X4421298Y-13303500D01*
X4421298Y-13303500D02*
X4411774Y-13293976D01*
X4630822Y-13313024D02*
X4668917Y-13313024D01*
X4668917Y-13313024D02*
X4687965Y-13303500D01*
X4687965Y-13303500D02*
X4697488Y-13293976D01*
X4697488Y-13293976D02*
X4716536Y-13265405D01*
X4716536Y-13265405D02*
X4726060Y-13227309D01*
X4726060Y-13227309D02*
X4726060Y-13151119D01*
X4726060Y-13151119D02*
X4716536Y-13132071D01*
X4716536Y-13132071D02*
X4707012Y-13122548D01*
X4707012Y-13122548D02*
X4687965Y-13113024D01*
X4687965Y-13113024D02*
X4649869Y-13113024D01*
X4649869Y-13113024D02*
X4630822Y-13122548D01*
X4630822Y-13122548D02*
X4621298Y-13132071D01*
X4621298Y-13132071D02*
X4611774Y-13151119D01*
X4611774Y-13151119D02*
X4611774Y-13198738D01*
X4611774Y-13198738D02*
X4621298Y-13217786D01*
X4621298Y-13217786D02*
X4630822Y-13227309D01*
X4630822Y-13227309D02*
X4649869Y-13236833D01*
X4649869Y-13236833D02*
X4687965Y-13236833D01*
X4687965Y-13236833D02*
X4707012Y-13227309D01*
X4707012Y-13227309D02*
X4716536Y-13217786D01*
X4716536Y-13217786D02*
X4726060Y-13198738D01*
X4897488Y-13179690D02*
X4897488Y-13313024D01*
X4849869Y-13103500D02*
X4802250Y-13246357D01*
X4802250Y-13246357D02*
X4926060Y-13246357D01*
X4992726Y-13113024D02*
X4992726Y-13151119D01*
X5068917Y-13113024D02*
X5068917Y-13151119D01*
X5364155Y-13389214D02*
X5354631Y-13379690D01*
X5354631Y-13379690D02*
X5335584Y-13351119D01*
X5335584Y-13351119D02*
X5326060Y-13332071D01*
X5326060Y-13332071D02*
X5316536Y-13303500D01*
X5316536Y-13303500D02*
X5307012Y-13255881D01*
X5307012Y-13255881D02*
X5307012Y-13217786D01*
X5307012Y-13217786D02*
X5316536Y-13170167D01*
X5316536Y-13170167D02*
X5326060Y-13141595D01*
X5326060Y-13141595D02*
X5335584Y-13122548D01*
X5335584Y-13122548D02*
X5354631Y-13093976D01*
X5354631Y-13093976D02*
X5364155Y-13084452D01*
X5430822Y-13132071D02*
X5440346Y-13122548D01*
X5440346Y-13122548D02*
X5459393Y-13113024D01*
X5459393Y-13113024D02*
X5507012Y-13113024D01*
X5507012Y-13113024D02*
X5526060Y-13122548D01*
X5526060Y-13122548D02*
X5535584Y-13132071D01*
X5535584Y-13132071D02*
X5545107Y-13151119D01*
X5545107Y-13151119D02*
X5545107Y-13170167D01*
X5545107Y-13170167D02*
X5535584Y-13198738D01*
X5535584Y-13198738D02*
X5421298Y-13313024D01*
X5421298Y-13313024D02*
X5545107Y-13313024D01*
X5783203Y-13313024D02*
X5783203Y-13113024D01*
X5868917Y-13313024D02*
X5868917Y-13208262D01*
X5868917Y-13208262D02*
X5859393Y-13189214D01*
X5859393Y-13189214D02*
X5840346Y-13179690D01*
X5840346Y-13179690D02*
X5811774Y-13179690D01*
X5811774Y-13179690D02*
X5792726Y-13189214D01*
X5792726Y-13189214D02*
X5783203Y-13198738D01*
X5992726Y-13313024D02*
X5973679Y-13303500D01*
X5973679Y-13303500D02*
X5964155Y-13293976D01*
X5964155Y-13293976D02*
X5954631Y-13274928D01*
X5954631Y-13274928D02*
X5954631Y-13217786D01*
X5954631Y-13217786D02*
X5964155Y-13198738D01*
X5964155Y-13198738D02*
X5973679Y-13189214D01*
X5973679Y-13189214D02*
X5992726Y-13179690D01*
X5992726Y-13179690D02*
X6021298Y-13179690D01*
X6021298Y-13179690D02*
X6040346Y-13189214D01*
X6040346Y-13189214D02*
X6049869Y-13198738D01*
X6049869Y-13198738D02*
X6059393Y-13217786D01*
X6059393Y-13217786D02*
X6059393Y-13274928D01*
X6059393Y-13274928D02*
X6049869Y-13293976D01*
X6049869Y-13293976D02*
X6040346Y-13303500D01*
X6040346Y-13303500D02*
X6021298Y-13313024D01*
X6021298Y-13313024D02*
X5992726Y-13313024D01*
X6173679Y-13313024D02*
X6154631Y-13303500D01*
X6154631Y-13303500D02*
X6145107Y-13284452D01*
X6145107Y-13284452D02*
X6145107Y-13113024D01*
X6326060Y-13303500D02*
X6307012Y-13313024D01*
X6307012Y-13313024D02*
X6268917Y-13313024D01*
X6268917Y-13313024D02*
X6249869Y-13303500D01*
X6249869Y-13303500D02*
X6240346Y-13284452D01*
X6240346Y-13284452D02*
X6240346Y-13208262D01*
X6240346Y-13208262D02*
X6249869Y-13189214D01*
X6249869Y-13189214D02*
X6268917Y-13179690D01*
X6268917Y-13179690D02*
X6307012Y-13179690D01*
X6307012Y-13179690D02*
X6326060Y-13189214D01*
X6326060Y-13189214D02*
X6335584Y-13208262D01*
X6335584Y-13208262D02*
X6335584Y-13227309D01*
X6335584Y-13227309D02*
X6240346Y-13246357D01*
X6411774Y-13303500D02*
X6430822Y-13313024D01*
X6430822Y-13313024D02*
X6468917Y-13313024D01*
X6468917Y-13313024D02*
X6487965Y-13303500D01*
X6487965Y-13303500D02*
X6497488Y-13284452D01*
X6497488Y-13284452D02*
X6497488Y-13274928D01*
X6497488Y-13274928D02*
X6487965Y-13255881D01*
X6487965Y-13255881D02*
X6468917Y-13246357D01*
X6468917Y-13246357D02*
X6440346Y-13246357D01*
X6440346Y-13246357D02*
X6421298Y-13236833D01*
X6421298Y-13236833D02*
X6411774Y-13217786D01*
X6411774Y-13217786D02*
X6411774Y-13208262D01*
X6411774Y-13208262D02*
X6421298Y-13189214D01*
X6421298Y-13189214D02*
X6440346Y-13179690D01*
X6440346Y-13179690D02*
X6468917Y-13179690D01*
X6468917Y-13179690D02*
X6487965Y-13189214D01*
X6564155Y-13389214D02*
X6573679Y-13379690D01*
X6573679Y-13379690D02*
X6592727Y-13351119D01*
X6592727Y-13351119D02*
X6602250Y-13332071D01*
X6602250Y-13332071D02*
X6611774Y-13303500D01*
X6611774Y-13303500D02*
X6621298Y-13255881D01*
X6621298Y-13255881D02*
X6621298Y-13217786D01*
X6621298Y-13217786D02*
X6611774Y-13170167D01*
X6611774Y-13170167D02*
X6602250Y-13141595D01*
X6602250Y-13141595D02*
X6592727Y-13122548D01*
X6592727Y-13122548D02*
X6573679Y-13093976D01*
X6573679Y-13093976D02*
X6564155Y-13084452D01*
X6926060Y-13389214D02*
X6916536Y-13379690D01*
X6916536Y-13379690D02*
X6897488Y-13351119D01*
X6897488Y-13351119D02*
X6887965Y-13332071D01*
X6887965Y-13332071D02*
X6878441Y-13303500D01*
X6878441Y-13303500D02*
X6868917Y-13255881D01*
X6868917Y-13255881D02*
X6868917Y-13217786D01*
X6868917Y-13217786D02*
X6878441Y-13170167D01*
X6878441Y-13170167D02*
X6887965Y-13141595D01*
X6887965Y-13141595D02*
X6897488Y-13122548D01*
X6897488Y-13122548D02*
X6916536Y-13093976D01*
X6916536Y-13093976D02*
X6926060Y-13084452D01*
X7002250Y-13179690D02*
X7002250Y-13313024D01*
X7002250Y-13198738D02*
X7011774Y-13189214D01*
X7011774Y-13189214D02*
X7030822Y-13179690D01*
X7030822Y-13179690D02*
X7059393Y-13179690D01*
X7059393Y-13179690D02*
X7078441Y-13189214D01*
X7078441Y-13189214D02*
X7087965Y-13208262D01*
X7087965Y-13208262D02*
X7087965Y-13313024D01*
X7211774Y-13313024D02*
X7192727Y-13303500D01*
X7192727Y-13303500D02*
X7183203Y-13293976D01*
X7183203Y-13293976D02*
X7173679Y-13274928D01*
X7173679Y-13274928D02*
X7173679Y-13217786D01*
X7173679Y-13217786D02*
X7183203Y-13198738D01*
X7183203Y-13198738D02*
X7192727Y-13189214D01*
X7192727Y-13189214D02*
X7211774Y-13179690D01*
X7211774Y-13179690D02*
X7240346Y-13179690D01*
X7240346Y-13179690D02*
X7259393Y-13189214D01*
X7259393Y-13189214D02*
X7268917Y-13198738D01*
X7268917Y-13198738D02*
X7278441Y-13217786D01*
X7278441Y-13217786D02*
X7278441Y-13274928D01*
X7278441Y-13274928D02*
X7268917Y-13293976D01*
X7268917Y-13293976D02*
X7259393Y-13303500D01*
X7259393Y-13303500D02*
X7240346Y-13313024D01*
X7240346Y-13313024D02*
X7211774Y-13313024D01*
X7335584Y-13179690D02*
X7411774Y-13179690D01*
X7364155Y-13113024D02*
X7364155Y-13284452D01*
X7364155Y-13284452D02*
X7373679Y-13303500D01*
X7373679Y-13303500D02*
X7392727Y-13313024D01*
X7392727Y-13313024D02*
X7411774Y-13313024D01*
X7630822Y-13179690D02*
X7630822Y-13379690D01*
X7630822Y-13189214D02*
X7649869Y-13179690D01*
X7649869Y-13179690D02*
X7687965Y-13179690D01*
X7687965Y-13179690D02*
X7707012Y-13189214D01*
X7707012Y-13189214D02*
X7716536Y-13198738D01*
X7716536Y-13198738D02*
X7726060Y-13217786D01*
X7726060Y-13217786D02*
X7726060Y-13274928D01*
X7726060Y-13274928D02*
X7716536Y-13293976D01*
X7716536Y-13293976D02*
X7707012Y-13303500D01*
X7707012Y-13303500D02*
X7687965Y-13313024D01*
X7687965Y-13313024D02*
X7649869Y-13313024D01*
X7649869Y-13313024D02*
X7630822Y-13303500D01*
X7840346Y-13313024D02*
X7821298Y-13303500D01*
X7821298Y-13303500D02*
X7811774Y-13284452D01*
X7811774Y-13284452D02*
X7811774Y-13113024D01*
X8002250Y-13313024D02*
X8002250Y-13208262D01*
X8002250Y-13208262D02*
X7992727Y-13189214D01*
X7992727Y-13189214D02*
X7973679Y-13179690D01*
X7973679Y-13179690D02*
X7935584Y-13179690D01*
X7935584Y-13179690D02*
X7916536Y-13189214D01*
X8002250Y-13303500D02*
X7983203Y-13313024D01*
X7983203Y-13313024D02*
X7935584Y-13313024D01*
X7935584Y-13313024D02*
X7916536Y-13303500D01*
X7916536Y-13303500D02*
X7907012Y-13284452D01*
X7907012Y-13284452D02*
X7907012Y-13265405D01*
X7907012Y-13265405D02*
X7916536Y-13246357D01*
X7916536Y-13246357D02*
X7935584Y-13236833D01*
X7935584Y-13236833D02*
X7983203Y-13236833D01*
X7983203Y-13236833D02*
X8002250Y-13227309D01*
X8068917Y-13179690D02*
X8145108Y-13179690D01*
X8097489Y-13113024D02*
X8097489Y-13284452D01*
X8097489Y-13284452D02*
X8107012Y-13303500D01*
X8107012Y-13303500D02*
X8126060Y-13313024D01*
X8126060Y-13313024D02*
X8145108Y-13313024D01*
X8287965Y-13303500D02*
X8268917Y-13313024D01*
X8268917Y-13313024D02*
X8230822Y-13313024D01*
X8230822Y-13313024D02*
X8211774Y-13303500D01*
X8211774Y-13303500D02*
X8202250Y-13284452D01*
X8202250Y-13284452D02*
X8202250Y-13208262D01*
X8202250Y-13208262D02*
X8211774Y-13189214D01*
X8211774Y-13189214D02*
X8230822Y-13179690D01*
X8230822Y-13179690D02*
X8268917Y-13179690D01*
X8268917Y-13179690D02*
X8287965Y-13189214D01*
X8287965Y-13189214D02*
X8297489Y-13208262D01*
X8297489Y-13208262D02*
X8297489Y-13227309D01*
X8297489Y-13227309D02*
X8202250Y-13246357D01*
X8468917Y-13313024D02*
X8468917Y-13113024D01*
X8468917Y-13303500D02*
X8449870Y-13313024D01*
X8449870Y-13313024D02*
X8411774Y-13313024D01*
X8411774Y-13313024D02*
X8392727Y-13303500D01*
X8392727Y-13303500D02*
X8383203Y-13293976D01*
X8383203Y-13293976D02*
X8373679Y-13274928D01*
X8373679Y-13274928D02*
X8373679Y-13217786D01*
X8373679Y-13217786D02*
X8383203Y-13198738D01*
X8383203Y-13198738D02*
X8392727Y-13189214D01*
X8392727Y-13189214D02*
X8411774Y-13179690D01*
X8411774Y-13179690D02*
X8449870Y-13179690D01*
X8449870Y-13179690D02*
X8468917Y-13189214D01*
X8545108Y-13389214D02*
X8554632Y-13379690D01*
X8554632Y-13379690D02*
X8573679Y-13351119D01*
X8573679Y-13351119D02*
X8583203Y-13332071D01*
X8583203Y-13332071D02*
X8592727Y-13303500D01*
X8592727Y-13303500D02*
X8602251Y-13255881D01*
X8602251Y-13255881D02*
X8602251Y-13217786D01*
X8602251Y-13217786D02*
X8592727Y-13170167D01*
X8592727Y-13170167D02*
X8583203Y-13141595D01*
X8583203Y-13141595D02*
X8573679Y-13122548D01*
X8573679Y-13122548D02*
X8554632Y-13093976D01*
X8554632Y-13093976D02*
X8545108Y-13084452D01*
X1802250Y-13484500D02*
G75*
G03*
X1802250Y-13484500I-100000J0D01*
G01*
X2040345Y-13396071D02*
X2049869Y-13386548D01*
X2049869Y-13386548D02*
X2068917Y-13377024D01*
X2068917Y-13377024D02*
X2116536Y-13377024D01*
X2116536Y-13377024D02*
X2135583Y-13386548D01*
X2135583Y-13386548D02*
X2145107Y-13396071D01*
X2145107Y-13396071D02*
X2154631Y-13415119D01*
X2154631Y-13415119D02*
X2154631Y-13434167D01*
X2154631Y-13434167D02*
X2145107Y-13462738D01*
X2145107Y-13462738D02*
X2030821Y-13577024D01*
X2030821Y-13577024D02*
X2154631Y-13577024D01*
X2240345Y-13557976D02*
X2249869Y-13567500D01*
X2249869Y-13567500D02*
X2240345Y-13577024D01*
X2240345Y-13577024D02*
X2230821Y-13567500D01*
X2230821Y-13567500D02*
X2240345Y-13557976D01*
X2240345Y-13557976D02*
X2240345Y-13577024D01*
X2430821Y-13377024D02*
X2335583Y-13377024D01*
X2335583Y-13377024D02*
X2326060Y-13472262D01*
X2326060Y-13472262D02*
X2335583Y-13462738D01*
X2335583Y-13462738D02*
X2354631Y-13453214D01*
X2354631Y-13453214D02*
X2402250Y-13453214D01*
X2402250Y-13453214D02*
X2421298Y-13462738D01*
X2421298Y-13462738D02*
X2430821Y-13472262D01*
X2430821Y-13472262D02*
X2440345Y-13491309D01*
X2440345Y-13491309D02*
X2440345Y-13538928D01*
X2440345Y-13538928D02*
X2430821Y-13557976D01*
X2430821Y-13557976D02*
X2421298Y-13567500D01*
X2421298Y-13567500D02*
X2402250Y-13577024D01*
X2402250Y-13577024D02*
X2354631Y-13577024D01*
X2354631Y-13577024D02*
X2335583Y-13567500D01*
X2335583Y-13567500D02*
X2326060Y-13557976D01*
X2564155Y-13377024D02*
X2583202Y-13377024D01*
X2583202Y-13377024D02*
X2602250Y-13386548D01*
X2602250Y-13386548D02*
X2611774Y-13396071D01*
X2611774Y-13396071D02*
X2621298Y-13415119D01*
X2621298Y-13415119D02*
X2630821Y-13453214D01*
X2630821Y-13453214D02*
X2630821Y-13500833D01*
X2630821Y-13500833D02*
X2621298Y-13538928D01*
X2621298Y-13538928D02*
X2611774Y-13557976D01*
X2611774Y-13557976D02*
X2602250Y-13567500D01*
X2602250Y-13567500D02*
X2583202Y-13577024D01*
X2583202Y-13577024D02*
X2564155Y-13577024D01*
X2564155Y-13577024D02*
X2545107Y-13567500D01*
X2545107Y-13567500D02*
X2535583Y-13557976D01*
X2535583Y-13557976D02*
X2526060Y-13538928D01*
X2526060Y-13538928D02*
X2516536Y-13500833D01*
X2516536Y-13500833D02*
X2516536Y-13453214D01*
X2516536Y-13453214D02*
X2526060Y-13415119D01*
X2526060Y-13415119D02*
X2535583Y-13396071D01*
X2535583Y-13396071D02*
X2545107Y-13386548D01*
X2545107Y-13386548D02*
X2564155Y-13377024D01*
X2754631Y-13377024D02*
X2773679Y-13377024D01*
X2773679Y-13377024D02*
X2792726Y-13386548D01*
X2792726Y-13386548D02*
X2802250Y-13396071D01*
X2802250Y-13396071D02*
X2811774Y-13415119D01*
X2811774Y-13415119D02*
X2821298Y-13453214D01*
X2821298Y-13453214D02*
X2821298Y-13500833D01*
X2821298Y-13500833D02*
X2811774Y-13538928D01*
X2811774Y-13538928D02*
X2802250Y-13557976D01*
X2802250Y-13557976D02*
X2792726Y-13567500D01*
X2792726Y-13567500D02*
X2773679Y-13577024D01*
X2773679Y-13577024D02*
X2754631Y-13577024D01*
X2754631Y-13577024D02*
X2735583Y-13567500D01*
X2735583Y-13567500D02*
X2726060Y-13557976D01*
X2726060Y-13557976D02*
X2716536Y-13538928D01*
X2716536Y-13538928D02*
X2707012Y-13500833D01*
X2707012Y-13500833D02*
X2707012Y-13453214D01*
X2707012Y-13453214D02*
X2716536Y-13415119D01*
X2716536Y-13415119D02*
X2726060Y-13396071D01*
X2726060Y-13396071D02*
X2735583Y-13386548D01*
X2735583Y-13386548D02*
X2754631Y-13377024D01*
X2907012Y-13577024D02*
X2907012Y-13443690D01*
X2907012Y-13462738D02*
X2916536Y-13453214D01*
X2916536Y-13453214D02*
X2935583Y-13443690D01*
X2935583Y-13443690D02*
X2964155Y-13443690D01*
X2964155Y-13443690D02*
X2983202Y-13453214D01*
X2983202Y-13453214D02*
X2992726Y-13472262D01*
X2992726Y-13472262D02*
X2992726Y-13577024D01*
X2992726Y-13472262D02*
X3002250Y-13453214D01*
X3002250Y-13453214D02*
X3021298Y-13443690D01*
X3021298Y-13443690D02*
X3049869Y-13443690D01*
X3049869Y-13443690D02*
X3068917Y-13453214D01*
X3068917Y-13453214D02*
X3078440Y-13472262D01*
X3078440Y-13472262D02*
X3078440Y-13577024D01*
X3173679Y-13577024D02*
X3173679Y-13443690D01*
X3173679Y-13462738D02*
X3183202Y-13453214D01*
X3183202Y-13453214D02*
X3202250Y-13443690D01*
X3202250Y-13443690D02*
X3230821Y-13443690D01*
X3230821Y-13443690D02*
X3249869Y-13453214D01*
X3249869Y-13453214D02*
X3259393Y-13472262D01*
X3259393Y-13472262D02*
X3259393Y-13577024D01*
X3259393Y-13472262D02*
X3268917Y-13453214D01*
X3268917Y-13453214D02*
X3287964Y-13443690D01*
X3287964Y-13443690D02*
X3316536Y-13443690D01*
X3316536Y-13443690D02*
X3335583Y-13453214D01*
X3335583Y-13453214D02*
X3345107Y-13472262D01*
X3345107Y-13472262D02*
X3345107Y-13577024D01*
X3735583Y-13367500D02*
X3564155Y-13624643D01*
X3992726Y-13377024D02*
X4011774Y-13377024D01*
X4011774Y-13377024D02*
X4030822Y-13386548D01*
X4030822Y-13386548D02*
X4040345Y-13396071D01*
X4040345Y-13396071D02*
X4049869Y-13415119D01*
X4049869Y-13415119D02*
X4059393Y-13453214D01*
X4059393Y-13453214D02*
X4059393Y-13500833D01*
X4059393Y-13500833D02*
X4049869Y-13538928D01*
X4049869Y-13538928D02*
X4040345Y-13557976D01*
X4040345Y-13557976D02*
X4030822Y-13567500D01*
X4030822Y-13567500D02*
X4011774Y-13577024D01*
X4011774Y-13577024D02*
X3992726Y-13577024D01*
X3992726Y-13577024D02*
X3973679Y-13567500D01*
X3973679Y-13567500D02*
X3964155Y-13557976D01*
X3964155Y-13557976D02*
X3954631Y-13538928D01*
X3954631Y-13538928D02*
X3945107Y-13500833D01*
X3945107Y-13500833D02*
X3945107Y-13453214D01*
X3945107Y-13453214D02*
X3954631Y-13415119D01*
X3954631Y-13415119D02*
X3964155Y-13396071D01*
X3964155Y-13396071D02*
X3973679Y-13386548D01*
X3973679Y-13386548D02*
X3992726Y-13377024D01*
X4145107Y-13557976D02*
X4154631Y-13567500D01*
X4154631Y-13567500D02*
X4145107Y-13577024D01*
X4145107Y-13577024D02*
X4135583Y-13567500D01*
X4135583Y-13567500D02*
X4145107Y-13557976D01*
X4145107Y-13557976D02*
X4145107Y-13577024D01*
X4278441Y-13377024D02*
X4297488Y-13377024D01*
X4297488Y-13377024D02*
X4316536Y-13386548D01*
X4316536Y-13386548D02*
X4326060Y-13396071D01*
X4326060Y-13396071D02*
X4335584Y-13415119D01*
X4335584Y-13415119D02*
X4345107Y-13453214D01*
X4345107Y-13453214D02*
X4345107Y-13500833D01*
X4345107Y-13500833D02*
X4335584Y-13538928D01*
X4335584Y-13538928D02*
X4326060Y-13557976D01*
X4326060Y-13557976D02*
X4316536Y-13567500D01*
X4316536Y-13567500D02*
X4297488Y-13577024D01*
X4297488Y-13577024D02*
X4278441Y-13577024D01*
X4278441Y-13577024D02*
X4259393Y-13567500D01*
X4259393Y-13567500D02*
X4249869Y-13557976D01*
X4249869Y-13557976D02*
X4240345Y-13538928D01*
X4240345Y-13538928D02*
X4230822Y-13500833D01*
X4230822Y-13500833D02*
X4230822Y-13453214D01*
X4230822Y-13453214D02*
X4240345Y-13415119D01*
X4240345Y-13415119D02*
X4249869Y-13396071D01*
X4249869Y-13396071D02*
X4259393Y-13386548D01*
X4259393Y-13386548D02*
X4278441Y-13377024D01*
X4440345Y-13577024D02*
X4478441Y-13577024D01*
X4478441Y-13577024D02*
X4497488Y-13567500D01*
X4497488Y-13567500D02*
X4507012Y-13557976D01*
X4507012Y-13557976D02*
X4526060Y-13529405D01*
X4526060Y-13529405D02*
X4535584Y-13491309D01*
X4535584Y-13491309D02*
X4535584Y-13415119D01*
X4535584Y-13415119D02*
X4526060Y-13396071D01*
X4526060Y-13396071D02*
X4516536Y-13386548D01*
X4516536Y-13386548D02*
X4497488Y-13377024D01*
X4497488Y-13377024D02*
X4459393Y-13377024D01*
X4459393Y-13377024D02*
X4440345Y-13386548D01*
X4440345Y-13386548D02*
X4430822Y-13396071D01*
X4430822Y-13396071D02*
X4421298Y-13415119D01*
X4421298Y-13415119D02*
X4421298Y-13462738D01*
X4421298Y-13462738D02*
X4430822Y-13481786D01*
X4430822Y-13481786D02*
X4440345Y-13491309D01*
X4440345Y-13491309D02*
X4459393Y-13500833D01*
X4459393Y-13500833D02*
X4497488Y-13500833D01*
X4497488Y-13500833D02*
X4516536Y-13491309D01*
X4516536Y-13491309D02*
X4526060Y-13481786D01*
X4526060Y-13481786D02*
X4535584Y-13462738D01*
X4649869Y-13462738D02*
X4630822Y-13453214D01*
X4630822Y-13453214D02*
X4621298Y-13443690D01*
X4621298Y-13443690D02*
X4611774Y-13424643D01*
X4611774Y-13424643D02*
X4611774Y-13415119D01*
X4611774Y-13415119D02*
X4621298Y-13396071D01*
X4621298Y-13396071D02*
X4630822Y-13386548D01*
X4630822Y-13386548D02*
X4649869Y-13377024D01*
X4649869Y-13377024D02*
X4687965Y-13377024D01*
X4687965Y-13377024D02*
X4707012Y-13386548D01*
X4707012Y-13386548D02*
X4716536Y-13396071D01*
X4716536Y-13396071D02*
X4726060Y-13415119D01*
X4726060Y-13415119D02*
X4726060Y-13424643D01*
X4726060Y-13424643D02*
X4716536Y-13443690D01*
X4716536Y-13443690D02*
X4707012Y-13453214D01*
X4707012Y-13453214D02*
X4687965Y-13462738D01*
X4687965Y-13462738D02*
X4649869Y-13462738D01*
X4649869Y-13462738D02*
X4630822Y-13472262D01*
X4630822Y-13472262D02*
X4621298Y-13481786D01*
X4621298Y-13481786D02*
X4611774Y-13500833D01*
X4611774Y-13500833D02*
X4611774Y-13538928D01*
X4611774Y-13538928D02*
X4621298Y-13557976D01*
X4621298Y-13557976D02*
X4630822Y-13567500D01*
X4630822Y-13567500D02*
X4649869Y-13577024D01*
X4649869Y-13577024D02*
X4687965Y-13577024D01*
X4687965Y-13577024D02*
X4707012Y-13567500D01*
X4707012Y-13567500D02*
X4716536Y-13557976D01*
X4716536Y-13557976D02*
X4726060Y-13538928D01*
X4726060Y-13538928D02*
X4726060Y-13500833D01*
X4726060Y-13500833D02*
X4716536Y-13481786D01*
X4716536Y-13481786D02*
X4707012Y-13472262D01*
X4707012Y-13472262D02*
X4687965Y-13462738D01*
X4897488Y-13443690D02*
X4897488Y-13577024D01*
X4849869Y-13367500D02*
X4802250Y-13510357D01*
X4802250Y-13510357D02*
X4926060Y-13510357D01*
X4992726Y-13377024D02*
X4992726Y-13415119D01*
X5068917Y-13377024D02*
X5068917Y-13415119D01*
X5364155Y-13653214D02*
X5354631Y-13643690D01*
X5354631Y-13643690D02*
X5335584Y-13615119D01*
X5335584Y-13615119D02*
X5326060Y-13596071D01*
X5326060Y-13596071D02*
X5316536Y-13567500D01*
X5316536Y-13567500D02*
X5307012Y-13519881D01*
X5307012Y-13519881D02*
X5307012Y-13481786D01*
X5307012Y-13481786D02*
X5316536Y-13434167D01*
X5316536Y-13434167D02*
X5326060Y-13405595D01*
X5326060Y-13405595D02*
X5335584Y-13386548D01*
X5335584Y-13386548D02*
X5354631Y-13357976D01*
X5354631Y-13357976D02*
X5364155Y-13348452D01*
X5421298Y-13377024D02*
X5545107Y-13377024D01*
X5545107Y-13377024D02*
X5478441Y-13453214D01*
X5478441Y-13453214D02*
X5507012Y-13453214D01*
X5507012Y-13453214D02*
X5526060Y-13462738D01*
X5526060Y-13462738D02*
X5535584Y-13472262D01*
X5535584Y-13472262D02*
X5545107Y-13491309D01*
X5545107Y-13491309D02*
X5545107Y-13538928D01*
X5545107Y-13538928D02*
X5535584Y-13557976D01*
X5535584Y-13557976D02*
X5526060Y-13567500D01*
X5526060Y-13567500D02*
X5507012Y-13577024D01*
X5507012Y-13577024D02*
X5449869Y-13577024D01*
X5449869Y-13577024D02*
X5430822Y-13567500D01*
X5430822Y-13567500D02*
X5421298Y-13557976D01*
X5783203Y-13577024D02*
X5783203Y-13377024D01*
X5868917Y-13577024D02*
X5868917Y-13472262D01*
X5868917Y-13472262D02*
X5859393Y-13453214D01*
X5859393Y-13453214D02*
X5840346Y-13443690D01*
X5840346Y-13443690D02*
X5811774Y-13443690D01*
X5811774Y-13443690D02*
X5792726Y-13453214D01*
X5792726Y-13453214D02*
X5783203Y-13462738D01*
X5992726Y-13577024D02*
X5973679Y-13567500D01*
X5973679Y-13567500D02*
X5964155Y-13557976D01*
X5964155Y-13557976D02*
X5954631Y-13538928D01*
X5954631Y-13538928D02*
X5954631Y-13481786D01*
X5954631Y-13481786D02*
X5964155Y-13462738D01*
X5964155Y-13462738D02*
X5973679Y-13453214D01*
X5973679Y-13453214D02*
X5992726Y-13443690D01*
X5992726Y-13443690D02*
X6021298Y-13443690D01*
X6021298Y-13443690D02*
X6040346Y-13453214D01*
X6040346Y-13453214D02*
X6049869Y-13462738D01*
X6049869Y-13462738D02*
X6059393Y-13481786D01*
X6059393Y-13481786D02*
X6059393Y-13538928D01*
X6059393Y-13538928D02*
X6049869Y-13557976D01*
X6049869Y-13557976D02*
X6040346Y-13567500D01*
X6040346Y-13567500D02*
X6021298Y-13577024D01*
X6021298Y-13577024D02*
X5992726Y-13577024D01*
X6173679Y-13577024D02*
X6154631Y-13567500D01*
X6154631Y-13567500D02*
X6145107Y-13548452D01*
X6145107Y-13548452D02*
X6145107Y-13377024D01*
X6326060Y-13567500D02*
X6307012Y-13577024D01*
X6307012Y-13577024D02*
X6268917Y-13577024D01*
X6268917Y-13577024D02*
X6249869Y-13567500D01*
X6249869Y-13567500D02*
X6240346Y-13548452D01*
X6240346Y-13548452D02*
X6240346Y-13472262D01*
X6240346Y-13472262D02*
X6249869Y-13453214D01*
X6249869Y-13453214D02*
X6268917Y-13443690D01*
X6268917Y-13443690D02*
X6307012Y-13443690D01*
X6307012Y-13443690D02*
X6326060Y-13453214D01*
X6326060Y-13453214D02*
X6335584Y-13472262D01*
X6335584Y-13472262D02*
X6335584Y-13491309D01*
X6335584Y-13491309D02*
X6240346Y-13510357D01*
X6411774Y-13567500D02*
X6430822Y-13577024D01*
X6430822Y-13577024D02*
X6468917Y-13577024D01*
X6468917Y-13577024D02*
X6487965Y-13567500D01*
X6487965Y-13567500D02*
X6497488Y-13548452D01*
X6497488Y-13548452D02*
X6497488Y-13538928D01*
X6497488Y-13538928D02*
X6487965Y-13519881D01*
X6487965Y-13519881D02*
X6468917Y-13510357D01*
X6468917Y-13510357D02*
X6440346Y-13510357D01*
X6440346Y-13510357D02*
X6421298Y-13500833D01*
X6421298Y-13500833D02*
X6411774Y-13481786D01*
X6411774Y-13481786D02*
X6411774Y-13472262D01*
X6411774Y-13472262D02*
X6421298Y-13453214D01*
X6421298Y-13453214D02*
X6440346Y-13443690D01*
X6440346Y-13443690D02*
X6468917Y-13443690D01*
X6468917Y-13443690D02*
X6487965Y-13453214D01*
X6564155Y-13653214D02*
X6573679Y-13643690D01*
X6573679Y-13643690D02*
X6592727Y-13615119D01*
X6592727Y-13615119D02*
X6602250Y-13596071D01*
X6602250Y-13596071D02*
X6611774Y-13567500D01*
X6611774Y-13567500D02*
X6621298Y-13519881D01*
X6621298Y-13519881D02*
X6621298Y-13481786D01*
X6621298Y-13481786D02*
X6611774Y-13434167D01*
X6611774Y-13434167D02*
X6602250Y-13405595D01*
X6602250Y-13405595D02*
X6592727Y-13386548D01*
X6592727Y-13386548D02*
X6573679Y-13357976D01*
X6573679Y-13357976D02*
X6564155Y-13348452D01*
X6926060Y-13653214D02*
X6916536Y-13643690D01*
X6916536Y-13643690D02*
X6897488Y-13615119D01*
X6897488Y-13615119D02*
X6887965Y-13596071D01*
X6887965Y-13596071D02*
X6878441Y-13567500D01*
X6878441Y-13567500D02*
X6868917Y-13519881D01*
X6868917Y-13519881D02*
X6868917Y-13481786D01*
X6868917Y-13481786D02*
X6878441Y-13434167D01*
X6878441Y-13434167D02*
X6887965Y-13405595D01*
X6887965Y-13405595D02*
X6897488Y-13386548D01*
X6897488Y-13386548D02*
X6916536Y-13357976D01*
X6916536Y-13357976D02*
X6926060Y-13348452D01*
X7002250Y-13443690D02*
X7002250Y-13577024D01*
X7002250Y-13462738D02*
X7011774Y-13453214D01*
X7011774Y-13453214D02*
X7030822Y-13443690D01*
X7030822Y-13443690D02*
X7059393Y-13443690D01*
X7059393Y-13443690D02*
X7078441Y-13453214D01*
X7078441Y-13453214D02*
X7087965Y-13472262D01*
X7087965Y-13472262D02*
X7087965Y-13577024D01*
X7211774Y-13577024D02*
X7192727Y-13567500D01*
X7192727Y-13567500D02*
X7183203Y-13557976D01*
X7183203Y-13557976D02*
X7173679Y-13538928D01*
X7173679Y-13538928D02*
X7173679Y-13481786D01*
X7173679Y-13481786D02*
X7183203Y-13462738D01*
X7183203Y-13462738D02*
X7192727Y-13453214D01*
X7192727Y-13453214D02*
X7211774Y-13443690D01*
X7211774Y-13443690D02*
X7240346Y-13443690D01*
X7240346Y-13443690D02*
X7259393Y-13453214D01*
X7259393Y-13453214D02*
X7268917Y-13462738D01*
X7268917Y-13462738D02*
X7278441Y-13481786D01*
X7278441Y-13481786D02*
X7278441Y-13538928D01*
X7278441Y-13538928D02*
X7268917Y-13557976D01*
X7268917Y-13557976D02*
X7259393Y-13567500D01*
X7259393Y-13567500D02*
X7240346Y-13577024D01*
X7240346Y-13577024D02*
X7211774Y-13577024D01*
X7335584Y-13443690D02*
X7411774Y-13443690D01*
X7364155Y-13377024D02*
X7364155Y-13548452D01*
X7364155Y-13548452D02*
X7373679Y-13567500D01*
X7373679Y-13567500D02*
X7392727Y-13577024D01*
X7392727Y-13577024D02*
X7411774Y-13577024D01*
X7630822Y-13443690D02*
X7630822Y-13643690D01*
X7630822Y-13453214D02*
X7649869Y-13443690D01*
X7649869Y-13443690D02*
X7687965Y-13443690D01*
X7687965Y-13443690D02*
X7707012Y-13453214D01*
X7707012Y-13453214D02*
X7716536Y-13462738D01*
X7716536Y-13462738D02*
X7726060Y-13481786D01*
X7726060Y-13481786D02*
X7726060Y-13538928D01*
X7726060Y-13538928D02*
X7716536Y-13557976D01*
X7716536Y-13557976D02*
X7707012Y-13567500D01*
X7707012Y-13567500D02*
X7687965Y-13577024D01*
X7687965Y-13577024D02*
X7649869Y-13577024D01*
X7649869Y-13577024D02*
X7630822Y-13567500D01*
X7840346Y-13577024D02*
X7821298Y-13567500D01*
X7821298Y-13567500D02*
X7811774Y-13548452D01*
X7811774Y-13548452D02*
X7811774Y-13377024D01*
X8002250Y-13577024D02*
X8002250Y-13472262D01*
X8002250Y-13472262D02*
X7992727Y-13453214D01*
X7992727Y-13453214D02*
X7973679Y-13443690D01*
X7973679Y-13443690D02*
X7935584Y-13443690D01*
X7935584Y-13443690D02*
X7916536Y-13453214D01*
X8002250Y-13567500D02*
X7983203Y-13577024D01*
X7983203Y-13577024D02*
X7935584Y-13577024D01*
X7935584Y-13577024D02*
X7916536Y-13567500D01*
X7916536Y-13567500D02*
X7907012Y-13548452D01*
X7907012Y-13548452D02*
X7907012Y-13529405D01*
X7907012Y-13529405D02*
X7916536Y-13510357D01*
X7916536Y-13510357D02*
X7935584Y-13500833D01*
X7935584Y-13500833D02*
X7983203Y-13500833D01*
X7983203Y-13500833D02*
X8002250Y-13491309D01*
X8068917Y-13443690D02*
X8145108Y-13443690D01*
X8097489Y-13377024D02*
X8097489Y-13548452D01*
X8097489Y-13548452D02*
X8107012Y-13567500D01*
X8107012Y-13567500D02*
X8126060Y-13577024D01*
X8126060Y-13577024D02*
X8145108Y-13577024D01*
X8287965Y-13567500D02*
X8268917Y-13577024D01*
X8268917Y-13577024D02*
X8230822Y-13577024D01*
X8230822Y-13577024D02*
X8211774Y-13567500D01*
X8211774Y-13567500D02*
X8202250Y-13548452D01*
X8202250Y-13548452D02*
X8202250Y-13472262D01*
X8202250Y-13472262D02*
X8211774Y-13453214D01*
X8211774Y-13453214D02*
X8230822Y-13443690D01*
X8230822Y-13443690D02*
X8268917Y-13443690D01*
X8268917Y-13443690D02*
X8287965Y-13453214D01*
X8287965Y-13453214D02*
X8297489Y-13472262D01*
X8297489Y-13472262D02*
X8297489Y-13491309D01*
X8297489Y-13491309D02*
X8202250Y-13510357D01*
X8468917Y-13577024D02*
X8468917Y-13377024D01*
X8468917Y-13567500D02*
X8449870Y-13577024D01*
X8449870Y-13577024D02*
X8411774Y-13577024D01*
X8411774Y-13577024D02*
X8392727Y-13567500D01*
X8392727Y-13567500D02*
X8383203Y-13557976D01*
X8383203Y-13557976D02*
X8373679Y-13538928D01*
X8373679Y-13538928D02*
X8373679Y-13481786D01*
X8373679Y-13481786D02*
X8383203Y-13462738D01*
X8383203Y-13462738D02*
X8392727Y-13453214D01*
X8392727Y-13453214D02*
X8411774Y-13443690D01*
X8411774Y-13443690D02*
X8449870Y-13443690D01*
X8449870Y-13443690D02*
X8468917Y-13453214D01*
X8545108Y-13653214D02*
X8554632Y-13643690D01*
X8554632Y-13643690D02*
X8573679Y-13615119D01*
X8573679Y-13615119D02*
X8583203Y-13596071D01*
X8583203Y-13596071D02*
X8592727Y-13567500D01*
X8592727Y-13567500D02*
X8602251Y-13519881D01*
X8602251Y-13519881D02*
X8602251Y-13481786D01*
X8602251Y-13481786D02*
X8592727Y-13434167D01*
X8592727Y-13434167D02*
X8583203Y-13405595D01*
X8583203Y-13405595D02*
X8573679Y-13386548D01*
X8573679Y-13386548D02*
X8554632Y-13357976D01*
X8554632Y-13357976D02*
X8545108Y-13348452D01*
M02*
