M48
; DRILL file {KiCad 7.0.1} date Sun Apr 23 14:22:24 2023
; FORMAT={-:-/ absolute / inch / decimal}
; #@! TF.CreationDate,2023-04-23T14:22:24-06:00
; #@! TF.GenerationSoftware,Kicad,Pcbnew,7.0.1
; #@! TF.FileFunction,Plated,1,2,PTH
FMAT,2
INCH
; #@! TA.AperFunction,Plated,PTH,ViaDrill
T1C0.0157
; #@! TA.AperFunction,Plated,PTH,ComponentDrill
T2C0.0394
%
G90
G05
T1
X1.35Y-4.5544
X1.35Y-4.7268
X1.3875Y-4.825
X1.4Y-3.2
X1.4752Y-4.5252
X1.55Y-3.15
X1.5743Y-3.3
X1.625Y-3.375
X1.625Y-3.425
X1.625Y-4.55
X1.6493Y-2.85
X1.65Y-4.45
X1.7Y-4.1326
X1.7Y-4.2
X1.725Y-2.325
X1.7493Y-3.2806
X1.7493Y-3.3829
X1.75Y-4.1326
X1.775Y-4.075
X1.775Y-4.375
X1.8Y-4.575
X1.8007Y-3.275
X1.825Y-4.152
X1.8718Y-4.3735
X1.8807Y-3.2307
X1.8904Y-3.3221
X1.8965Y-3.3536
X1.925Y-4.45
X1.9257Y-4.375
X1.975Y-3.6
X1.975Y-4.75
X1.9781Y-3.4129
X1.9877Y-3.375
X2.0Y-3.3
X2.0Y-3.55
X2.025Y-3.75
X2.05Y-2.325
X2.0682Y-3.6432
X2.0764Y-3.3993
X2.1Y-3.425
X2.15Y-4.425
X2.15Y-4.575
X2.175Y-3.05
X2.1888Y-4.2112
X2.2251Y-4.1749
X2.3Y-3.6154
X2.3Y-3.875
X2.375Y-3.575
X2.425Y-4.1
X2.425Y-4.2
X2.45Y-4.5493
X2.475Y-3.9
X2.475Y-4.3
X2.5Y-3.325
X2.513Y-4.5041
X2.525Y-4.475
X2.55Y-4.65
X2.575Y-4.5493
X2.5815Y-4.6054
X2.5901Y-4.363
X2.6004Y-4.4803
X2.625Y-3.3
X2.625Y-4.5
X2.6405Y-4.545
X2.65Y-3.525
X2.65Y-3.7007
X2.65Y-4.575
X2.675Y-4.3507
X2.7Y-3.0
X2.7Y-4.075
X2.709Y-4.5639
X2.7194Y-3.7306
X2.725Y-3.9
X2.7325Y-3.6
X2.75Y-4.7014
X2.7572Y-4.4729
X2.7581Y-4.075
X2.7581Y-4.2
X2.7581Y-4.2679
X2.825Y-3.65
X2.8359Y-4.5246
X2.85Y-4.075
X2.875Y-4.05
X2.875Y-4.6
X2.8993Y-4.075
X2.9Y-4.1627
X2.925Y-3.1585
X2.9357Y-4.6357
X2.95Y-4.1
X2.9754Y-4.1754
X3.025Y-4.3
X3.075Y-4.375
X3.15Y-2.35
X3.2135Y-3.8477
X3.225Y-4.4507
X3.275Y-4.05
X3.3Y-4.525
X3.35Y-3.175
X3.4Y-4.15
X3.425Y-4.5
X3.475Y-4.0
X3.65Y-4.3736
X3.7Y-2.875
X3.9177Y-4.325
X3.95Y-4.15
X3.95Y-4.45
X4.125Y-4.325
X4.275Y-4.625
X4.4Y-2.525
X4.55Y-2.85
T2
X0.8484Y-4.7011
X0.8484Y-4.8011
X0.9484Y-4.7011
X0.9484Y-4.8011
X1.0484Y-4.7011
X1.0484Y-4.8011
X1.1484Y-4.7011
X1.1484Y-4.8011
X1.575Y-2.15
X1.575Y-2.75
X1.675Y-2.15
X1.675Y-2.75
X1.775Y-2.15
X1.775Y-2.75
X1.875Y-2.15
X1.875Y-2.75
X1.975Y-2.15
X1.975Y-2.75
X2.075Y-2.15
X2.075Y-2.75
X2.225Y-4.7
X2.225Y-4.8
X2.325Y-4.7
X2.325Y-4.8
X2.425Y-4.7
X2.425Y-4.8
X3.8321Y-2.4063
X4.1313Y-2.4063
T0
M30
