%TF.GenerationSoftware,KiCad,Pcbnew,7.0.1*%
%TF.CreationDate,2023-04-23T14:22:28-06:00*%
%TF.ProjectId,Phase_B_UnoShield,50686173-655f-4425-9f55-6e6f53686965,rev?*%
%TF.SameCoordinates,Original*%
%TF.FileFunction,Paste,Top*%
%TF.FilePolarity,Positive*%
%FSLAX46Y46*%
G04 Gerber Fmt 4.6, Leading zero omitted, Abs format (unit mm)*
G04 Created by KiCad (PCBNEW 7.0.1) date 2023-04-23 14:22:28*
%MOMM*%
%LPD*%
G01*
G04 APERTURE LIST*
G04 Aperture macros list*
%AMRoundRect*
0 Rectangle with rounded corners*
0 $1 Rounding radius*
0 $2 $3 $4 $5 $6 $7 $8 $9 X,Y pos of 4 corners*
0 Add a 4 corners polygon primitive as box body*
4,1,4,$2,$3,$4,$5,$6,$7,$8,$9,$2,$3,0*
0 Add four circle primitives for the rounded corners*
1,1,$1+$1,$2,$3*
1,1,$1+$1,$4,$5*
1,1,$1+$1,$6,$7*
1,1,$1+$1,$8,$9*
0 Add four rect primitives between the rounded corners*
20,1,$1+$1,$2,$3,$4,$5,0*
20,1,$1+$1,$4,$5,$6,$7,0*
20,1,$1+$1,$6,$7,$8,$9,0*
20,1,$1+$1,$8,$9,$2,$3,0*%
G04 Aperture macros list end*
%ADD10RoundRect,0.250000X-0.450000X0.262500X-0.450000X-0.262500X0.450000X-0.262500X0.450000X0.262500X0*%
%ADD11RoundRect,0.243750X0.243750X0.456250X-0.243750X0.456250X-0.243750X-0.456250X0.243750X-0.456250X0*%
%ADD12RoundRect,0.225000X-0.225000X-0.250000X0.225000X-0.250000X0.225000X0.250000X-0.225000X0.250000X0*%
%ADD13RoundRect,0.243750X-0.456250X0.243750X-0.456250X-0.243750X0.456250X-0.243750X0.456250X0.243750X0*%
%ADD14RoundRect,0.225000X0.250000X-0.225000X0.250000X0.225000X-0.250000X0.225000X-0.250000X-0.225000X0*%
%ADD15R,2.000000X0.500000*%
%ADD16R,1.700000X2.000000*%
%ADD17RoundRect,0.200000X-0.200000X-0.275000X0.200000X-0.275000X0.200000X0.275000X-0.200000X0.275000X0*%
%ADD18RoundRect,0.250000X0.450000X-0.262500X0.450000X0.262500X-0.450000X0.262500X-0.450000X-0.262500X0*%
%ADD19RoundRect,0.100000X-0.637500X-0.100000X0.637500X-0.100000X0.637500X0.100000X-0.637500X0.100000X0*%
%ADD20RoundRect,0.200000X0.200000X0.275000X-0.200000X0.275000X-0.200000X-0.275000X0.200000X-0.275000X0*%
%ADD21RoundRect,0.150000X-0.512500X-0.150000X0.512500X-0.150000X0.512500X0.150000X-0.512500X0.150000X0*%
%ADD22RoundRect,0.225000X0.225000X0.250000X-0.225000X0.250000X-0.225000X-0.250000X0.225000X-0.250000X0*%
%ADD23R,1.500000X2.000000*%
%ADD24R,1.200000X1.400000*%
%ADD25RoundRect,0.225000X-0.250000X0.225000X-0.250000X-0.225000X0.250000X-0.225000X0.250000X0.225000X0*%
%ADD26RoundRect,0.250000X1.450000X-0.312500X1.450000X0.312500X-1.450000X0.312500X-1.450000X-0.312500X0*%
%ADD27R,1.000000X0.700000*%
%ADD28R,1.500000X0.550000*%
%ADD29R,0.550000X1.500000*%
G04 APERTURE END LIST*
D10*
%TO.C,R17*%
X46355000Y-120182500D03*
X46355000Y-122007500D03*
%TD*%
D11*
%TO.C,D3*%
X33322500Y-81915000D03*
X31447500Y-81915000D03*
%TD*%
D12*
%TO.C,C3*%
X59410000Y-84455000D03*
X60960000Y-84455000D03*
%TD*%
D13*
%TO.C,D2*%
X86360000Y-60355000D03*
X86360000Y-62230000D03*
%TD*%
D14*
%TO.C,C5*%
X68580000Y-80645000D03*
X68580000Y-79095000D03*
%TD*%
D10*
%TO.C,R10*%
X45085000Y-47070000D03*
X45085000Y-48895000D03*
%TD*%
%TO.C,R1*%
X100258335Y-102146853D03*
X100258335Y-103971853D03*
%TD*%
%TO.C,R6*%
X55245000Y-47347500D03*
X55245000Y-49172500D03*
%TD*%
D15*
%TO.C,J1*%
X26135000Y-102535000D03*
X26135000Y-103335000D03*
X26135000Y-104135000D03*
X26135000Y-104935000D03*
X26135000Y-105735000D03*
D16*
X26035000Y-99685000D03*
X20585000Y-99685000D03*
X26035000Y-108585000D03*
X20585000Y-108585000D03*
%TD*%
D17*
%TO.C,R3*%
X78192500Y-69850000D03*
X79842500Y-69850000D03*
%TD*%
D10*
%TO.C,R5*%
X40667277Y-47705000D03*
X40667277Y-49530000D03*
%TD*%
D18*
%TO.C,R8*%
X42545000Y-75565000D03*
X42545000Y-73740000D03*
%TD*%
D12*
%TO.C,C9*%
X75920000Y-113665000D03*
X77470000Y-113665000D03*
%TD*%
D10*
%TO.C,R2*%
X84459401Y-100337123D03*
X84459401Y-102162123D03*
%TD*%
D19*
%TO.C,U2*%
X43502465Y-82703067D03*
X43502465Y-83353067D03*
X43502465Y-84003067D03*
X43502465Y-84653067D03*
X43502465Y-85303067D03*
X43502465Y-85953067D03*
X43502465Y-86603067D03*
X43502465Y-87253067D03*
X49227465Y-87253067D03*
X49227465Y-86603067D03*
X49227465Y-85953067D03*
X49227465Y-85303067D03*
X49227465Y-84653067D03*
X49227465Y-84003067D03*
X49227465Y-83353067D03*
X49227465Y-82703067D03*
%TD*%
D12*
%TO.C,C11*%
X68935000Y-89535000D03*
X70485000Y-89535000D03*
%TD*%
D20*
%TO.C,R14*%
X33114036Y-86524538D03*
X31464036Y-86524538D03*
%TD*%
D12*
%TO.C,C6*%
X68760000Y-93345000D03*
X70310000Y-93345000D03*
%TD*%
D14*
%TO.C,C1*%
X97790000Y-117475000D03*
X97790000Y-115925000D03*
%TD*%
D18*
%TO.C,R9*%
X36830000Y-75565000D03*
X36830000Y-73740000D03*
%TD*%
D12*
%TO.C,C8*%
X111480000Y-72390000D03*
X113030000Y-72390000D03*
%TD*%
D18*
%TO.C,R11*%
X58474704Y-75687736D03*
X58474704Y-73862736D03*
%TD*%
D21*
%TO.C,U5*%
X47191712Y-110039174D03*
X47191712Y-110989174D03*
X47191712Y-111939174D03*
X49466712Y-111939174D03*
X49466712Y-110039174D03*
%TD*%
D20*
%TO.C,R4*%
X85614034Y-69572325D03*
X83964034Y-69572325D03*
%TD*%
D22*
%TO.C,C7*%
X113030000Y-67310000D03*
X111480000Y-67310000D03*
%TD*%
D23*
%TO.C,S2*%
X87274904Y-80877421D03*
X87274904Y-95177421D03*
X82274904Y-80877421D03*
X82274904Y-95177421D03*
%TD*%
D22*
%TO.C,C10*%
X55245000Y-95885000D03*
X53695000Y-95885000D03*
%TD*%
%TO.C,C12*%
X39860000Y-114305000D03*
X38310000Y-114305000D03*
%TD*%
%TO.C,C4*%
X62230000Y-93980000D03*
X60680000Y-93980000D03*
%TD*%
D18*
%TO.C,R12*%
X48895000Y-75565000D03*
X48895000Y-73740000D03*
%TD*%
D24*
%TO.C,Y1*%
X85725000Y-110490000D03*
X85725000Y-108290000D03*
X84025000Y-108290000D03*
X84025000Y-110490000D03*
%TD*%
D13*
%TO.C,D1*%
X78725000Y-59785000D03*
X78725000Y-61660000D03*
%TD*%
D17*
%TO.C,R16*%
X37984446Y-99935555D03*
X39634446Y-99935555D03*
%TD*%
D21*
%TO.C,U4*%
X46619689Y-102762287D03*
X46619689Y-103712287D03*
X46619689Y-104662287D03*
X48894689Y-104662287D03*
X48894689Y-103712287D03*
X48894689Y-102762287D03*
%TD*%
D25*
%TO.C,C2*%
X108585000Y-114020000D03*
X108585000Y-115570000D03*
%TD*%
D17*
%TO.C,R15*%
X38355000Y-106045000D03*
X40005000Y-106045000D03*
%TD*%
D26*
%TO.C,F1*%
X32385000Y-95250000D03*
X32385000Y-90975000D03*
%TD*%
D12*
%TO.C,C13*%
X53695000Y-104140000D03*
X55245000Y-104140000D03*
%TD*%
%TO.C,C14*%
X53695000Y-110490000D03*
X55245000Y-110490000D03*
%TD*%
D17*
%TO.C,R13*%
X70105000Y-121285000D03*
X71755000Y-121285000D03*
%TD*%
D27*
%TO.C,S3*%
X82118060Y-114768980D03*
X88118060Y-114768980D03*
X82118060Y-118468980D03*
X88118060Y-118468980D03*
%TD*%
D28*
%TO.C,U3*%
X59705000Y-102680000D03*
X59705000Y-103480000D03*
X59705000Y-104280000D03*
X59705000Y-105080000D03*
X59705000Y-105880000D03*
X59705000Y-106680000D03*
X59705000Y-107480000D03*
X59705000Y-108280000D03*
X59705000Y-109080000D03*
X59705000Y-109880000D03*
X59705000Y-110680000D03*
D29*
X61405000Y-112380000D03*
X62205000Y-112380000D03*
X63005000Y-112380000D03*
X63805000Y-112380000D03*
X64605000Y-112380000D03*
X65405000Y-112380000D03*
X66205000Y-112380000D03*
X67005000Y-112380000D03*
X67805000Y-112380000D03*
X68605000Y-112380000D03*
X69405000Y-112380000D03*
D28*
X71105000Y-110680000D03*
X71105000Y-109880000D03*
X71105000Y-109080000D03*
X71105000Y-108280000D03*
X71105000Y-107480000D03*
X71105000Y-106680000D03*
X71105000Y-105880000D03*
X71105000Y-105080000D03*
X71105000Y-104280000D03*
X71105000Y-103480000D03*
X71105000Y-102680000D03*
D29*
X69405000Y-100980000D03*
X68605000Y-100980000D03*
X67805000Y-100980000D03*
X67005000Y-100980000D03*
X66205000Y-100980000D03*
X65405000Y-100980000D03*
X64605000Y-100980000D03*
X63805000Y-100980000D03*
X63005000Y-100980000D03*
X62205000Y-100980000D03*
X61405000Y-100980000D03*
%TD*%
D23*
%TO.C,S1*%
X106680000Y-80950000D03*
X106680000Y-95250000D03*
X101680000Y-80950000D03*
X101680000Y-95250000D03*
%TD*%
D18*
%TO.C,R7*%
X53653525Y-75433990D03*
X53653525Y-73608990D03*
%TD*%
M02*
