M48
; DRILL file {KiCad 7.0.1} date Wed May 31 19:04:50 2023
; FORMAT={-:-/ absolute / inch / decimal}
; #@! TF.CreationDate,2023-05-31T19:04:50-06:00
; #@! TF.GenerationSoftware,Kicad,Pcbnew,7.0.1
; #@! TF.FileFunction,Plated,1,2,PTH
FMAT,2
INCH
; #@! TA.AperFunction,Plated,PTH,ViaDrill
T1C0.0157
; #@! TA.AperFunction,Plated,PTH,ComponentDrill
T2C0.0354
; #@! TA.AperFunction,Plated,PTH,ComponentDrill
T3C0.0394
%
G90
G05
T1
X3.25Y-2.075
X3.4285Y-2.075
X5.15Y-1.725
X5.675Y-1.775
X5.7Y-1.4
X5.7Y-1.675
T2
X5.1081Y-2.1679
X5.2656Y-2.1679
T3
X3.525Y-1.65
X3.525Y-1.75
X3.525Y-1.85
X3.525Y-1.95
X3.525Y-2.05
X3.525Y-2.15
X3.525Y-2.25
X3.525Y-2.35
X3.525Y-2.45
X3.525Y-2.55
X3.525Y-2.65
X3.525Y-2.75
X3.525Y-2.85
X3.525Y-2.95
X3.525Y-3.05
X3.525Y-3.15
X3.525Y-3.25
X3.525Y-3.35
X3.525Y-3.45
X3.525Y-3.55
X3.525Y-3.65
X3.525Y-3.75
X3.525Y-3.85
X3.525Y-3.95
X3.525Y-4.05
X3.625Y-1.65
X3.625Y-1.75
X3.625Y-1.85
X3.625Y-1.95
X3.625Y-2.05
X3.625Y-2.15
X3.625Y-2.25
X3.625Y-2.35
X3.625Y-2.45
X3.625Y-2.55
X3.625Y-2.65
X3.625Y-2.75
X3.625Y-2.85
X3.625Y-2.95
X3.625Y-3.05
X3.625Y-3.15
X3.625Y-3.25
X3.625Y-3.35
X3.625Y-3.45
X3.625Y-3.55
X3.625Y-3.65
X3.625Y-3.75
X3.625Y-3.85
X3.625Y-3.95
X3.625Y-4.05
X4.125Y-1.4
X4.225Y-1.4
X4.325Y-1.4
X5.875Y-1.675
X5.875Y-1.775
X5.875Y-1.875
X5.875Y-1.975
X5.875Y-2.075
X5.875Y-2.175
X5.875Y-2.275
X5.875Y-2.375
X5.875Y-2.475
X5.875Y-2.575
X5.875Y-2.675
X5.875Y-2.775
X5.875Y-2.875
X5.875Y-2.975
X5.875Y-3.075
X5.875Y-3.175
X5.875Y-3.275
X5.875Y-3.375
X5.875Y-3.475
X5.875Y-3.575
X5.875Y-3.675
X5.875Y-3.775
X5.875Y-3.875
X5.875Y-3.975
X5.875Y-4.075
X5.975Y-1.675
X5.975Y-1.775
X5.975Y-1.875
X5.975Y-1.975
X5.975Y-2.075
X5.975Y-2.175
X5.975Y-2.275
X5.975Y-2.375
X5.975Y-2.475
X5.975Y-2.575
X5.975Y-2.675
X5.975Y-2.775
X5.975Y-2.875
X5.975Y-2.975
X5.975Y-3.075
X5.975Y-3.175
X5.975Y-3.275
X5.975Y-3.375
X5.975Y-3.475
X5.975Y-3.575
X5.975Y-3.675
X5.975Y-3.775
X5.975Y-3.875
X5.975Y-3.975
X5.975Y-4.075
T0
M30
