%TF.GenerationSoftware,KiCad,Pcbnew,7.0.1*%
%TF.CreationDate,2023-05-31T13:14:41-06:00*%
%TF.ProjectId,Phase_D_STM_Shield,50686173-655f-4445-9f53-544d5f536869,rev?*%
%TF.SameCoordinates,Original*%
%TF.FileFunction,Soldermask,Top*%
%TF.FilePolarity,Negative*%
%FSLAX46Y46*%
G04 Gerber Fmt 4.6, Leading zero omitted, Abs format (unit mm)*
G04 Created by KiCad (PCBNEW 7.0.1) date 2023-05-31 13:14:41*
%MOMM*%
%LPD*%
G01*
G04 APERTURE LIST*
G04 Aperture macros list*
%AMRoundRect*
0 Rectangle with rounded corners*
0 $1 Rounding radius*
0 $2 $3 $4 $5 $6 $7 $8 $9 X,Y pos of 4 corners*
0 Add a 4 corners polygon primitive as box body*
4,1,4,$2,$3,$4,$5,$6,$7,$8,$9,$2,$3,0*
0 Add four circle primitives for the rounded corners*
1,1,$1+$1,$2,$3*
1,1,$1+$1,$4,$5*
1,1,$1+$1,$6,$7*
1,1,$1+$1,$8,$9*
0 Add four rect primitives between the rounded corners*
20,1,$1+$1,$2,$3,$4,$5,0*
20,1,$1+$1,$4,$5,$6,$7,0*
20,1,$1+$1,$6,$7,$8,$9,0*
20,1,$1+$1,$8,$9,$2,$3,0*%
G04 Aperture macros list end*
%ADD10RoundRect,0.200000X-0.200000X-0.275000X0.200000X-0.275000X0.200000X0.275000X-0.200000X0.275000X0*%
%ADD11RoundRect,0.218750X-0.218750X-0.256250X0.218750X-0.256250X0.218750X0.256250X-0.218750X0.256250X0*%
%ADD12R,1.600000X1.600000*%
%ADD13C,1.600000*%
%ADD14R,1.700000X1.700000*%
%ADD15O,1.700000X1.700000*%
G04 APERTURE END LIST*
D10*
%TO.C,R1*%
X132970000Y-66040000D03*
X134620000Y-66040000D03*
%TD*%
D11*
%TO.C,D1*%
X128997500Y-66080000D03*
X130572500Y-66080000D03*
%TD*%
D12*
%TO.C,BZ1*%
X129745000Y-55065000D03*
D13*
X133745000Y-55065000D03*
%TD*%
D14*
%TO.C,MOTION_SENSOR1*%
X104775000Y-35560000D03*
D15*
X107315000Y-35560000D03*
X109855000Y-35560000D03*
%TD*%
D14*
%TO.C,J2*%
X151765000Y-42545000D03*
D15*
X149225000Y-42545000D03*
X151765000Y-45085000D03*
X149225000Y-45085000D03*
X151765000Y-47625000D03*
X149225000Y-47625000D03*
X151765000Y-50165000D03*
X149225000Y-50165000D03*
X151765000Y-52705000D03*
X149225000Y-52705000D03*
X151765000Y-55245000D03*
X149225000Y-55245000D03*
X151765000Y-57785000D03*
X149225000Y-57785000D03*
X151765000Y-60325000D03*
X149225000Y-60325000D03*
X151765000Y-62865000D03*
X149225000Y-62865000D03*
X151765000Y-65405000D03*
X149225000Y-65405000D03*
X151765000Y-67945000D03*
X149225000Y-67945000D03*
X151765000Y-70485000D03*
X149225000Y-70485000D03*
X151765000Y-73025000D03*
X149225000Y-73025000D03*
X151765000Y-75565000D03*
X149225000Y-75565000D03*
X151765000Y-78105000D03*
X149225000Y-78105000D03*
X151765000Y-80645000D03*
X149225000Y-80645000D03*
X151765000Y-83185000D03*
X149225000Y-83185000D03*
X151765000Y-85725000D03*
X149225000Y-85725000D03*
X151765000Y-88265000D03*
X149225000Y-88265000D03*
X151765000Y-90805000D03*
X149225000Y-90805000D03*
X151765000Y-93345000D03*
X149225000Y-93345000D03*
X151765000Y-95885000D03*
X149225000Y-95885000D03*
X151765000Y-98425000D03*
X149225000Y-98425000D03*
X151765000Y-100965000D03*
X149225000Y-100965000D03*
X151765000Y-103505000D03*
X149225000Y-103505000D03*
%TD*%
D14*
%TO.C,J1*%
X92075000Y-41910000D03*
D15*
X89535000Y-41910000D03*
X92075000Y-44450000D03*
X89535000Y-44450000D03*
X92075000Y-46990000D03*
X89535000Y-46990000D03*
X92075000Y-49530000D03*
X89535000Y-49530000D03*
X92075000Y-52070000D03*
X89535000Y-52070000D03*
X92075000Y-54610000D03*
X89535000Y-54610000D03*
X92075000Y-57150000D03*
X89535000Y-57150000D03*
X92075000Y-59690000D03*
X89535000Y-59690000D03*
X92075000Y-62230000D03*
X89535000Y-62230000D03*
X92075000Y-64770000D03*
X89535000Y-64770000D03*
X92075000Y-67310000D03*
X89535000Y-67310000D03*
X92075000Y-69850000D03*
X89535000Y-69850000D03*
X92075000Y-72390000D03*
X89535000Y-72390000D03*
X92075000Y-74930000D03*
X89535000Y-74930000D03*
X92075000Y-77470000D03*
X89535000Y-77470000D03*
X92075000Y-80010000D03*
X89535000Y-80010000D03*
X92075000Y-82550000D03*
X89535000Y-82550000D03*
X92075000Y-85090000D03*
X89535000Y-85090000D03*
X92075000Y-87630000D03*
X89535000Y-87630000D03*
X92075000Y-90170000D03*
X89535000Y-90170000D03*
X92075000Y-92710000D03*
X89535000Y-92710000D03*
X92075000Y-95250000D03*
X89535000Y-95250000D03*
X92075000Y-97790000D03*
X89535000Y-97790000D03*
X92075000Y-100330000D03*
X89535000Y-100330000D03*
X92075000Y-102870000D03*
X89535000Y-102870000D03*
%TD*%
M02*
