%TF.GenerationSoftware,KiCad,Pcbnew,7.0.1*%
%TF.CreationDate,2023-05-31T13:14:41-06:00*%
%TF.ProjectId,Phase_D_STM_Shield,50686173-655f-4445-9f53-544d5f536869,rev?*%
%TF.SameCoordinates,Original*%
%TF.FileFunction,Copper,L1,Top*%
%TF.FilePolarity,Positive*%
%FSLAX46Y46*%
G04 Gerber Fmt 4.6, Leading zero omitted, Abs format (unit mm)*
G04 Created by KiCad (PCBNEW 7.0.1) date 2023-05-31 13:14:41*
%MOMM*%
%LPD*%
G01*
G04 APERTURE LIST*
G04 Aperture macros list*
%AMRoundRect*
0 Rectangle with rounded corners*
0 $1 Rounding radius*
0 $2 $3 $4 $5 $6 $7 $8 $9 X,Y pos of 4 corners*
0 Add a 4 corners polygon primitive as box body*
4,1,4,$2,$3,$4,$5,$6,$7,$8,$9,$2,$3,0*
0 Add four circle primitives for the rounded corners*
1,1,$1+$1,$2,$3*
1,1,$1+$1,$4,$5*
1,1,$1+$1,$6,$7*
1,1,$1+$1,$8,$9*
0 Add four rect primitives between the rounded corners*
20,1,$1+$1,$2,$3,$4,$5,0*
20,1,$1+$1,$4,$5,$6,$7,0*
20,1,$1+$1,$6,$7,$8,$9,0*
20,1,$1+$1,$8,$9,$2,$3,0*%
G04 Aperture macros list end*
%TA.AperFunction,SMDPad,CuDef*%
%ADD10RoundRect,0.200000X-0.200000X-0.275000X0.200000X-0.275000X0.200000X0.275000X-0.200000X0.275000X0*%
%TD*%
%TA.AperFunction,SMDPad,CuDef*%
%ADD11RoundRect,0.218750X-0.218750X-0.256250X0.218750X-0.256250X0.218750X0.256250X-0.218750X0.256250X0*%
%TD*%
%TA.AperFunction,ComponentPad*%
%ADD12R,1.600000X1.600000*%
%TD*%
%TA.AperFunction,ComponentPad*%
%ADD13C,1.600000*%
%TD*%
%TA.AperFunction,ComponentPad*%
%ADD14R,1.700000X1.700000*%
%TD*%
%TA.AperFunction,ComponentPad*%
%ADD15O,1.700000X1.700000*%
%TD*%
%TA.AperFunction,ViaPad*%
%ADD16C,0.800000*%
%TD*%
%TA.AperFunction,Conductor*%
%ADD17C,0.250000*%
%TD*%
G04 APERTURE END LIST*
D10*
%TO.P,R1,1*%
%TO.N,GREEN_LED*%
X132970000Y-66040000D03*
%TO.P,R1,2*%
%TO.N,Net-(D1-K)*%
X134620000Y-66040000D03*
%TD*%
D11*
%TO.P,D1,1,K*%
%TO.N,Net-(D1-K)*%
X128997500Y-66080000D03*
%TO.P,D1,2,A*%
%TO.N,GND*%
X130572500Y-66080000D03*
%TD*%
D12*
%TO.P,BZ1,1,-*%
%TO.N,BUZZER*%
X129745000Y-55065000D03*
D13*
%TO.P,BZ1,2,+*%
%TO.N,GND*%
X133745000Y-55065000D03*
%TD*%
D14*
%TO.P,MOTION_SENSOR1,1*%
%TO.N,N/C*%
X104775000Y-35560000D03*
D15*
%TO.P,MOTION_SENSOR1,2*%
X107315000Y-35560000D03*
%TO.P,MOTION_SENSOR1,3*%
X109855000Y-35560000D03*
%TD*%
D14*
%TO.P,J2,1,Pin_1*%
%TO.N,GND*%
X151765000Y-42545000D03*
D15*
%TO.P,J2,2,Pin_2*%
X149225000Y-42545000D03*
%TO.P,J2,3,Pin_3*%
%TO.N,+5V*%
X151765000Y-45085000D03*
%TO.P,J2,4,Pin_4*%
X149225000Y-45085000D03*
%TO.P,J2,5,Pin_5*%
%TO.N,+3V0*%
X151765000Y-47625000D03*
%TO.P,J2,6,Pin_6*%
X149225000Y-47625000D03*
%TO.P,J2,7,Pin_7*%
%TO.N,unconnected-(J2-Pin_7-Pad7)*%
X151765000Y-50165000D03*
%TO.P,J2,8,Pin_8*%
%TO.N,unconnected-(J2-Pin_8-Pad8)*%
X149225000Y-50165000D03*
%TO.P,J2,9,Pin_9*%
%TO.N,unconnected-(J2-Pin_9-Pad9)*%
X151765000Y-52705000D03*
%TO.P,J2,10,Pin_10*%
%TO.N,unconnected-(J2-Pin_10-Pad10)*%
X149225000Y-52705000D03*
%TO.P,J2,11,Pin_11*%
%TO.N,unconnected-(J2-Pin_11-Pad11)*%
X151765000Y-55245000D03*
%TO.P,J2,12,Pin_12*%
%TO.N,unconnected-(J2-Pin_12-Pad12)*%
X149225000Y-55245000D03*
%TO.P,J2,13,Pin_13*%
%TO.N,unconnected-(J2-Pin_13-Pad13)*%
X151765000Y-57785000D03*
%TO.P,J2,14,Pin_14*%
%TO.N,unconnected-(J2-Pin_14-Pad14)*%
X149225000Y-57785000D03*
%TO.P,J2,15,Pin_15*%
%TO.N,unconnected-(J2-Pin_15-Pad15)*%
X151765000Y-60325000D03*
%TO.P,J2,16,Pin_16*%
%TO.N,unconnected-(J2-Pin_16-Pad16)*%
X149225000Y-60325000D03*
%TO.P,J2,17,Pin_17*%
%TO.N,unconnected-(J2-Pin_17-Pad17)*%
X151765000Y-62865000D03*
%TO.P,J2,18,Pin_18*%
%TO.N,unconnected-(J2-Pin_18-Pad18)*%
X149225000Y-62865000D03*
%TO.P,J2,19,Pin_19*%
%TO.N,unconnected-(J2-Pin_19-Pad19)*%
X151765000Y-65405000D03*
%TO.P,J2,20,Pin_20*%
%TO.N,unconnected-(J2-Pin_20-Pad20)*%
X149225000Y-65405000D03*
%TO.P,J2,21,Pin_21*%
%TO.N,unconnected-(J2-Pin_21-Pad21)*%
X151765000Y-67945000D03*
%TO.P,J2,22,Pin_22*%
%TO.N,unconnected-(J2-Pin_22-Pad22)*%
X149225000Y-67945000D03*
%TO.P,J2,23,Pin_23*%
%TO.N,unconnected-(J2-Pin_23-Pad23)*%
X151765000Y-70485000D03*
%TO.P,J2,24,Pin_24*%
%TO.N,unconnected-(J2-Pin_24-Pad24)*%
X149225000Y-70485000D03*
%TO.P,J2,25,Pin_25*%
%TO.N,unconnected-(J2-Pin_25-Pad25)*%
X151765000Y-73025000D03*
%TO.P,J2,26,Pin_26*%
%TO.N,unconnected-(J2-Pin_26-Pad26)*%
X149225000Y-73025000D03*
%TO.P,J2,27,Pin_27*%
%TO.N,unconnected-(J2-Pin_27-Pad27)*%
X151765000Y-75565000D03*
%TO.P,J2,28,Pin_28*%
%TO.N,unconnected-(J2-Pin_28-Pad28)*%
X149225000Y-75565000D03*
%TO.P,J2,29,Pin_29*%
%TO.N,unconnected-(J2-Pin_29-Pad29)*%
X151765000Y-78105000D03*
%TO.P,J2,30,Pin_30*%
%TO.N,unconnected-(J2-Pin_30-Pad30)*%
X149225000Y-78105000D03*
%TO.P,J2,31,Pin_31*%
%TO.N,unconnected-(J2-Pin_31-Pad31)*%
X151765000Y-80645000D03*
%TO.P,J2,32,Pin_32*%
%TO.N,unconnected-(J2-Pin_32-Pad32)*%
X149225000Y-80645000D03*
%TO.P,J2,33,Pin_33*%
%TO.N,unconnected-(J2-Pin_33-Pad33)*%
X151765000Y-83185000D03*
%TO.P,J2,34,Pin_34*%
%TO.N,unconnected-(J2-Pin_34-Pad34)*%
X149225000Y-83185000D03*
%TO.P,J2,35,Pin_35*%
%TO.N,unconnected-(J2-Pin_35-Pad35)*%
X151765000Y-85725000D03*
%TO.P,J2,36,Pin_36*%
%TO.N,unconnected-(J2-Pin_36-Pad36)*%
X149225000Y-85725000D03*
%TO.P,J2,37,Pin_37*%
%TO.N,unconnected-(J2-Pin_37-Pad37)*%
X151765000Y-88265000D03*
%TO.P,J2,38,Pin_38*%
%TO.N,unconnected-(J2-Pin_38-Pad38)*%
X149225000Y-88265000D03*
%TO.P,J2,39,Pin_39*%
%TO.N,unconnected-(J2-Pin_39-Pad39)*%
X151765000Y-90805000D03*
%TO.P,J2,40,Pin_40*%
%TO.N,unconnected-(J2-Pin_40-Pad40)*%
X149225000Y-90805000D03*
%TO.P,J2,41,Pin_41*%
%TO.N,unconnected-(J2-Pin_41-Pad41)*%
X151765000Y-93345000D03*
%TO.P,J2,42,Pin_42*%
%TO.N,unconnected-(J2-Pin_42-Pad42)*%
X149225000Y-93345000D03*
%TO.P,J2,43,Pin_43*%
%TO.N,unconnected-(J2-Pin_43-Pad43)*%
X151765000Y-95885000D03*
%TO.P,J2,44,Pin_44*%
%TO.N,unconnected-(J2-Pin_44-Pad44)*%
X149225000Y-95885000D03*
%TO.P,J2,45,Pin_45*%
%TO.N,unconnected-(J2-Pin_45-Pad45)*%
X151765000Y-98425000D03*
%TO.P,J2,46,Pin_46*%
%TO.N,unconnected-(J2-Pin_46-Pad46)*%
X149225000Y-98425000D03*
%TO.P,J2,47,Pin_47*%
%TO.N,unconnected-(J2-Pin_47-Pad47)*%
X151765000Y-100965000D03*
%TO.P,J2,48,Pin_48*%
%TO.N,unconnected-(J2-Pin_48-Pad48)*%
X149225000Y-100965000D03*
%TO.P,J2,49,Pin_49*%
%TO.N,GND*%
X151765000Y-103505000D03*
%TO.P,J2,50,Pin_50*%
X149225000Y-103505000D03*
%TD*%
D14*
%TO.P,J1,1,Pin_1*%
%TO.N,GND*%
X92075000Y-41910000D03*
D15*
%TO.P,J1,2,Pin_2*%
X89535000Y-41910000D03*
%TO.P,J1,3,Pin_3*%
%TO.N,unconnected-(J1-Pin_3-Pad3)*%
X92075000Y-44450000D03*
%TO.P,J1,4,Pin_4*%
%TO.N,unconnected-(J1-Pin_4-Pad4)*%
X89535000Y-44450000D03*
%TO.P,J1,5,Pin_5*%
%TO.N,unconnected-(J1-Pin_5-Pad5)*%
X92075000Y-46990000D03*
%TO.P,J1,6,Pin_6*%
%TO.N,GND*%
X89535000Y-46990000D03*
%TO.P,J1,7,Pin_7*%
%TO.N,unconnected-(J1-Pin_7-Pad7)*%
X92075000Y-49530000D03*
%TO.P,J1,8,Pin_8*%
%TO.N,unconnected-(J1-Pin_8-Pad8)*%
X89535000Y-49530000D03*
%TO.P,J1,9,Pin_9*%
%TO.N,unconnected-(J1-Pin_9-Pad9)*%
X92075000Y-52070000D03*
%TO.P,J1,10,Pin_10*%
%TO.N,unconnected-(J1-Pin_10-Pad10)*%
X89535000Y-52070000D03*
%TO.P,J1,11,Pin_11*%
%TO.N,unconnected-(J1-Pin_11-Pad11)*%
X92075000Y-54610000D03*
%TO.P,J1,12,Pin_12*%
%TO.N,OUT*%
X89535000Y-54610000D03*
%TO.P,J1,13,Pin_13*%
%TO.N,unconnected-(J1-Pin_13-Pad13)*%
X92075000Y-57150000D03*
%TO.P,J1,14,Pin_14*%
%TO.N,unconnected-(J1-Pin_14-Pad14)*%
X89535000Y-57150000D03*
%TO.P,J1,15,Pin_15*%
%TO.N,unconnected-(J1-Pin_15-Pad15)*%
X92075000Y-59690000D03*
%TO.P,J1,16,Pin_16*%
%TO.N,unconnected-(J1-Pin_16-Pad16)*%
X89535000Y-59690000D03*
%TO.P,J1,17,Pin_17*%
%TO.N,unconnected-(J1-Pin_17-Pad17)*%
X92075000Y-62230000D03*
%TO.P,J1,18,Pin_18*%
%TO.N,unconnected-(J1-Pin_18-Pad18)*%
X89535000Y-62230000D03*
%TO.P,J1,19,Pin_19*%
%TO.N,unconnected-(J1-Pin_19-Pad19)*%
X92075000Y-64770000D03*
%TO.P,J1,20,Pin_20*%
%TO.N,unconnected-(J1-Pin_20-Pad20)*%
X89535000Y-64770000D03*
%TO.P,J1,21,Pin_21*%
%TO.N,unconnected-(J1-Pin_21-Pad21)*%
X92075000Y-67310000D03*
%TO.P,J1,22,Pin_22*%
%TO.N,unconnected-(J1-Pin_22-Pad22)*%
X89535000Y-67310000D03*
%TO.P,J1,23,Pin_23*%
%TO.N,unconnected-(J1-Pin_23-Pad23)*%
X92075000Y-69850000D03*
%TO.P,J1,24,Pin_24*%
%TO.N,GND*%
X89535000Y-69850000D03*
%TO.P,J1,25,Pin_25*%
%TO.N,unconnected-(J1-Pin_25-Pad25)*%
X92075000Y-72390000D03*
%TO.P,J1,26,Pin_26*%
%TO.N,unconnected-(J1-Pin_26-Pad26)*%
X89535000Y-72390000D03*
%TO.P,J1,27,Pin_27*%
%TO.N,unconnected-(J1-Pin_27-Pad27)*%
X92075000Y-74930000D03*
%TO.P,J1,28,Pin_28*%
%TO.N,BUZZER*%
X89535000Y-74930000D03*
%TO.P,J1,29,Pin_29*%
%TO.N,unconnected-(J1-Pin_29-Pad29)*%
X92075000Y-77470000D03*
%TO.P,J1,30,Pin_30*%
%TO.N,GREEN_LED*%
X89535000Y-77470000D03*
%TO.P,J1,31,Pin_31*%
%TO.N,unconnected-(J1-Pin_31-Pad31)*%
X92075000Y-80010000D03*
%TO.P,J1,32,Pin_32*%
%TO.N,unconnected-(J1-Pin_32-Pad32)*%
X89535000Y-80010000D03*
%TO.P,J1,33,Pin_33*%
%TO.N,unconnected-(J1-Pin_33-Pad33)*%
X92075000Y-82550000D03*
%TO.P,J1,34,Pin_34*%
%TO.N,unconnected-(J1-Pin_34-Pad34)*%
X89535000Y-82550000D03*
%TO.P,J1,35,Pin_35*%
%TO.N,unconnected-(J1-Pin_35-Pad35)*%
X92075000Y-85090000D03*
%TO.P,J1,36,Pin_36*%
%TO.N,unconnected-(J1-Pin_36-Pad36)*%
X89535000Y-85090000D03*
%TO.P,J1,37,Pin_37*%
%TO.N,unconnected-(J1-Pin_37-Pad37)*%
X92075000Y-87630000D03*
%TO.P,J1,38,Pin_38*%
%TO.N,unconnected-(J1-Pin_38-Pad38)*%
X89535000Y-87630000D03*
%TO.P,J1,39,Pin_39*%
%TO.N,unconnected-(J1-Pin_39-Pad39)*%
X92075000Y-90170000D03*
%TO.P,J1,40,Pin_40*%
%TO.N,unconnected-(J1-Pin_40-Pad40)*%
X89535000Y-90170000D03*
%TO.P,J1,41,Pin_41*%
%TO.N,unconnected-(J1-Pin_41-Pad41)*%
X92075000Y-92710000D03*
%TO.P,J1,42,Pin_42*%
%TO.N,unconnected-(J1-Pin_42-Pad42)*%
X89535000Y-92710000D03*
%TO.P,J1,43,Pin_43*%
%TO.N,unconnected-(J1-Pin_43-Pad43)*%
X92075000Y-95250000D03*
%TO.P,J1,44,Pin_44*%
%TO.N,unconnected-(J1-Pin_44-Pad44)*%
X89535000Y-95250000D03*
%TO.P,J1,45,Pin_45*%
%TO.N,unconnected-(J1-Pin_45-Pad45)*%
X92075000Y-97790000D03*
%TO.P,J1,46,Pin_46*%
%TO.N,unconnected-(J1-Pin_46-Pad46)*%
X89535000Y-97790000D03*
%TO.P,J1,47,Pin_47*%
%TO.N,unconnected-(J1-Pin_47-Pad47)*%
X92075000Y-100330000D03*
%TO.P,J1,48,Pin_48*%
%TO.N,unconnected-(J1-Pin_48-Pad48)*%
X89535000Y-100330000D03*
%TO.P,J1,49,Pin_49*%
%TO.N,GND*%
X92075000Y-102870000D03*
%TO.P,J1,50,Pin_50*%
X89535000Y-102870000D03*
%TD*%
D16*
%TO.N,*%
X82550000Y-52705000D03*
X87084500Y-52705000D03*
X144145000Y-45085000D03*
X130810000Y-43815000D03*
X144780000Y-42545000D03*
X144780000Y-35560000D03*
%TD*%
D17*
%TO.N,*%
X88360000Y-53435000D02*
X88704150Y-53779150D01*
X87084500Y-52705000D02*
X87814500Y-53435000D01*
X82550000Y-34290000D02*
X82550000Y-52705000D01*
X87814500Y-53435000D02*
X88360000Y-53435000D01*
X85725000Y-31115000D02*
X82550000Y-34290000D01*
X102870000Y-31115000D02*
X85725000Y-31115000D01*
X107315000Y-35560000D02*
X102870000Y-31115000D01*
X147361701Y-43910000D02*
X148050000Y-44598299D01*
X145320000Y-43910000D02*
X147361701Y-43910000D01*
X144145000Y-45085000D02*
X145320000Y-43910000D01*
X108585000Y-43180000D02*
X130175000Y-43180000D01*
X130175000Y-43180000D02*
X130810000Y-43815000D01*
X104775000Y-39370000D02*
X108585000Y-43180000D01*
X104775000Y-35560000D02*
X104775000Y-39370000D01*
X148050000Y-44598299D02*
X148050000Y-45085000D01*
X144780000Y-42545000D02*
X148050000Y-42545000D01*
X109855000Y-35560000D02*
X144780000Y-35560000D01*
%TO.N,BUZZER*%
X86360000Y-74930000D02*
X89535000Y-74930000D01*
X91440000Y-38100000D02*
X86360000Y-38100000D01*
X94615000Y-36830000D02*
X92710000Y-36830000D01*
X86360000Y-38100000D02*
X86360000Y-74930000D01*
X107315000Y-49530000D02*
X94615000Y-36830000D01*
X119835000Y-55065000D02*
X114300000Y-49530000D01*
X129745000Y-55065000D02*
X119835000Y-55065000D01*
X114300000Y-49530000D02*
X107315000Y-49530000D01*
X92710000Y-36830000D02*
X91440000Y-38100000D01*
%TO.N,GREEN_LED*%
X86360000Y-77470000D02*
X89535000Y-77470000D01*
X86360000Y-107950000D02*
X86360000Y-77470000D01*
X111760000Y-108585000D02*
X86995000Y-108585000D01*
X142240000Y-78105000D02*
X111760000Y-108585000D01*
X142240000Y-60325000D02*
X142240000Y-78105000D01*
X138685000Y-60325000D02*
X142240000Y-60325000D01*
X132970000Y-66040000D02*
X138685000Y-60325000D01*
X86995000Y-108585000D02*
X86360000Y-107950000D01*
%TO.N,Net-(D1-K)*%
X128997500Y-68037500D02*
X128997500Y-66080000D01*
X131445000Y-70485000D02*
X128997500Y-68037500D01*
X131445000Y-69215000D02*
X131445000Y-70485000D01*
X134620000Y-66040000D02*
X131445000Y-69215000D01*
%TO.N,GND*%
X133745000Y-62907500D02*
X133745000Y-55065000D01*
X130572500Y-66080000D02*
X133745000Y-62907500D01*
X151765000Y-38735000D02*
X151765000Y-42545000D01*
X133985000Y-38735000D02*
X151765000Y-38735000D01*
X133745000Y-38975000D02*
X133985000Y-38735000D01*
X133745000Y-55065000D02*
X133745000Y-38975000D01*
%TD*%
M02*
